<svg width="375" height="173" viewBox="0 0 375 173" fill="none" xmlns="http://www.w3.org/2000/svg">
<path d="M41.0001 106.77C40.9922 107.109 40.8848 107.438 40.6913 107.717C40.4978 107.995 40.2266 108.211 39.9116 108.337C39.5966 108.462 39.2517 108.493 38.9196 108.424C38.5875 108.355 38.2829 108.19 38.0438 107.95C37.8046 107.709 37.6415 107.404 37.5745 107.071C37.5076 106.739 37.5399 106.394 37.6674 106.08C37.7948 105.765 38.0119 105.495 38.2915 105.303C38.5711 105.112 38.901 105.006 39.2401 105C39.4732 104.996 39.7047 105.039 39.9207 105.127C40.1368 105.214 40.3329 105.345 40.4973 105.51C40.6617 105.675 40.7909 105.872 40.8773 106.089C40.9637 106.305 41.0055 106.537 41.0001 106.77Z" fill="white"/>
<path d="M87.1299 4.37994C87.1299 4.72013 87.0291 5.05267 86.8401 5.33552C86.6511 5.61837 86.3824 5.83883 86.0682 5.96901C85.7539 6.0992 85.408 6.13326 85.0744 6.06689C84.7407 6.00053 84.4343 5.83671 84.1937 5.59617C83.9532 5.35562 83.7894 5.04914 83.723 4.7155C83.6566 4.38185 83.6907 4.03602 83.8209 3.72173C83.9511 3.40744 84.1715 3.13881 84.4544 2.94981C84.7372 2.76082 85.0698 2.65994 85.4099 2.65994C85.6362 2.65861 85.8604 2.7022 86.0697 2.78817C86.279 2.87413 86.4691 3.00078 86.6291 3.16076C86.7891 3.32074 86.9157 3.51088 87.0017 3.72016C87.0877 3.92944 87.1313 4.1537 87.1299 4.37994Z" fill="white"/>
<path d="M375 57.8699C375 58.2101 374.899 58.5427 374.71 58.8255C374.521 59.1084 374.253 59.3288 373.938 59.459C373.624 59.5892 373.278 59.6232 372.945 59.5569C372.611 59.4905 372.304 59.3267 372.064 59.0862C371.823 58.8456 371.659 58.5391 371.593 58.2055C371.527 57.8718 371.561 57.526 371.691 57.2117C371.821 56.8974 372.042 56.6288 372.324 56.4398C372.607 56.2508 372.94 56.1499 373.28 56.1499C373.506 56.1486 373.731 56.1922 373.94 56.2782C374.149 56.3641 374.339 56.4908 374.499 56.6507C374.659 56.8107 374.786 57.0009 374.872 57.2101C374.958 57.4194 375.001 57.6437 375 57.8699Z" fill="white"/>
<path d="M103.41 120.61C103.41 120.951 103.309 121.283 103.119 121.567C102.93 121.85 102.661 122.07 102.346 122.2C102.031 122.33 101.685 122.363 101.351 122.296C101.017 122.229 100.71 122.064 100.47 121.823C100.23 121.581 100.067 121.274 100.002 120.939C99.9366 120.605 99.9721 120.259 100.104 119.945C100.236 119.631 100.458 119.363 100.742 119.175C101.026 118.987 101.359 118.888 101.7 118.89C101.925 118.89 102.149 118.934 102.357 119.021C102.565 119.108 102.754 119.234 102.913 119.394C103.072 119.554 103.197 119.744 103.283 119.952C103.368 120.161 103.411 120.385 103.41 120.61Z" fill="white"/>
<path d="M50.77 137.38C50.77 137.72 50.6691 138.053 50.4801 138.335C50.2911 138.618 50.0225 138.839 49.7082 138.969C49.3939 139.099 49.048 139.133 48.7144 139.067C48.3808 139 48.0743 138.837 47.8337 138.596C47.5932 138.356 47.4294 138.049 47.363 137.715C47.2966 137.382 47.3307 137.036 47.4609 136.722C47.5911 136.407 47.8115 136.139 48.0944 135.95C48.3772 135.761 48.7098 135.66 49.05 135.66C49.5061 135.66 49.9436 135.841 50.2662 136.164C50.5887 136.486 50.77 136.924 50.77 137.38Z" fill="white"/>
<path d="M111.39 20.83C111.39 21.2497 111.265 21.66 111.032 22.0088C110.799 22.3577 110.467 22.6294 110.079 22.7895C109.691 22.9497 109.264 22.9911 108.853 22.9085C108.441 22.8259 108.064 22.623 107.767 22.3255C107.471 22.028 107.27 21.6493 107.19 21.2374C107.109 20.8255 107.152 20.3989 107.314 20.0117C107.476 19.6245 107.75 19.2941 108.1 19.0624C108.449 18.8307 108.86 18.708 109.28 18.71C109.841 18.7126 110.377 18.9372 110.773 19.3344C111.168 19.7317 111.39 20.2695 111.39 20.83Z" fill="white"/>
<path d="M53 48.4999C53 48.8697 52.8903 49.2313 52.6849 49.5388C52.4794 49.8463 52.1873 50.086 51.8456 50.2275C51.5039 50.3691 51.1279 50.4061 50.7652 50.334C50.4024 50.2618 50.0692 50.0837 49.8077 49.8222C49.5462 49.5606 49.3681 49.2274 49.2959 48.8647C49.2238 48.502 49.2608 48.126 49.4024 47.7843C49.5439 47.4426 49.7836 47.1505 50.0911 46.945C50.3986 46.7396 50.7602 46.6299 51.13 46.6299C51.626 46.6299 52.1016 46.8269 52.4523 47.1776C52.803 47.5283 53 48.0039 53 48.4999Z" fill="white"/>
<path d="M24.47 73.57C24.47 73.8655 24.382 74.1544 24.2174 74.3998C24.0528 74.6453 23.8189 74.8362 23.5455 74.9484C23.272 75.0605 22.9714 75.0888 22.6819 75.0297C22.3923 74.9706 22.1269 74.8267 21.9193 74.6163C21.7117 74.4059 21.5714 74.1385 21.5162 73.8482C21.461 73.5579 21.4934 73.2577 21.6092 72.9858C21.7251 72.7139 21.9192 72.4826 22.1668 72.3213C22.4145 72.16 22.7045 72.076 23 72.08C23.3917 72.0852 23.7656 72.2445 24.0407 72.5234C24.3158 72.8023 24.47 73.1782 24.47 73.57Z" fill="white"/>
<path d="M10.74 102C10.7379 102.353 10.6308 102.698 10.4322 102.99C10.2336 103.282 9.95248 103.509 9.62472 103.641C9.29697 103.773 8.93737 103.804 8.59171 103.731C8.24605 103.658 7.92997 103.484 7.6837 103.23C7.43744 102.977 7.27214 102.656 7.20885 102.308C7.14556 101.961 7.18714 101.602 7.3283 101.278C7.46946 100.954 7.70381 100.68 8.00151 100.49C8.29922 100.299 8.6468 100.202 9.00002 100.21C9.46688 100.22 9.91091 100.414 10.2364 100.749C10.5619 101.084 10.7428 101.533 10.74 102Z" fill="white"/>
<path d="M66.84 83.27C66.84 83.5216 66.7653 83.7676 66.6253 83.9766C66.4853 84.1857 66.2864 84.3485 66.0537 84.4443C65.8211 84.5401 65.5652 84.5647 65.3186 84.5149C65.072 84.465 64.8457 84.3431 64.6685 84.1645C64.4913 83.9859 64.3711 83.7586 64.3232 83.5116C64.2754 83.2646 64.302 83.0089 64.3996 82.7771C64.4973 82.5452 64.6616 82.3475 64.8718 82.2092C65.0819 82.0709 65.3285 81.9981 65.5801 82C65.7464 82 65.911 82.033 66.0645 82.0969C66.2181 82.1608 66.3574 82.2546 66.4746 82.3726C66.5917 82.4907 66.6843 82.6308 66.747 82.7848C66.8098 82.9388 66.8414 83.1037 66.84 83.27Z" fill="white"/>
<path d="M146.94 50.8301C146.94 51.1642 146.807 51.4847 146.571 51.721C146.335 51.9573 146.014 52.0901 145.68 52.0901C145.346 52.0901 145.025 51.9573 144.789 51.721C144.553 51.4847 144.42 51.1642 144.42 50.8301C144.42 50.4959 144.553 50.1754 144.789 49.9391C145.025 49.7028 145.346 49.5701 145.68 49.5701C146.014 49.5701 146.335 49.7028 146.571 49.9391C146.807 50.1754 146.94 50.4959 146.94 50.8301Z" fill="white"/>
<path d="M118.46 74.74C119.156 74.74 119.72 74.1759 119.72 73.48C119.72 72.7841 119.156 72.22 118.46 72.22C117.764 72.22 117.2 72.7841 117.2 73.48C117.2 74.1759 117.764 74.74 118.46 74.74Z" fill="white"/>
<path d="M118.46 102.08C119.156 102.08 119.72 101.516 119.72 100.82C119.72 100.124 119.156 99.5601 118.46 99.5601C117.764 99.5601 117.2 100.124 117.2 100.82C117.2 101.516 117.764 102.08 118.46 102.08Z" fill="white"/>
<path d="M260.91 11.41C260.912 11.7834 260.803 12.149 260.598 12.4606C260.392 12.7723 260.099 13.0161 259.755 13.1612C259.411 13.3064 259.031 13.3464 258.665 13.2762C258.298 13.206 257.96 13.0288 257.694 12.7669C257.428 12.505 257.246 12.1701 257.17 11.8045C257.094 11.439 257.128 11.0591 257.267 10.7128C257.407 10.3666 257.646 10.0694 257.954 9.85893C258.263 9.64842 258.627 9.53397 259 9.53001C259.249 9.52737 259.496 9.57398 259.727 9.66716C259.958 9.76033 260.168 9.89823 260.346 10.0729C260.523 10.2476 260.665 10.4557 260.761 10.6852C260.858 10.9146 260.909 11.161 260.91 11.41Z" fill="white"/>
<path d="M327.84 129.36C328.845 129.36 329.66 128.545 329.66 127.54C329.66 126.535 328.845 125.72 327.84 125.72C326.835 125.72 326.02 126.535 326.02 127.54C326.02 128.545 326.835 129.36 327.84 129.36Z" fill="white"/>
<path d="M283.09 47.46C283.09 47.8555 282.973 48.2422 282.753 48.5711C282.533 48.9 282.221 49.1563 281.855 49.3077C281.49 49.4591 281.088 49.4987 280.7 49.4215C280.312 49.3444 279.955 49.1539 279.676 48.8742C279.396 48.5945 279.206 48.2381 279.128 47.8501C279.051 47.4622 279.091 47.06 279.242 46.6946C279.394 46.3291 279.65 46.0168 279.979 45.797C280.308 45.5773 280.694 45.46 281.09 45.46C281.62 45.46 282.129 45.6707 282.504 46.0457C282.879 46.4208 283.09 46.9295 283.09 47.46Z" fill="white"/>
<path d="M366.72 105.73C366.72 106.073 366.618 106.407 366.428 106.692C366.237 106.977 365.966 107.199 365.65 107.329C365.333 107.46 364.985 107.494 364.649 107.426C364.313 107.358 364.005 107.193 363.763 106.95C363.522 106.707 363.358 106.398 363.292 106.061C363.226 105.725 363.262 105.377 363.395 105.061C363.527 104.745 363.75 104.476 364.036 104.287C364.322 104.098 364.657 103.998 365 104C365.457 104.003 365.895 104.186 366.217 104.51C366.539 104.834 366.72 105.273 366.72 105.73Z" fill="white"/>
<path d="M368.65 9.17004C368.65 9.36783 368.591 9.56117 368.481 9.72561C368.372 9.89006 368.215 10.0182 368.033 10.0939C367.85 10.1696 367.649 10.1894 367.455 10.1508C367.261 10.1122 367.083 10.017 366.943 9.87715C366.803 9.7373 366.708 9.55912 366.669 9.36513C366.631 9.17115 366.65 8.97009 366.726 8.78736C366.802 8.60463 366.93 8.44846 367.094 8.33857C367.259 8.22869 367.452 8.17004 367.65 8.17004C367.915 8.17004 368.17 8.2754 368.357 8.46294C368.545 8.65047 368.65 8.90483 368.65 9.17004Z" fill="white"/>
<path d="M267 88.54C268.336 88.54 269.42 87.4565 269.42 86.12C269.42 84.7834 268.336 83.7 267 83.7C265.663 83.7 264.58 84.7834 264.58 86.12C264.58 87.4565 265.663 88.54 267 88.54Z" fill="white"/>
<path d="M261.53 123.05C261.53 123.171 261.494 123.289 261.427 123.39C261.359 123.49 261.263 123.569 261.151 123.614C261.039 123.66 260.916 123.672 260.797 123.647C260.679 123.623 260.57 123.564 260.485 123.478C260.4 123.391 260.343 123.282 260.321 123.163C260.298 123.044 260.312 122.921 260.359 122.81C260.407 122.698 260.487 122.604 260.588 122.538C260.69 122.472 260.809 122.438 260.93 122.44C261.01 122.44 261.089 122.456 261.162 122.487C261.235 122.517 261.302 122.562 261.358 122.619C261.414 122.676 261.458 122.743 261.487 122.817C261.517 122.891 261.531 122.97 261.53 123.05Z" fill="white"/>
<path d="M249.26 86.3601C249.262 86.4816 249.228 86.6009 249.161 86.7027C249.095 86.8045 249 86.8843 248.888 86.9317C248.776 86.9791 248.653 86.992 248.533 86.9688C248.414 86.9455 248.305 86.8873 248.219 86.8013C248.133 86.7154 248.074 86.6058 248.051 86.4866C248.028 86.3673 248.041 86.2439 248.088 86.132C248.136 86.0201 248.216 85.925 248.317 85.8587C248.419 85.7925 248.538 85.7581 248.66 85.7601C248.819 85.7601 248.972 85.8233 249.084 85.9358C249.197 86.0483 249.26 86.201 249.26 86.3601Z" fill="white"/>
<path d="M331.06 141.06C331.062 141.181 331.028 141.3 330.962 141.402C330.896 141.503 330.802 141.583 330.69 141.631C330.579 141.678 330.456 141.692 330.337 141.67C330.218 141.647 330.109 141.59 330.022 141.505C329.936 141.42 329.877 141.311 329.853 141.193C329.828 141.074 329.84 140.951 329.886 140.839C329.931 140.727 330.01 140.631 330.11 140.564C330.211 140.496 330.329 140.46 330.45 140.46C330.53 140.459 330.609 140.473 330.683 140.503C330.757 140.532 330.824 140.576 330.881 140.632C330.938 140.688 330.983 140.755 331.013 140.828C331.044 140.902 331.06 140.98 331.06 141.06Z" fill="white"/>
<path d="M357.7 116C357.702 116.121 357.668 116.241 357.601 116.343C357.535 116.444 357.44 116.524 357.328 116.572C357.216 116.619 357.093 116.632 356.974 116.609C356.854 116.585 356.745 116.527 356.659 116.441C356.573 116.355 356.515 116.246 356.491 116.126C356.468 116.007 356.481 115.884 356.528 115.772C356.576 115.66 356.656 115.565 356.757 115.499C356.859 115.432 356.979 115.398 357.1 115.4C357.259 115.4 357.412 115.463 357.524 115.576C357.637 115.688 357.7 115.841 357.7 116Z" fill="white"/>
<path d="M367.44 96.2399C367.438 96.3581 367.401 96.4731 367.334 96.5705C367.267 96.6678 367.173 96.7431 367.063 96.787C366.953 96.8309 366.833 96.8414 366.717 96.8171C366.601 96.7928 366.495 96.7349 366.412 96.6506C366.329 96.5663 366.273 96.4594 366.251 96.3433C366.229 96.2272 366.241 96.1071 366.287 95.998C366.332 95.889 366.409 95.7959 366.508 95.7304C366.606 95.6649 366.722 95.6299 366.84 95.6299C366.92 95.6299 366.998 95.6457 367.072 95.6765C367.145 95.7073 367.212 95.7524 367.268 95.8091C367.324 95.8659 367.368 95.9332 367.397 96.0072C367.427 96.0812 367.441 96.1603 367.44 96.2399Z" fill="white"/>
<path d="M367.1 51.9399C367.1 52.0606 367.064 52.1785 366.997 52.2788C366.93 52.3791 366.835 52.4573 366.723 52.5035C366.612 52.5497 366.489 52.5617 366.371 52.5382C366.253 52.5147 366.144 52.4566 366.059 52.3713C365.973 52.2859 365.915 52.1773 365.892 52.0589C365.868 51.9406 365.88 51.8179 365.926 51.7065C365.973 51.595 366.051 51.4997 366.151 51.4327C366.251 51.3657 366.369 51.3299 366.49 51.3299C366.57 51.3286 366.65 51.3434 366.725 51.3736C366.8 51.4038 366.867 51.4487 366.924 51.5056C366.981 51.5625 367.026 51.6303 367.056 51.7049C367.087 51.7795 367.101 51.8594 367.1 51.9399Z" fill="white"/>
<path d="M334.26 30.23C334.26 30.3506 334.224 30.4685 334.157 30.5689C334.09 30.6692 333.995 30.7474 333.883 30.7935C333.772 30.8397 333.649 30.8518 333.531 30.8282C333.413 30.8047 333.304 30.7466 333.219 30.6613C333.133 30.576 333.075 30.4673 333.052 30.349C333.028 30.2306 333.04 30.108 333.086 29.9965C333.133 29.8851 333.211 29.7898 333.311 29.7228C333.411 29.6557 333.529 29.62 333.65 29.62C333.731 29.6186 333.81 29.6335 333.885 29.6636C333.96 29.6938 334.027 29.7387 334.084 29.7956C334.141 29.8525 334.186 29.9203 334.216 29.9949C334.247 30.0695 334.261 30.1495 334.26 30.23Z" fill="white"/>
<path d="M91.2801 117.66C91.6114 117.66 91.8801 117.391 91.8801 117.06C91.8801 116.729 91.6114 116.46 91.2801 116.46C90.9487 116.46 90.6801 116.729 90.6801 117.06C90.6801 117.391 90.9487 117.66 91.2801 117.66Z" fill="white"/>
<path d="M98.8601 6.78002C98.862 6.90107 98.828 7.01997 98.7621 7.12159C98.6963 7.22322 98.6018 7.30295 98.4905 7.35066C98.3792 7.39837 98.2563 7.41188 98.1373 7.38949C98.0183 7.36709 97.9087 7.3098 97.8224 7.2249C97.7361 7.14 97.677 7.03134 97.6526 6.91275C97.6283 6.79415 97.6397 6.67099 97.6856 6.55895C97.7315 6.4469 97.8096 6.35103 97.9101 6.28355C98.0107 6.21607 98.129 6.18003 98.2501 6.18001C98.3297 6.17869 98.4088 6.19323 98.4827 6.22278C98.5567 6.25234 98.624 6.29633 98.6808 6.35218C98.7376 6.40802 98.7827 6.47462 98.8134 6.54807C98.8442 6.62153 98.8601 6.70037 98.8601 6.78002Z" fill="white"/>
<path d="M318.29 93.77C318.292 93.8915 318.258 94.0108 318.191 94.1126C318.125 94.2144 318.03 94.2942 317.918 94.3416C317.806 94.389 317.683 94.4019 317.563 94.3787C317.444 94.3555 317.335 94.2972 317.249 94.2113C317.163 94.1254 317.105 94.0157 317.081 93.8965C317.058 93.7772 317.071 93.6538 317.118 93.5419C317.166 93.4301 317.246 93.3349 317.347 93.2686C317.449 93.2024 317.569 93.168 317.69 93.17C317.849 93.17 318.002 93.2332 318.114 93.3457C318.227 93.4583 318.29 93.6109 318.29 93.77Z" fill="white"/>
<path d="M320.45 143.67C320.45 143.791 320.414 143.908 320.347 144.009C320.28 144.109 320.185 144.187 320.073 144.233C319.962 144.28 319.839 144.292 319.721 144.268C319.603 144.245 319.494 144.187 319.409 144.101C319.323 144.016 319.265 143.907 319.242 143.789C319.218 143.671 319.23 143.548 319.276 143.436C319.323 143.325 319.401 143.23 319.501 143.163C319.601 143.096 319.719 143.06 319.84 143.06C319.92 143.059 320 143.073 320.075 143.104C320.15 143.134 320.217 143.179 320.274 143.236C320.331 143.292 320.376 143.36 320.406 143.435C320.436 143.509 320.451 143.589 320.45 143.67Z" fill="white"/>
<path d="M294.38 73.3001C294.711 73.3001 294.98 73.0315 294.98 72.7001C294.98 72.3687 294.711 72.1001 294.38 72.1001C294.049 72.1001 293.78 72.3687 293.78 72.7001C293.78 73.0315 294.049 73.3001 294.38 73.3001Z" fill="white"/>
<path d="M220.26 49C220.26 49.1206 220.224 49.2386 220.157 49.3389C220.09 49.4392 219.995 49.5174 219.883 49.5635C219.772 49.6097 219.649 49.6218 219.531 49.5983C219.413 49.5747 219.304 49.5166 219.219 49.4313C219.133 49.346 219.075 49.2373 219.052 49.119C219.028 49.0007 219.04 48.878 219.086 48.7665C219.133 48.6551 219.211 48.5598 219.311 48.4928C219.411 48.4258 219.529 48.39 219.65 48.39C219.731 48.3886 219.81 48.4035 219.885 48.4337C219.96 48.4638 220.027 48.5087 220.084 48.5656C220.141 48.6225 220.186 48.6903 220.216 48.765C220.247 48.8396 220.261 48.9195 220.26 49Z" fill="white"/>
<path d="M253.67 138.27C253.67 138.391 253.634 138.509 253.567 138.609C253.5 138.709 253.405 138.787 253.293 138.834C253.182 138.88 253.059 138.892 252.941 138.868C252.823 138.845 252.714 138.787 252.629 138.701C252.543 138.616 252.485 138.507 252.462 138.389C252.438 138.271 252.45 138.148 252.496 138.037C252.543 137.925 252.621 137.83 252.721 137.763C252.821 137.696 252.939 137.66 253.06 137.66C253.14 137.659 253.22 137.673 253.295 137.704C253.37 137.734 253.437 137.779 253.494 137.836C253.551 137.893 253.596 137.96 253.626 138.035C253.656 138.11 253.671 138.19 253.67 138.27Z" fill="white"/>
<path d="M39.8399 89.9099C39.8399 90.0691 39.7767 90.2217 39.6642 90.3342C39.5517 90.4467 39.3991 90.5099 39.2399 90.5099C39.154 90.521 39.0666 90.5136 38.9837 90.4883C38.9008 90.4629 38.8243 90.4202 38.7592 90.363C38.6941 90.3057 38.6419 90.2353 38.6062 90.1563C38.5705 90.0773 38.552 89.9916 38.552 89.9049C38.552 89.8182 38.5705 89.7325 38.6062 89.6536C38.6419 89.5746 38.6941 89.5041 38.7592 89.4469C38.8243 89.3896 38.9008 89.3469 38.9837 89.3216C39.0666 89.2962 39.154 89.2888 39.2399 89.2999C39.3196 89.2999 39.3984 89.3158 39.4719 89.3465C39.5453 89.3773 39.6119 89.4224 39.6678 89.4792C39.7236 89.536 39.7676 89.6033 39.7972 89.6772C39.8267 89.7512 39.8413 89.8303 39.8399 89.9099Z" fill="white"/>
<path d="M91.1601 132.45C91.4914 132.45 91.7601 132.181 91.7601 131.85C91.7601 131.519 91.4914 131.25 91.1601 131.25C90.8287 131.25 90.5601 131.519 90.5601 131.85C90.5601 132.181 90.8287 132.45 91.1601 132.45Z" fill="white"/>
<path d="M79.4101 17.1301C79.7414 17.1301 80.0101 16.8614 80.0101 16.5301C80.0101 16.1987 79.7414 15.9301 79.4101 15.9301C79.0787 15.9301 78.8101 16.1987 78.8101 16.5301C78.8101 16.8614 79.0787 17.1301 79.4101 17.1301Z" fill="white"/>
<path d="M64.92 68.4699C64.92 68.5906 64.8842 68.7085 64.8172 68.8088C64.7501 68.9092 64.6548 68.9873 64.5434 69.0335C64.4319 69.0797 64.3093 69.0918 64.1909 69.0682C64.0726 69.0447 63.9639 68.9866 63.8786 68.9013C63.7933 68.816 63.7352 68.7073 63.7117 68.589C63.6881 68.4706 63.7002 68.348 63.7464 68.2365C63.7926 68.125 63.8707 68.0298 63.9711 67.9628C64.0714 67.8957 64.1893 67.8599 64.31 67.8599C64.3904 67.8586 64.4704 67.8734 64.545 67.9036C64.6196 67.9338 64.6874 67.9787 64.7443 68.0356C64.8012 68.0925 64.8461 68.1603 64.8763 68.2349C64.9064 68.3095 64.9213 68.3895 64.92 68.4699Z" fill="white"/>
<path d="M132 43.9999C131.998 44.1181 131.961 44.2331 131.894 44.3305C131.827 44.4278 131.733 44.5032 131.623 44.547C131.513 44.5909 131.393 44.6014 131.277 44.5771C131.161 44.5528 131.055 44.4949 130.972 44.4106C130.889 44.3263 130.833 44.2194 130.811 44.1033C130.789 43.9872 130.801 43.8671 130.847 43.758C130.892 43.649 130.969 43.5559 131.068 43.4904C131.166 43.4249 131.282 43.3899 131.4 43.3899C131.48 43.3899 131.558 43.4057 131.632 43.4365C131.705 43.4673 131.772 43.5124 131.828 43.5691C131.884 43.6259 131.928 43.6933 131.957 43.7672C131.987 43.8412 132.001 43.9203 132 43.9999Z" fill="white"/>
<path d="M46.7899 57.5101C47.1213 57.5101 47.3899 57.2414 47.3899 56.9101C47.3899 56.5787 47.1213 56.3101 46.7899 56.3101C46.4586 56.3101 46.1899 56.5787 46.1899 56.9101C46.1899 57.2414 46.4586 57.5101 46.7899 57.5101Z" fill="white"/>
<path d="M371.59 130.66C371.6 131.06 371.49 131.453 371.274 131.79C371.058 132.126 370.746 132.39 370.379 132.548C370.011 132.705 369.605 132.749 369.213 132.673C368.82 132.598 368.459 132.406 368.176 132.124C367.894 131.841 367.702 131.48 367.627 131.088C367.551 130.695 367.595 130.289 367.752 129.921C367.91 129.554 368.174 129.242 368.51 129.026C368.847 128.81 369.24 128.7 369.64 128.71C370.153 128.723 370.642 128.932 371.005 129.295C371.368 129.658 371.577 130.147 371.59 130.66Z" fill="white"/>
<path d="M368.93 68.65C368.932 68.87 368.869 69.0856 368.748 69.2694C368.627 69.4533 368.454 69.5971 368.252 69.6827C368.049 69.7682 367.826 69.7916 367.61 69.7499C367.394 69.7082 367.195 69.6033 367.039 69.4485C366.883 69.2936 366.776 69.0959 366.732 68.8803C366.689 68.6647 366.71 68.441 366.794 68.2376C366.877 68.0342 367.02 67.8602 367.202 67.7378C367.385 67.6154 367.6 67.5501 367.82 67.55C368.113 67.55 368.394 67.6656 368.601 67.8716C368.809 68.0776 368.927 68.3574 368.93 68.65Z" fill="white"/>
<path d="M111.86 77.65C111.875 77.804 111.857 77.9593 111.808 78.106C111.759 78.2527 111.68 78.3876 111.576 78.502C111.472 78.6164 111.345 78.7078 111.204 78.7704C111.063 78.8329 110.91 78.8653 110.755 78.8653C110.6 78.8653 110.447 78.8329 110.306 78.7704C110.165 78.7078 110.038 78.6164 109.934 78.502C109.83 78.3876 109.751 78.2527 109.702 78.106C109.653 77.9593 109.635 77.804 109.65 77.65C109.676 77.3751 109.804 77.1198 110.008 76.934C110.213 76.7482 110.479 76.6453 110.755 76.6453C111.031 76.6453 111.297 76.7482 111.502 76.934C111.706 77.1198 111.834 77.3751 111.86 77.65Z" fill="white"/>
<path d="M34.89 56.91C34.9047 57.064 34.887 57.2193 34.8382 57.366C34.7893 57.5127 34.7103 57.6476 34.6063 57.762C34.5023 57.8764 34.3755 57.9679 34.234 58.0304C34.0926 58.093 33.9397 58.1253 33.785 58.1253C33.6304 58.1253 33.4775 58.093 33.336 58.0304C33.1946 57.9679 33.0678 57.8764 32.9638 57.762C32.8598 57.6476 32.7808 57.5127 32.7319 57.366C32.6831 57.2193 32.6654 57.064 32.68 56.91C32.7062 56.6351 32.834 56.3798 33.0383 56.194C33.2426 56.0082 33.5089 55.9053 33.785 55.9053C34.0612 55.9053 34.3275 56.0082 34.5318 56.194C34.7361 56.3798 34.8639 56.6351 34.89 56.91Z" fill="white"/>
<path d="M344.3 8.29C344.29 8.53288 344.209 8.76752 344.067 8.96476C343.925 9.16199 343.728 9.31312 343.501 9.39935C343.274 9.48558 343.026 9.50312 342.789 9.44977C342.552 9.39643 342.336 9.27456 342.167 9.09932C341.999 8.92407 341.885 8.70318 341.841 8.46411C341.798 8.22504 341.825 7.97832 341.92 7.75464C342.015 7.53096 342.174 7.34017 342.377 7.206C342.579 7.07183 342.817 7.0002 343.06 7C343.227 6.99986 343.393 7.03352 343.546 7.09894C343.7 7.16436 343.839 7.26019 343.955 7.38068C344.071 7.50118 344.161 7.64384 344.22 7.8001C344.28 7.95637 344.307 8.123 344.3 8.29Z" fill="white"/>
<path d="M368.93 34.1C368.932 34.32 368.869 34.5355 368.748 34.7194C368.627 34.9032 368.454 35.0471 368.252 35.1326C368.049 35.2182 367.826 35.2416 367.61 35.1999C367.394 35.1582 367.195 35.0533 367.039 34.8984C366.883 34.7436 366.776 34.5458 366.732 34.3303C366.689 34.1147 366.71 33.891 366.794 33.6876C366.877 33.4842 367.02 33.3102 367.202 33.1878C367.385 33.0654 367.6 33 367.82 33C368.113 33 368.394 33.1156 368.601 33.3216C368.809 33.5276 368.927 33.8073 368.93 34.1Z" fill="white"/>
<path d="M10.74 29.3201C10.74 29.4961 10.6878 29.6682 10.59 29.8145C10.4922 29.9609 10.3532 30.0749 10.1905 30.1423C10.0279 30.2097 9.84897 30.2273 9.67633 30.193C9.50369 30.1586 9.3451 30.0738 9.22064 29.9494C9.09617 29.8249 9.0114 29.6663 8.97706 29.4937C8.94272 29.321 8.96035 29.1421 9.02771 28.9795C9.09507 28.8168 9.20914 28.6778 9.3555 28.58C9.50186 28.4823 9.67394 28.4301 9.84996 28.4301C10.086 28.4301 10.3124 28.5238 10.4793 28.6907C10.6462 28.8576 10.74 29.084 10.74 29.3201Z" fill="white"/>
<path d="M299.8 51.3299C299.8 51.506 299.748 51.678 299.65 51.8244C299.552 51.9708 299.413 52.0848 299.251 52.1522C299.088 52.2196 298.909 52.2372 298.736 52.2028C298.564 52.1685 298.405 52.0837 298.281 51.9593C298.156 51.8348 298.071 51.6762 298.037 51.5036C298.003 51.3309 298.02 51.152 298.088 50.9894C298.155 50.8267 298.269 50.6877 298.416 50.5899C298.562 50.4921 298.734 50.4399 298.91 50.4399C299.146 50.4399 299.372 50.5337 299.539 50.7006C299.706 50.8675 299.8 51.0939 299.8 51.3299Z" fill="white"/>
<path d="M219.05 3.17001C219.542 3.17001 219.94 2.77155 219.94 2.28001C219.94 1.78848 219.542 1.39001 219.05 1.39001C218.559 1.39001 218.16 1.78848 218.16 2.28001C218.16 2.77155 218.559 3.17001 219.05 3.17001Z" fill="white"/>
<path d="M226.8 65.1C226.8 65.276 226.748 65.4481 226.65 65.5944C226.552 65.7408 226.413 65.8549 226.251 65.9222C226.088 65.9896 225.909 66.0072 225.736 65.9729C225.564 65.9385 225.405 65.8538 225.281 65.7293C225.156 65.6048 225.071 65.4462 225.037 65.2736C225.003 65.1009 225.02 64.922 225.088 64.7594C225.155 64.5968 225.269 64.4577 225.416 64.36C225.562 64.2622 225.734 64.21 225.91 64.21C226.027 64.21 226.143 64.233 226.251 64.2777C226.359 64.3224 226.457 64.388 226.539 64.4706C226.622 64.5533 226.688 64.6514 226.732 64.7594C226.777 64.8674 226.8 64.9831 226.8 65.1Z" fill="white"/>
<path d="M318 69.62C318 69.796 317.948 69.9681 317.85 70.1144C317.752 70.2608 317.613 70.3749 317.451 70.4422C317.288 70.5096 317.109 70.5272 316.936 70.4929C316.764 70.4585 316.605 70.3738 316.481 70.2493C316.356 70.1248 316.271 69.9663 316.237 69.7936C316.203 69.621 316.22 69.442 316.288 69.2794C316.355 69.1168 316.469 68.9778 316.616 68.88C316.762 68.7822 316.934 68.73 317.11 68.73C317.346 68.73 317.572 68.8237 317.739 68.9907C317.906 69.1576 318 69.3839 318 69.62Z" fill="white"/>
<path d="M188 2.42002C187.998 2.59561 187.944 2.76668 187.845 2.91172C187.746 3.05676 187.607 3.16928 187.444 3.23511C187.281 3.30094 187.102 3.31714 186.93 3.28168C186.758 3.24622 186.601 3.16068 186.477 3.03582C186.354 2.91096 186.27 2.75237 186.236 2.58C186.203 2.40764 186.221 2.22921 186.289 2.06716C186.356 1.90512 186.47 1.7667 186.617 1.66935C186.763 1.57199 186.934 1.52003 187.11 1.52002C187.228 1.52001 187.344 1.54336 187.453 1.58871C187.562 1.63406 187.66 1.70051 187.743 1.78422C187.826 1.86793 187.891 1.96722 187.935 2.07636C187.979 2.1855 188.001 2.3023 188 2.42002Z" fill="white"/>
<path d="M341.69 114.25C341.69 114.426 341.638 114.598 341.54 114.745C341.442 114.891 341.303 115.005 341.141 115.072C340.978 115.14 340.799 115.157 340.626 115.123C340.454 115.089 340.295 115.004 340.171 114.879C340.046 114.755 339.961 114.596 339.927 114.424C339.893 114.251 339.91 114.072 339.978 113.91C340.045 113.747 340.159 113.608 340.306 113.51C340.452 113.412 340.624 113.36 340.8 113.36C341.036 113.36 341.262 113.454 341.429 113.621C341.596 113.788 341.69 114.014 341.69 114.25Z" fill="white"/>
<path d="M331.55 48.5001C331.55 48.6761 331.498 48.8482 331.4 48.9946C331.302 49.1409 331.163 49.255 331.001 49.3224C330.838 49.3897 330.659 49.4073 330.486 49.373C330.314 49.3387 330.155 49.2539 330.031 49.1294C329.906 49.005 329.821 48.8464 329.787 48.6737C329.753 48.5011 329.77 48.3221 329.838 48.1595C329.905 47.9969 330.019 47.8579 330.166 47.7601C330.312 47.6623 330.484 47.6101 330.66 47.6101C330.896 47.6101 331.122 47.7039 331.289 47.8708C331.456 48.0377 331.55 48.2641 331.55 48.5001Z" fill="white"/>
<path d="M250.86 39.91C250.856 40.0864 250.8 40.2576 250.698 40.4018C250.596 40.5461 250.454 40.6569 250.29 40.7202C250.125 40.7835 249.945 40.7965 249.773 40.7574C249.601 40.7184 249.445 40.629 249.323 40.5008C249.202 40.3726 249.122 40.2113 249.093 40.0373C249.063 39.8633 249.086 39.6846 249.159 39.5237C249.231 39.3629 249.35 39.2272 249.5 39.134C249.65 39.0407 249.824 38.9941 250 39C250.234 39.0078 250.456 39.1078 250.617 39.2782C250.778 39.4486 250.865 39.6756 250.86 39.91Z" fill="white"/>
<path d="M318.58 105.21C318.58 105.386 318.528 105.558 318.43 105.705C318.332 105.851 318.193 105.965 318.031 106.032C317.868 106.1 317.689 106.117 317.516 106.083C317.344 106.049 317.185 105.964 317.061 105.839C316.936 105.715 316.851 105.556 316.817 105.384C316.783 105.211 316.8 105.032 316.868 104.869C316.935 104.707 317.049 104.568 317.196 104.47C317.342 104.372 317.514 104.32 317.69 104.32C317.926 104.32 318.152 104.414 318.319 104.581C318.486 104.748 318.58 104.974 318.58 105.21Z" fill="white"/>
<path d="M356.63 43.7401C356.63 43.9161 356.578 44.0882 356.48 44.2346C356.382 44.3809 356.243 44.495 356.081 44.5624C355.918 44.6297 355.739 44.6473 355.566 44.613C355.394 44.5787 355.235 44.4939 355.111 44.3694C354.986 44.245 354.901 44.0864 354.867 43.9137C354.833 43.7411 354.85 43.5621 354.918 43.3995C354.985 43.2369 355.099 43.0979 355.246 43.0001C355.392 42.9023 355.564 42.8501 355.74 42.8501C355.976 42.8501 356.202 42.9439 356.369 43.1108C356.536 43.2777 356.63 43.5041 356.63 43.7401Z" fill="white"/>
<path d="M333.65 3.17001C334.142 3.17001 334.54 2.77155 334.54 2.28001C334.54 1.78848 334.142 1.39001 333.65 1.39001C333.158 1.39001 332.76 1.78848 332.76 2.28001C332.76 2.77155 333.158 3.17001 333.65 3.17001Z" fill="white"/>
<path d="M49.52 30.8299C49.52 31.006 49.4678 31.178 49.37 31.3244C49.2722 31.4708 49.1332 31.5848 48.9706 31.6522C48.808 31.7196 48.629 31.7372 48.4564 31.7028C48.2837 31.6685 48.1251 31.5837 48.0007 31.4593C47.8762 31.3348 47.7914 31.1762 47.7571 31.0036C47.7228 30.8309 47.7404 30.652 47.8077 30.4894C47.8751 30.3267 47.9892 30.1877 48.1355 30.0899C48.2819 29.9921 48.454 29.9399 48.63 29.9399C48.866 29.9399 49.0924 30.0337 49.2593 30.2006C49.4262 30.3675 49.52 30.5939 49.52 30.8299Z" fill="white"/>
<path d="M300.78 83.2699C300.78 83.4459 300.728 83.618 300.63 83.7643C300.532 83.9107 300.393 84.0248 300.231 84.0921C300.068 84.1595 299.889 84.1771 299.716 84.1428C299.544 84.1084 299.385 84.0237 299.261 83.8992C299.136 83.7747 299.051 83.6162 299.017 83.4435C298.983 83.2709 299 83.0919 299.068 82.9293C299.135 82.7667 299.249 82.6277 299.396 82.5299C299.542 82.4321 299.714 82.3799 299.89 82.3799C300.126 82.3799 300.352 82.4737 300.519 82.6406C300.686 82.8075 300.78 83.0338 300.78 83.2699Z" fill="white"/>
<path d="M345 24.22C345 24.396 344.948 24.5681 344.85 24.7144C344.752 24.8608 344.613 24.9748 344.451 25.0422C344.288 25.1096 344.109 25.1272 343.936 25.0929C343.764 25.0585 343.605 24.9737 343.481 24.8493C343.356 24.7248 343.271 24.5662 343.237 24.3936C343.203 24.2209 343.22 24.042 343.288 23.8794C343.355 23.7167 343.469 23.5777 343.616 23.4799C343.762 23.3822 343.934 23.33 344.11 23.33C344.346 23.33 344.572 23.4237 344.739 23.5906C344.906 23.7575 345 23.9839 345 24.22Z" fill="white"/>
<path d="M373.81 76.1C373.81 76.276 373.758 76.4481 373.66 76.5944C373.562 76.7408 373.423 76.8549 373.261 76.9222C373.098 76.9896 372.919 77.0072 372.746 76.9729C372.574 76.9385 372.415 76.8538 372.291 76.7293C372.166 76.6048 372.081 76.4462 372.047 76.2736C372.013 76.1009 372.03 75.922 372.098 75.7594C372.165 75.5968 372.279 75.4577 372.426 75.36C372.572 75.2622 372.744 75.21 372.92 75.21C373.156 75.21 373.382 75.3037 373.549 75.4706C373.716 75.6375 373.81 75.8639 373.81 76.1Z" fill="white"/>
<path d="M292.28 137.38C292.28 137.556 292.228 137.728 292.13 137.874C292.032 138.021 291.893 138.135 291.731 138.202C291.568 138.27 291.389 138.287 291.216 138.253C291.044 138.219 290.885 138.134 290.761 138.009C290.636 137.885 290.551 137.726 290.517 137.554C290.483 137.381 290.5 137.202 290.568 137.039C290.635 136.877 290.749 136.738 290.896 136.64C291.042 136.542 291.214 136.49 291.39 136.49C291.626 136.49 291.852 136.584 292.019 136.751C292.186 136.918 292.28 137.144 292.28 137.38Z" fill="white"/>
<path d="M163 0.89C163 1.06603 162.948 1.2381 162.85 1.38446C162.752 1.53082 162.613 1.64489 162.451 1.71225C162.288 1.77961 162.109 1.79724 161.936 1.7629C161.764 1.72856 161.605 1.64379 161.481 1.51933C161.356 1.39486 161.271 1.23627 161.237 1.06363C161.203 0.890987 161.22 0.712038 161.288 0.549412C161.355 0.386786 161.469 0.247787 161.616 0.149992C161.762 0.0521976 161.934 0 162.11 0C162.346 0 162.572 0.0937676 162.739 0.260675C162.906 0.427582 163 0.653957 163 0.89Z" fill="white"/>
<path d="M235 55.92C235 56.0961 234.948 56.2681 234.85 56.4145C234.752 56.5608 234.613 56.6749 234.451 56.7423C234.288 56.8096 234.109 56.8273 233.936 56.7929C233.764 56.7586 233.605 56.6738 233.481 56.5494C233.356 56.4249 233.271 56.2663 233.237 56.0937C233.203 55.921 233.22 55.7421 233.288 55.5794C233.355 55.4168 233.469 55.2778 233.616 55.18C233.762 55.0822 233.934 55.03 234.11 55.03C234.346 55.03 234.572 55.1238 234.739 55.2907C234.906 55.4576 235 55.684 235 55.92Z" fill="white"/>
<path d="M257.07 29.74C257.07 29.916 257.018 30.0881 256.92 30.2344C256.822 30.3808 256.683 30.4949 256.521 30.5622C256.358 30.6296 256.179 30.6472 256.006 30.6129C255.834 30.5785 255.675 30.4938 255.551 30.3693C255.426 30.2448 255.341 30.0862 255.307 29.9136C255.273 29.741 255.29 29.562 255.358 29.3994C255.425 29.2368 255.539 29.0978 255.686 29C255.832 28.9022 256.004 28.85 256.18 28.85C256.416 28.85 256.642 28.9437 256.809 29.1107C256.976 29.2776 257.07 29.5039 257.07 29.74Z" fill="white"/>
<path d="M134.01 75.9499C134.502 75.9499 134.9 75.5515 134.9 75.0599C134.9 74.5684 134.502 74.1699 134.01 74.1699C133.518 74.1699 133.12 74.5684 133.12 75.0599C133.12 75.5515 133.518 75.9499 134.01 75.9499Z" fill="white"/>
<path d="M125.94 135.88C126.432 135.88 126.83 135.482 126.83 134.99C126.83 134.499 126.432 134.1 125.94 134.1C125.449 134.1 125.05 134.499 125.05 134.99C125.05 135.482 125.449 135.88 125.94 135.88Z" fill="white"/>
<path d="M265.8 99.2601C265.8 99.4361 265.748 99.6082 265.65 99.7546C265.552 99.9009 265.413 100.015 265.251 100.082C265.088 100.15 264.909 100.167 264.736 100.133C264.564 100.099 264.405 100.014 264.281 99.8894C264.156 99.765 264.071 99.6064 264.037 99.4337C264.003 99.2611 264.02 99.0822 264.088 98.9195C264.155 98.7569 264.269 98.6179 264.416 98.5201C264.562 98.4223 264.734 98.3701 264.91 98.3701C265.146 98.3701 265.372 98.4639 265.539 98.6308C265.706 98.7977 265.8 99.0241 265.8 99.2601Z" fill="white"/>
<path d="M255.11 111.35C255.11 111.526 255.058 111.698 254.96 111.844C254.862 111.991 254.723 112.105 254.561 112.172C254.398 112.24 254.219 112.257 254.046 112.223C253.874 112.189 253.715 112.104 253.591 111.979C253.466 111.855 253.381 111.696 253.347 111.524C253.313 111.351 253.33 111.172 253.398 111.009C253.465 110.847 253.579 110.708 253.725 110.61C253.872 110.512 254.044 110.46 254.22 110.46C254.456 110.46 254.682 110.554 254.849 110.721C255.016 110.888 255.11 111.114 255.11 111.35Z" fill="white"/>
<path d="M250.44 71.19C250.44 71.3661 250.388 71.5381 250.29 71.6845C250.192 71.8309 250.053 71.9449 249.891 72.0123C249.728 72.0797 249.549 72.0973 249.376 72.0629C249.204 72.0286 249.045 71.9438 248.921 71.8194C248.796 71.6949 248.711 71.5363 248.677 71.3637C248.643 71.191 248.66 71.0121 248.728 70.8495C248.795 70.6868 248.909 70.5478 249.056 70.45C249.202 70.3522 249.374 70.3 249.55 70.3C249.786 70.3 250.012 70.3938 250.179 70.5607C250.346 70.7276 250.44 70.954 250.44 71.19Z" fill="white"/>
<path d="M152.42 167.57C152.42 167.746 152.368 167.918 152.27 168.064C152.172 168.211 152.033 168.325 151.871 168.392C151.708 168.46 151.529 168.477 151.356 168.443C151.184 168.408 151.025 168.324 150.901 168.199C150.776 168.075 150.691 167.916 150.657 167.744C150.623 167.571 150.64 167.392 150.708 167.229C150.775 167.067 150.889 166.928 151.036 166.83C151.182 166.732 151.354 166.68 151.53 166.68C151.766 166.68 151.992 166.774 152.159 166.941C152.326 167.108 152.42 167.334 152.42 167.57Z" fill="white"/>
<path d="M45.11 72.9699C45.6015 72.9699 46 72.5715 46 72.0799C46 71.5884 45.6015 71.1899 45.11 71.1899C44.6184 71.1899 44.22 71.5884 44.22 72.0799C44.22 72.5715 44.6184 72.9699 45.11 72.9699Z" fill="white"/>
<path d="M132.26 57.6999C132.752 57.6999 133.15 57.3015 133.15 56.8099C133.15 56.3184 132.752 55.9199 132.26 55.9199C131.768 55.9199 131.37 56.3184 131.37 56.8099C131.37 57.3015 131.768 57.6999 132.26 57.6999Z" fill="white"/>
<path d="M81.94 91.62C81.94 91.796 81.8878 91.9681 81.79 92.1144C81.6922 92.2608 81.5532 92.3749 81.3906 92.4422C81.228 92.5096 81.0491 92.5272 80.8764 92.4929C80.7038 92.4585 80.5452 92.3738 80.4207 92.2493C80.2962 92.1248 80.2115 91.9663 80.1771 91.7936C80.1428 91.621 80.1604 91.442 80.2278 91.2794C80.2951 91.1168 80.4092 90.9778 80.5556 90.88C80.7019 90.7822 80.874 90.73 81.05 90.73C81.2861 90.73 81.5124 90.8237 81.6794 90.9907C81.8463 91.1576 81.94 91.3839 81.94 91.62Z" fill="white"/>
<path d="M2.17 47.6701C3.36846 47.6701 4.34 46.6985 4.34 45.5001C4.34 44.3016 3.36846 43.3301 2.17 43.3301C0.971542 43.3301 0 44.3016 0 45.5001C0 46.6985 0.971542 47.6701 2.17 47.6701Z" fill="white"/>
<path d="M130.22 8.11004C130.212 8.32021 130.143 8.52339 130.02 8.69421C129.897 8.86503 129.727 8.9959 129.53 9.07048C129.334 9.14505 129.119 9.16002 128.914 9.11351C128.709 9.067 128.522 8.96108 128.377 8.80898C128.232 8.65687 128.135 8.46534 128.098 8.25831C128.06 8.05128 128.085 7.83793 128.169 7.64492C128.252 7.45191 128.391 7.28781 128.567 7.17312C128.744 7.05842 128.95 6.99822 129.16 7.00004C129.303 7.00128 129.445 7.03121 129.576 7.08806C129.707 7.14491 129.826 7.22753 129.925 7.33103C130.023 7.43452 130.101 7.55679 130.151 7.6906C130.202 7.82441 130.225 7.96703 130.22 8.11004Z" fill="white"/>
<path d="M78.66 48.5001C78.66 48.7295 78.5919 48.9538 78.4645 49.1446C78.337 49.3353 78.1558 49.484 77.9439 49.5718C77.7319 49.6596 77.4987 49.6826 77.2737 49.6378C77.0486 49.593 76.842 49.4826 76.6797 49.3203C76.5175 49.1581 76.407 48.9514 76.3623 48.7264C76.3175 48.5014 76.3405 48.2681 76.4283 48.0562C76.5161 47.8442 76.6647 47.663 76.8555 47.5356C77.0463 47.4081 77.2705 47.3401 77.5 47.3401C77.8076 47.3401 78.1027 47.4623 78.3202 47.6798C78.5378 47.8974 78.66 48.1924 78.66 48.5001Z" fill="white"/>
<path d="M9.07999 131.66C9.08984 131.862 9.0384 132.062 8.93243 132.233C8.82646 132.405 8.67093 132.541 8.4863 132.623C8.30167 132.705 8.0966 132.729 7.89807 132.692C7.69955 132.655 7.51686 132.559 7.37407 132.416C7.23128 132.273 7.13506 132.09 7.09808 131.892C7.06111 131.693 7.0851 131.488 7.16691 131.304C7.24873 131.119 7.38452 130.963 7.55642 130.857C7.72833 130.752 7.92828 130.7 8.12999 130.71C8.37803 130.722 8.61268 130.826 8.78828 131.002C8.96388 131.177 9.06786 131.412 9.07999 131.66Z" fill="white"/>
<path d="M37.66 132.81C37.6598 133.01 37.5997 133.205 37.4874 133.37C37.3751 133.536 37.2159 133.664 37.0303 133.738C36.8446 133.812 36.641 133.828 36.4458 133.786C36.2506 133.743 36.0727 133.642 35.935 133.498C35.7974 133.353 35.7063 133.17 35.6736 132.973C35.6408 132.776 35.6679 132.573 35.7513 132.391C35.8347 132.21 35.9706 132.057 36.1415 131.954C36.3124 131.85 36.5104 131.8 36.71 131.81C36.9665 131.823 37.2082 131.934 37.385 132.12C37.5619 132.306 37.6604 132.553 37.66 132.81Z" fill="white"/>
<path d="M15.32 43.0001C15.3198 43.1858 15.2651 43.3673 15.1628 43.5223C15.0604 43.6772 14.9149 43.7988 14.7442 43.8719C14.5735 43.9451 14.3851 43.9666 14.2023 43.9338C14.0195 43.901 13.8504 43.8154 13.7157 43.6875C13.5811 43.5596 13.4869 43.395 13.4448 43.2141C13.4027 43.0333 13.4145 42.844 13.4788 42.6698C13.5431 42.4956 13.6571 42.344 13.8066 42.2339C13.9561 42.1237 14.1346 42.0598 14.32 42.05C14.5768 42.0497 14.8239 42.1482 15.01 42.3251C15.1962 42.5019 15.3072 42.7436 15.32 43.0001Z" fill="white"/>
<path d="M33.89 46.0799C33.9 46.2795 33.8499 46.4775 33.7463 46.6484C33.6427 46.8193 33.4902 46.9552 33.3086 47.0386C33.127 47.122 32.9245 47.1491 32.7274 47.1164C32.5302 47.0836 32.3474 46.9925 32.2025 46.8549C32.0576 46.7172 31.9573 46.5393 31.9144 46.3441C31.8716 46.1489 31.8883 45.9453 31.9623 45.7597C32.0363 45.574 32.1642 45.4148 32.3296 45.3025C32.4949 45.1903 32.6901 45.1301 32.89 45.1299C33.1468 45.1296 33.3938 45.228 33.58 45.4049C33.7661 45.5817 33.8771 45.8234 33.89 46.0799Z" fill="white"/>
<path d="M83.6 80.27C83.5902 80.4555 83.5263 80.634 83.4161 80.7835C83.306 80.933 83.1544 81.047 82.9802 81.1113C82.806 81.1756 82.6168 81.1874 82.4359 81.1453C82.255 81.1032 82.0905 81.009 81.9625 80.8743C81.8346 80.7397 81.749 80.5705 81.7162 80.3877C81.6834 80.2049 81.7049 80.0166 81.7781 79.8459C81.8512 79.6752 81.9728 79.5297 82.1278 79.4273C82.2827 79.325 82.4643 79.2703 82.65 79.27C82.7791 79.2698 82.9068 79.296 83.0255 79.3468C83.1441 79.3976 83.2511 79.4721 83.34 79.5657C83.4289 79.6593 83.4978 79.77 83.5425 79.8911C83.5872 80.0122 83.6068 80.1411 83.6 80.27Z" fill="white"/>
<path d="M206.09 4.38C206.09 4.57779 206.031 4.77113 205.921 4.93558C205.812 5.10002 205.655 5.2282 205.473 5.30388C205.29 5.37957 205.089 5.39938 204.895 5.36079C204.701 5.32221 204.523 5.22696 204.383 5.08711C204.243 4.94726 204.148 4.76908 204.109 4.5751C204.071 4.38111 204.09 4.18005 204.166 3.99732C204.242 3.8146 204.37 3.65842 204.534 3.54854C204.699 3.43865 204.892 3.38 205.09 3.38C205.355 3.38 205.61 3.48536 205.797 3.6729C205.985 3.86043 206.09 4.11479 206.09 4.38Z" fill="white"/>
<path d="M112.81 136.42C112.82 136.62 112.77 136.818 112.666 136.988C112.563 137.159 112.41 137.295 112.229 137.379C112.047 137.462 111.845 137.489 111.647 137.456C111.45 137.424 111.267 137.333 111.123 137.195C110.978 137.057 110.877 136.879 110.834 136.684C110.792 136.489 110.808 136.285 110.882 136.1C110.956 135.914 111.084 135.755 111.25 135.643C111.415 135.53 111.61 135.47 111.81 135.47C112.067 135.47 112.314 135.568 112.5 135.745C112.686 135.922 112.797 136.164 112.81 136.42Z" fill="white"/>
<path d="M108.71 150.15C109.235 150.15 109.66 149.725 109.66 149.2C109.66 148.675 109.235 148.25 108.71 148.25C108.185 148.25 107.76 148.675 107.76 149.2C107.76 149.725 108.185 150.15 108.71 150.15Z" fill="white"/>
<path d="M319.06 50.4C319.056 50.6725 318.972 50.9377 318.817 51.1622C318.663 51.3867 318.445 51.5605 318.192 51.6615C317.939 51.7626 317.662 51.7865 317.395 51.7302C317.128 51.6739 316.884 51.5399 316.694 51.3452C316.503 51.1504 316.375 50.9036 316.324 50.6358C316.274 50.368 316.303 50.0913 316.41 49.8405C316.517 49.5896 316.695 49.376 316.923 49.2264C317.151 49.0769 317.418 48.9981 317.69 49C317.872 49 318.053 49.0364 318.221 49.1071C318.39 49.1778 318.542 49.2814 318.67 49.4118C318.797 49.5423 318.897 49.6968 318.964 49.8665C319.032 50.0362 319.064 50.2176 319.06 50.4Z" fill="white"/>
<path d="M317.57 126.27C317.57 126.543 317.489 126.81 317.337 127.037C317.186 127.264 316.97 127.44 316.718 127.545C316.466 127.649 316.189 127.677 315.921 127.623C315.653 127.57 315.407 127.439 315.214 127.246C315.021 127.053 314.89 126.807 314.837 126.539C314.783 126.271 314.811 125.994 314.915 125.742C315.02 125.49 315.196 125.274 315.423 125.122C315.65 124.971 315.917 124.89 316.19 124.89C316.556 124.89 316.907 125.035 317.166 125.294C317.425 125.553 317.57 125.904 317.57 126.27Z" fill="white"/>
<path d="M223.46 170.71C223.46 170.983 223.379 171.25 223.227 171.477C223.076 171.704 222.86 171.881 222.608 171.985C222.356 172.09 222.078 172.117 221.811 172.064C221.543 172.01 221.297 171.879 221.104 171.686C220.911 171.493 220.78 171.247 220.726 170.979C220.673 170.712 220.701 170.434 220.805 170.182C220.909 169.93 221.086 169.714 221.313 169.563C221.54 169.411 221.807 169.33 222.08 169.33C222.262 169.329 222.442 169.364 222.61 169.432C222.778 169.501 222.93 169.603 223.059 169.731C223.187 169.86 223.289 170.012 223.358 170.18C223.426 170.348 223.461 170.529 223.46 170.71Z" fill="white"/>
<path d="M273.87 108.51C273.872 108.783 273.793 109.051 273.642 109.279C273.492 109.508 273.277 109.686 273.025 109.792C272.773 109.898 272.495 109.927 272.227 109.875C271.959 109.822 271.712 109.692 271.518 109.499C271.324 109.307 271.191 109.061 271.137 108.793C271.083 108.525 271.11 108.247 271.214 107.994C271.318 107.741 271.495 107.525 271.722 107.373C271.95 107.221 272.217 107.14 272.49 107.14C272.854 107.14 273.204 107.284 273.462 107.541C273.721 107.797 273.867 108.146 273.87 108.51Z" fill="white"/>
<path d="M265.18 62.2901C265.151 62.6345 264.993 62.9554 264.738 63.1892C264.484 63.423 264.151 63.5527 263.805 63.5527C263.459 63.5527 263.126 63.423 262.872 63.1892C262.617 62.9554 262.459 62.6345 262.43 62.2901C262.414 62.0997 262.437 61.9079 262.499 61.7271C262.561 61.5462 262.659 61.3801 262.789 61.2393C262.918 61.0986 263.075 60.9862 263.25 60.9093C263.425 60.8324 263.614 60.7927 263.805 60.7927C263.996 60.7927 264.185 60.8324 264.36 60.9093C264.535 60.9862 264.692 61.0986 264.821 61.2393C264.951 61.3801 265.049 61.5462 265.111 61.7271C265.173 61.9079 265.196 62.0997 265.18 62.2901Z" fill="white"/>
<path d="M249.43 144.27C249.43 144.543 249.349 144.81 249.197 145.037C249.046 145.264 248.83 145.44 248.578 145.545C248.326 145.649 248.049 145.677 247.781 145.623C247.513 145.57 247.267 145.439 247.074 145.246C246.881 145.053 246.75 144.807 246.697 144.539C246.643 144.271 246.671 143.994 246.775 143.742C246.88 143.49 247.056 143.274 247.283 143.122C247.51 142.971 247.777 142.89 248.05 142.89C248.416 142.89 248.767 143.035 249.026 143.294C249.285 143.553 249.43 143.904 249.43 144.27Z" fill="white"/>
<path d="M36.1199 30.47C36.1199 30.6987 36.0516 30.9222 35.9239 31.1119C35.7961 31.3016 35.6147 31.4489 35.4028 31.535C35.1909 31.6211 34.9582 31.642 34.7343 31.5952C34.5105 31.5483 34.3057 31.4358 34.1461 31.2719C33.9865 31.1081 33.8794 30.9004 33.8385 30.6754C33.7976 30.4504 33.8247 30.2182 33.9163 30.0087C34.008 29.7992 34.1601 29.6217 34.3531 29.499C34.5461 29.3763 34.7713 29.314 34.9999 29.32C35.2997 29.3278 35.5846 29.4524 35.7938 29.6672C36.003 29.8821 36.12 30.1701 36.1199 30.47Z" fill="white"/>
<path d="M120.36 32.27C120.36 32.4974 120.293 32.7198 120.166 32.9089C120.04 33.098 119.86 33.2454 119.65 33.3325C119.44 33.4195 119.209 33.4423 118.986 33.3979C118.763 33.3535 118.558 33.244 118.397 33.0832C118.236 32.9223 118.127 32.7174 118.082 32.4943C118.038 32.2713 118.061 32.04 118.148 31.8299C118.235 31.6198 118.382 31.4402 118.571 31.3138C118.76 31.1874 118.983 31.12 119.21 31.12C119.515 31.12 119.808 31.2412 120.023 31.4568C120.239 31.6725 120.36 31.965 120.36 32.27Z" fill="white"/>
<path d="M86.2101 25.21C86.8452 25.21 87.3601 24.6952 87.3601 24.06C87.3601 23.4249 86.8452 22.91 86.2101 22.91C85.5749 22.91 85.0601 23.4249 85.0601 24.06C85.0601 24.6952 85.5749 25.21 86.2101 25.21Z" fill="white"/>
<path d="M23.46 111.35C23.46 111.577 23.3926 111.8 23.2662 111.989C23.1399 112.178 22.9603 112.325 22.7501 112.412C22.54 112.499 22.3088 112.522 22.0857 112.478C21.8626 112.433 21.6577 112.324 21.4969 112.163C21.336 112.002 21.2265 111.797 21.1821 111.574C21.1378 111.351 21.1605 111.12 21.2476 110.91C21.3346 110.7 21.482 110.52 21.6711 110.394C21.8602 110.267 22.0826 110.2 22.31 110.2C22.615 110.2 22.9075 110.321 23.1232 110.537C23.3389 110.752 23.46 111.045 23.46 111.35Z" fill="white"/>
<path d="M7.17997 12.17C7.92003 12.17 8.51997 11.5701 8.51997 10.83C8.51997 10.0899 7.92003 9.48999 7.17997 9.48999C6.4399 9.48999 5.83997 10.0899 5.83997 10.83C5.83997 11.5701 6.4399 12.17 7.17997 12.17Z" fill="white"/>
<path d="M252.24 51.94C253.195 51.94 253.97 51.1654 253.97 50.21C253.97 49.2545 253.195 48.48 252.24 48.48C251.285 48.48 250.51 49.2545 250.51 50.21C250.51 51.1654 251.285 51.94 252.24 51.94Z" fill="white"/>
<path d="M235.62 3.79003C235.62 4.01353 235.554 4.232 235.43 4.41783C235.305 4.60366 235.129 4.74849 234.922 4.83402C234.716 4.91954 234.489 4.94192 234.27 4.89832C234.05 4.85472 233.849 4.7471 233.691 4.58906C233.533 4.43103 233.425 4.22968 233.382 4.01049C233.338 3.79129 233.36 3.56408 233.446 3.3576C233.532 3.15112 233.676 2.97464 233.862 2.85047C234.048 2.72631 234.266 2.66003 234.49 2.66003C234.79 2.66003 235.077 2.77909 235.289 2.991C235.501 3.20292 235.62 3.49034 235.62 3.79003Z" fill="white"/>
<path d="M346.67 39.3601C346.67 39.7185 346.564 40.0688 346.364 40.3667C346.165 40.6646 345.882 40.8965 345.55 41.0332C345.219 41.1699 344.855 41.2052 344.503 41.1345C344.152 41.0639 343.829 40.8905 343.577 40.6364C343.324 40.3822 343.152 40.0588 343.084 39.707C343.015 39.3553 343.052 38.991 343.191 38.6605C343.329 38.3299 343.563 38.0479 343.862 37.8502C344.161 37.6526 344.512 37.5481 344.87 37.5501C345.348 37.5527 345.806 37.7446 346.143 38.0837C346.481 38.4229 346.67 38.8818 346.67 39.3601Z" fill="white"/>
<path d="M145.53 57.91L144.08 57.77L143.15 58.89L142.83 57.47L141.47 56.93L142.73 56.18L142.82 54.73L143.92 55.69L145.34 55.33L144.76 56.67L145.53 57.91Z" fill="#FF5480"/>
<path d="M117.8 86.6599L118.39 88.8599L120.53 89.6199L118.62 90.8599L118.56 93.1299L116.79 91.6999L114.61 92.3399L115.42 90.2199L114.14 88.3399L116.41 88.4599L117.8 86.6599Z" fill="#FF5480"/>
<path d="M66.3599 28L64.2499 28.71L63.6299 30.85L62.2999 29.05L60.0699 29.13L61.3699 27.31L60.6099 25.21L62.7399 25.89L64.4999 24.52L64.5199 26.75L66.3599 28Z" fill="#FF5480"/>
<path d="M300.34 27.1899L300.81 28.1399L301.86 28.2899L301.1 29.0299L301.27 30.0699L300.34 29.5799L299.4 30.0699L299.58 29.0299L298.82 28.2899L299.87 28.1399L300.34 27.1899Z" fill="#FF5480"/>
<path d="M269.8 37.2L267.96 36.53L266.36 37.67L266.43 35.7L264.86 34.54L266.74 34L267.37 32.14L268.46 33.77L270.43 33.78L269.22 35.33L269.8 37.2Z" fill="#FF5480"/>
<path d="M349.1 45.8999L350.11 47.9599L352.38 48.2899L350.74 49.8899L351.13 52.1499L349.1 51.0899L347.07 52.1499L347.45 49.8899L345.81 48.2899L348.08 47.9599L349.1 45.8999Z" fill="#FF5480"/>
<path d="M310.3 74.7601L308.61 74.3901L307.34 75.5801L307.17 73.8601L305.65 73.0201L307.23 72.3201L307.56 70.6201L308.71 71.9101L310.43 71.6901L309.56 73.1901L310.3 74.7601Z" fill="#FF5480"/>
<path d="M309.08 132.7L309.98 134.53L311.99 134.82L310.54 136.24L310.88 138.24L309.08 137.29L307.28 138.24L307.63 136.24L306.17 134.82L308.18 134.53L309.08 132.7Z" fill="#FF5480"/>
<path d="M373.72 142.43L372.16 142.18L371.07 143.32L370.83 141.76L369.41 141.07L370.82 140.36L371.03 138.8L372.14 139.92L373.69 139.64L372.97 141.04L373.72 142.43Z" fill="#FF5480"/>
<path d="M270.66 121.47L270.85 122.98L272.21 123.68L270.83 124.33L270.58 125.84L269.54 124.73L268.03 124.96L268.76 123.62L268.08 122.26L269.57 122.54L270.66 121.47Z" fill="#FF5480"/>
<path d="M118.24 126.33H115.7L114.25 128.43L113.47 126L111.03 125.28L113.09 123.78L113.03 121.24L115.09 122.74L117.49 121.89L116.7 124.31L118.24 126.33Z" fill="#FF5480"/>
<path d="M30.26 129.89L30.74 130.86L31.8099 131.02L31.04 131.77L31.2199 132.84L30.26 132.34L29.2999 132.84L29.4799 131.77L28.7 131.02L29.78 130.86L30.26 129.89Z" fill="#FF5480"/>
<path d="M146.56 31.9401L145.7 31.8601L145.14 32.5201L144.95 31.68L144.15 31.3601L144.9 30.92L144.95 30.05L145.6 30.6201L146.44 30.41L146.1 31.21L146.56 31.9401Z" fill="#FF5480"/>
<path d="M354.46 122.04L354.98 123.1L356.15 123.27L355.31 124.1L355.51 125.26L354.46 124.71L353.41 125.26L353.61 124.1L352.77 123.27L353.94 123.1L354.46 122.04Z" fill="#FF5480"/>
<path d="M53.37 95.29L51.81 94.46L50.24 95.28L50.55 93.53L49.29 92.29L51.04 92.05L51.83 90.47L52.61 92.06L54.35 92.32L53.08 93.55L53.37 95.29Z" fill="#FF5480"/>
</svg>
