<svg width="356" height="45" viewBox="0 0 356 45" fill="none" xmlns="http://www.w3.org/2000/svg">
<g clip-path="url(#clip0_614_5704)">
<path d="M79.68 4.99005C79.68 5.3243 79.5809 5.65104 79.3952 5.92896C79.2095 6.20688 78.9456 6.42349 78.6368 6.5514C78.328 6.67932 77.9882 6.71278 77.6603 6.64758C77.3325 6.58237 77.0314 6.42141 76.795 6.18506C76.5587 5.94871 76.3977 5.64758 76.3325 5.31975C76.2673 4.99192 76.3008 4.65212 76.4287 4.34331C76.5566 4.03451 76.7732 3.77056 77.0511 3.58487C77.3291 3.39917 77.6558 3.30005 77.99 3.30005C78.4383 3.30005 78.8681 3.4781 79.1851 3.79504C79.502 4.11197 79.68 4.54183 79.68 4.99005Z" fill="white"/>
<path d="M103.46 21.11C103.46 21.5214 103.338 21.9236 103.11 22.2656C102.881 22.6077 102.556 22.8743 102.176 23.0317C101.796 23.1891 101.378 23.2303 100.974 23.1501C100.571 23.0698 100.2 22.8717 99.9093 22.5808C99.6184 22.2899 99.4203 21.9193 99.34 21.5158C99.2598 21.1123 99.3009 20.6941 99.4584 20.314C99.6158 19.934 99.8824 19.6091 100.224 19.3806C100.567 19.152 100.969 19.03 101.38 19.03C101.932 19.03 102.461 19.2492 102.851 19.6392C103.241 20.0293 103.46 20.5584 103.46 21.11Z" fill="white"/>
<path d="M250 11.8801C250 12.2464 249.891 12.6044 249.688 12.9089C249.484 13.2133 249.194 13.4504 248.856 13.5902C248.517 13.7299 248.145 13.7659 247.785 13.6937C247.426 13.6215 247.097 13.4444 246.838 13.1846C246.58 12.9249 246.405 12.5943 246.334 12.2348C246.264 11.8753 246.302 11.503 246.444 11.1651C246.585 10.8273 246.824 10.539 247.13 10.337C247.435 10.1349 247.794 10.0281 248.16 10.0301C248.403 10.0301 248.643 10.078 248.867 10.1711C249.09 10.2642 249.294 10.4006 249.465 10.5725C249.636 10.7444 249.771 10.9485 249.863 11.1728C249.955 11.3972 250.001 11.6376 250 11.8801Z" fill="white"/>
<path d="M355.61 9.70995C355.612 9.89826 355.558 10.0829 355.455 10.2404C355.352 10.398 355.204 10.5213 355.031 10.5947C354.857 10.6682 354.666 10.6884 354.481 10.6529C354.296 10.6174 354.126 10.5277 353.992 10.3952C353.858 10.2628 353.767 10.0935 353.729 9.90899C353.692 9.72444 353.71 9.53292 353.781 9.35875C353.853 9.18458 353.975 9.03561 354.131 8.93077C354.288 8.82594 354.472 8.76996 354.66 8.76995C354.784 8.76863 354.908 8.79197 355.023 8.83861C355.138 8.88526 355.243 8.95429 355.331 9.04171C355.42 9.12913 355.49 9.2332 355.538 9.3479C355.585 9.46261 355.61 9.58566 355.61 9.70995Z" fill="white"/>
<path d="M91.1699 7.34C91.1621 7.4538 91.1215 7.56289 91.053 7.65407C90.9845 7.74525 90.891 7.81462 90.7839 7.85377C90.6767 7.89292 90.5605 7.90018 90.4494 7.87467C90.3382 7.84916 90.2368 7.79197 90.1575 7.71003C90.0781 7.62808 90.0242 7.5249 90.0023 7.41296C89.9804 7.30103 89.9914 7.18514 90.034 7.07933C90.0766 6.97352 90.1489 6.88232 90.2423 6.81677C90.3356 6.75122 90.446 6.71414 90.5599 6.71C90.643 6.70538 90.7261 6.71867 90.8035 6.74898C90.881 6.77929 90.951 6.8259 91.0089 6.88565C91.0667 6.94541 91.1111 7.01691 91.1388 7.0953C91.1666 7.17369 91.1772 7.25715 91.1699 7.34Z" fill="white"/>
<path d="M72.11 17.4901C72.4359 17.4901 72.7 17.2259 72.7 16.9001C72.7 16.5742 72.4359 16.3101 72.11 16.3101C71.7842 16.3101 71.52 16.5742 71.52 16.9001C71.52 17.2259 71.7842 17.4901 72.11 17.4901Z" fill="white"/>
<path d="M123.63 43.85C123.63 43.9667 123.595 44.0807 123.531 44.1778C123.466 44.2748 123.374 44.3504 123.266 44.3951C123.158 44.4397 123.039 44.4514 122.925 44.4286C122.81 44.4059 122.705 44.3497 122.623 44.2672C122.54 44.1847 122.484 44.0795 122.461 43.9651C122.439 43.8506 122.45 43.732 122.495 43.6242C122.54 43.5164 122.615 43.4242 122.712 43.3594C122.809 43.2946 122.923 43.26 123.04 43.26C123.118 43.2586 123.195 43.273 123.267 43.3021C123.34 43.3313 123.405 43.3747 123.46 43.4298C123.515 43.4848 123.559 43.5504 123.588 43.6226C123.617 43.6948 123.631 43.7721 123.63 43.85Z" fill="white"/>
<path d="M271.75 0.819978C271.75 1.06253 271.678 1.29956 271.542 1.50079C271.407 1.70201 271.214 1.8583 270.99 1.9497C270.765 2.04109 270.518 2.06343 270.281 2.01387C270.043 1.96432 269.826 1.84511 269.657 1.67147C269.487 1.49784 269.374 1.27766 269.33 1.03906C269.286 0.800466 269.315 0.554277 269.412 0.331943C269.509 0.109608 269.67 -0.0787799 269.874 -0.209158C270.079 -0.339536 270.318 -0.405986 270.56 -0.400022C270.878 -0.392191 271.181 -0.260207 271.403 -0.0322562C271.626 0.195695 271.75 0.501545 271.75 0.819978Z" fill="white"/>
<path d="M355.88 34.12C355.878 34.3332 355.813 34.541 355.693 34.7173C355.573 34.8936 355.404 35.0304 355.206 35.1107C355.009 35.1909 354.792 35.2108 354.583 35.168C354.374 35.1253 354.183 35.0216 354.033 34.8702C353.883 34.7187 353.781 34.5263 353.74 34.3171C353.699 34.1079 353.721 33.8912 353.803 33.6945C353.885 33.4977 354.024 33.3296 354.201 33.2114C354.378 33.0931 354.587 33.03 354.8 33.03C354.943 33.03 355.084 33.0583 355.216 33.1132C355.347 33.1681 355.467 33.2485 355.567 33.3499C355.668 33.4512 355.747 33.5715 355.801 33.7037C355.854 33.8358 355.881 33.9774 355.88 34.12Z" fill="white"/>
<path d="M4.8 39.4401C4.79803 39.6117 4.74533 39.7789 4.64854 39.9207C4.55176 40.0624 4.4152 40.1724 4.25607 40.2367C4.09693 40.301 3.92233 40.3168 3.75423 40.2821C3.58613 40.2474 3.43204 40.1638 3.31137 40.0417C3.1907 39.9197 3.10883 39.7646 3.07606 39.5961C3.04329 39.4277 3.0611 39.2532 3.12723 39.0949C3.19336 38.9365 3.30487 38.8012 3.44771 38.706C3.59056 38.6109 3.75836 38.5601 3.93 38.5601C4.0451 38.5601 4.15905 38.5829 4.26526 38.6272C4.37147 38.6716 4.46783 38.7366 4.54875 38.8184C4.62967 38.9003 4.69354 38.9973 4.73667 39.1041C4.7798 39.2108 4.80132 39.325 4.8 39.4401Z" fill="white"/>
<path d="M208.98 13.8001C209.46 13.8001 209.85 13.4105 209.85 12.9301C209.85 12.4496 209.46 12.0601 208.98 12.0601C208.499 12.0601 208.11 12.4496 208.11 12.9301C208.11 13.4105 208.499 13.8001 208.98 13.8001Z" fill="white"/>
<path d="M178.56 3.06C178.562 3.23488 178.512 3.40639 178.416 3.55262C178.32 3.69886 178.183 3.8132 178.021 3.88104C177.86 3.94888 177.682 3.96715 177.511 3.93351C177.339 3.89988 177.181 3.81586 177.058 3.6922C176.934 3.56853 176.85 3.41081 176.816 3.23918C176.783 3.06755 176.801 2.88979 176.869 2.72859C176.937 2.56739 177.051 2.43006 177.197 2.33413C177.344 2.2382 177.515 2.18802 177.69 2.19C177.92 2.1926 178.14 2.28509 178.302 2.44769C178.465 2.61028 178.557 2.83007 178.56 3.06Z" fill="white"/>
<path d="M240.16 39.8099C240.16 39.982 240.109 40.1502 240.013 40.2933C239.918 40.4364 239.782 40.5479 239.623 40.6137C239.464 40.6796 239.289 40.6968 239.12 40.6632C238.952 40.6297 238.797 40.5468 238.675 40.4251C238.553 40.3035 238.47 40.1484 238.437 39.9797C238.403 39.8109 238.42 39.636 238.486 39.477C238.552 39.318 238.664 39.1822 238.807 39.0866C238.95 38.991 239.118 38.9399 239.29 38.9399C239.521 38.9399 239.742 39.0316 239.905 39.1948C240.068 39.3579 240.16 39.5792 240.16 39.8099Z" fill="white"/>
<path d="M343.83 43.57C343.832 43.7445 343.782 43.9156 343.687 44.0616C343.591 44.2076 343.454 44.322 343.294 44.3901C343.133 44.4583 342.956 44.4771 342.785 44.4443C342.613 44.4115 342.455 44.3285 342.331 44.2058C342.207 44.0831 342.122 43.9264 342.088 43.7554C342.053 43.5844 342.07 43.407 342.136 43.2456C342.202 43.0842 342.315 42.9462 342.46 42.849C342.605 42.7519 342.776 42.7 342.95 42.7C343.065 42.6987 343.179 42.7202 343.286 42.7633C343.393 42.8065 343.49 42.8703 343.572 42.9513C343.654 43.0322 343.718 43.1285 343.763 43.2347C343.807 43.341 343.83 43.4549 343.83 43.57Z" fill="white"/>
<path d="M321.31 3.80006C321.79 3.80006 322.18 3.41055 322.18 2.93006C322.18 2.44957 321.79 2.06006 321.31 2.06006C320.829 2.06006 320.44 2.44957 320.44 2.93006C320.44 3.41055 320.829 3.80006 321.31 3.80006Z" fill="white"/>
<path d="M42.8201 30.92C42.82 31.0944 42.7682 31.265 42.671 31.4099C42.5739 31.5548 42.4359 31.6676 42.2745 31.7339C42.1131 31.8002 41.9356 31.817 41.7647 31.7823C41.5937 31.7475 41.4369 31.6627 41.3143 31.5386C41.1916 31.4145 41.1086 31.2568 41.0758 31.0854C41.0429 30.9141 41.0618 30.7368 41.13 30.5762C41.1981 30.4156 41.3124 30.2789 41.4585 30.1834C41.6045 30.0879 41.7756 30.038 41.9501 30.04C42.0652 30.04 42.1791 30.0628 42.2853 30.1071C42.3915 30.1515 42.4879 30.2165 42.5688 30.2983C42.6497 30.3802 42.7136 30.4773 42.7567 30.584C42.7999 30.6907 42.8214 30.8049 42.8201 30.92Z" fill="white"/>
<path d="M302.45 1.42999C302.452 1.60445 302.402 1.77556 302.307 1.92159C302.211 2.06761 302.074 2.18196 301.914 2.2501C301.753 2.31824 301.576 2.3371 301.405 2.30429C301.233 2.27147 301.075 2.18845 300.951 2.06579C300.827 1.94313 300.742 1.78635 300.708 1.61538C300.673 1.44441 300.69 1.26697 300.756 1.10558C300.822 0.944201 300.935 0.806168 301.08 0.709023C301.225 0.611878 301.396 0.560005 301.57 0.559994C301.685 0.558671 301.799 0.580197 301.906 0.623326C302.013 0.666455 302.11 0.730328 302.192 0.811247C302.274 0.892166 302.339 0.988522 302.383 1.09473C302.427 1.20094 302.45 1.3149 302.45 1.42999Z" fill="white"/>
<path d="M154.01 1.56995C154.01 1.74202 153.959 1.91023 153.863 2.0533C153.768 2.19637 153.632 2.30788 153.473 2.37373C153.314 2.43957 153.139 2.4568 152.97 2.42323C152.802 2.38967 152.647 2.30681 152.525 2.18513C152.403 2.06346 152.32 1.90844 152.287 1.73968C152.253 1.57092 152.27 1.39599 152.336 1.23702C152.402 1.07804 152.514 0.94217 152.657 0.846573C152.8 0.750976 152.968 0.699951 153.14 0.699951C153.371 0.699951 153.592 0.791612 153.755 0.954769C153.918 1.11793 154.01 1.33921 154.01 1.56995Z" fill="white"/>
<path d="M226.24 9.83997C226.24 10.012 226.189 10.1802 226.093 10.3233C225.998 10.4664 225.862 10.5779 225.703 10.6437C225.544 10.7096 225.369 10.7268 225.2 10.6933C225.032 10.6597 224.877 10.5768 224.755 10.4552C224.633 10.3335 224.55 10.1785 224.517 10.0097C224.483 9.84094 224.5 9.66601 224.566 9.50704C224.632 9.34807 224.744 9.21219 224.887 9.11659C225.03 9.021 225.198 8.96997 225.37 8.96997C225.601 8.96997 225.822 9.06163 225.985 9.22479C226.148 9.38795 226.24 9.60924 226.24 9.83997Z" fill="white"/>
<path d="M121.91 8.64001C121.91 8.8378 121.851 9.03114 121.742 9.19558C121.632 9.36003 121.475 9.48821 121.293 9.56389C121.11 9.63958 120.909 9.65939 120.715 9.6208C120.521 9.58221 120.343 9.48697 120.203 9.34712C120.063 9.20727 119.968 9.02909 119.929 8.8351C119.891 8.64112 119.91 8.44006 119.986 8.25733C120.062 8.0746 120.19 7.91843 120.354 7.80855C120.519 7.69866 120.712 7.64001 120.91 7.64001C121.175 7.64001 121.43 7.74537 121.617 7.93291C121.805 8.12044 121.91 8.3748 121.91 8.64001Z" fill="white"/>
<path d="M9.30004 42.8899C9.30004 43.0759 9.24491 43.2576 9.14163 43.4122C9.03834 43.5668 8.89153 43.6872 8.71977 43.7584C8.548 43.8295 8.359 43.8482 8.17666 43.8119C7.99432 43.7756 7.82682 43.6861 7.69536 43.5546C7.5639 43.4232 7.47438 43.2557 7.43811 43.0733C7.40184 42.891 7.42045 42.702 7.4916 42.5302C7.56274 42.3585 7.68323 42.2117 7.83781 42.1084C7.99239 42.0051 8.17413 41.95 8.36004 41.95C8.60935 41.95 8.84844 42.049 9.02472 42.2253C9.20101 42.4016 9.30004 42.6406 9.30004 42.8899Z" fill="white"/>
<path d="M196.28 4.99005C196.28 5.17596 196.225 5.3577 196.122 5.51228C196.018 5.66687 195.872 5.78735 195.7 5.8585C195.528 5.92964 195.339 5.94826 195.157 5.91199C194.974 5.87572 194.807 5.78619 194.675 5.65473C194.544 5.52327 194.454 5.35578 194.418 5.17343C194.382 4.99109 194.4 4.80209 194.472 4.63033C194.543 4.45856 194.663 4.31176 194.818 4.20847C194.972 4.10518 195.154 4.05005 195.34 4.05005C195.589 4.05005 195.828 4.14908 196.005 4.32537C196.181 4.50165 196.28 4.74074 196.28 4.99005Z" fill="white"/>
<path d="M29.68 7.55999C29.682 7.78432 29.6171 8.00416 29.4937 8.19151C29.3703 8.37887 29.194 8.52525 28.9871 8.61201C28.7802 8.69877 28.5522 8.72199 28.332 8.67871C28.1119 8.63543 27.9096 8.52761 27.751 8.36897C27.5924 8.21034 27.4846 8.00808 27.4413 7.78795C27.398 7.56783 27.4212 7.3398 27.508 7.13292C27.5947 6.92603 27.7411 6.74965 27.9285 6.62625C28.1158 6.50285 28.3357 6.43801 28.56 6.43999C28.8562 6.4426 29.1396 6.56143 29.3491 6.77091C29.5586 6.98039 29.6774 7.26375 29.68 7.55999Z" fill="white"/>
<path d="M112.25 32.32C112.252 32.5439 112.187 32.7633 112.064 32.9505C111.941 33.1376 111.766 33.284 111.559 33.3711C111.353 33.4581 111.126 33.482 110.906 33.4395C110.686 33.397 110.484 33.2902 110.325 33.1326C110.165 32.9749 110.057 32.7736 110.012 32.5541C109.968 32.3347 109.99 32.107 110.075 31.8999C110.16 31.6928 110.305 31.5158 110.491 31.3912C110.677 31.2665 110.896 31.2 111.12 31.2C111.268 31.1987 111.415 31.2267 111.552 31.2824C111.689 31.3381 111.813 31.4203 111.918 31.5245C112.023 31.6286 112.107 31.7525 112.164 31.8891C112.221 32.0256 112.25 32.1721 112.25 32.32Z" fill="white"/>
<path d="M78.77 25.4C79.3941 25.4 79.9 24.8941 79.9 24.27C79.9 23.6459 79.3941 23.14 78.77 23.14C78.1459 23.14 77.64 23.6459 77.64 24.27C77.64 24.8941 78.1459 25.4 78.77 25.4Z" fill="white"/>
<path d="M1.31 2.62C2.03349 2.62 2.62 2.03349 2.62 1.31C2.62 0.586507 2.03349 0 1.31 0C0.586507 0 0 0.586507 0 1.31C0 2.03349 0.586507 2.62 1.31 2.62Z" fill="white"/>
<path d="M225.22 24.41C225.22 24.6296 225.155 24.8442 225.033 25.0267C224.911 25.2093 224.738 25.3515 224.535 25.4356C224.332 25.5196 224.109 25.5415 223.893 25.4987C223.678 25.4559 223.48 25.3502 223.325 25.1949C223.17 25.0397 223.064 24.8419 223.021 24.6266C222.979 24.4113 223 24.1881 223.084 23.9853C223.169 23.7824 223.311 23.6091 223.493 23.4871C223.676 23.3651 223.89 23.3 224.11 23.3C224.404 23.3 224.687 23.417 224.895 23.6252C225.103 23.8333 225.22 24.1157 225.22 24.41Z" fill="white"/>
<path d="M59.32 28.14L57.25 28.83L56.64 30.93L55.34 29.17L53.15 29.24L54.43 27.46L53.68 25.41L55.77 26.07L57.5 24.72L57.51 26.91L59.32 28.14Z" fill="#FF5480"/>
<path d="M288.65 42.34L289.11 43.27L290.14 43.42L289.4 44.14L289.57 45.17L288.65 44.69L287.73 45.17L287.91 44.14L287.17 43.42L288.19 43.27L288.65 42.34Z" fill="#FF5480"/>
<path d="M226.73 37.1599L224.92 36.4999L223.35 37.6099L223.42 35.6899L221.88 34.5399L223.73 34.0199L224.34 32.1899L225.41 33.7899L227.33 33.8099L226.15 35.3199L226.73 37.1599Z" fill="#FF5480"/>
<path d="M137.93 32L137.08 31.92L136.54 32.57L136.35 31.74L135.57 31.43L136.29 31L136.35 30.15L136.99 30.71L137.81 30.5L137.47 31.28L137.93 32Z" fill="#FF5480"/>
</g>
<defs>
<clipPath id="clip0_614_5704">
<rect width="355.88" height="44.44" fill="white"/>
</clipPath>
</defs>
</svg>
