<svg width="188" height="44" viewBox="0 0 188 44" fill="none" xmlns="http://www.w3.org/2000/svg">
<g clip-path="url(#clip0_652_12025)">
<path d="M170.986 22.5046L170.479 34.5354L167.267 37.5335L167.329 25.0287L170.986 22.5046Z" fill="#EA7100"/>
<path d="M170.986 22.4919L167.279 25.0544V31.3837C168.441 30.3843 169.577 29.3465 170.726 28.3344L170.986 22.4919Z" fill="#FF7B00"/>
<g style="mix-blend-mode:screen">
<path d="M170.986 22.4919L167.279 25.0538V25.5021C168.515 24.7079 169.75 23.7729 170.912 22.9403L170.986 22.4919Z" fill="#4D2500"/>
</g>
<g style="mix-blend-mode:multiply">
<path d="M168.453 24.2485C168.613 24.453 168.732 24.6889 168.802 24.942C168.872 25.1951 168.892 25.4602 168.861 25.7216C168.814 26.1725 168.643 26.6001 168.37 26.9541C168.096 27.308 167.731 27.5737 167.317 27.7198V28.3474C167.918 28.2292 168.468 27.9151 168.886 27.4508C169.302 26.9785 169.533 26.3616 169.533 25.7216C169.533 25.0815 169.302 24.4646 168.886 23.9923L168.453 24.2485Z" fill="#FCD597"/>
</g>
<g style="mix-blend-mode:multiply">
<path d="M168.12 29.8612C167.774 29.9636 167.23 30.821 167.588 31.1409L168.342 30.4755C168.367 30.2835 168.453 29.7461 168.12 29.8612Z" fill="#FCD597"/>
</g>
<g style="mix-blend-mode:multiply">
<path d="M169.034 28.58C168.522 28.9655 167.929 29.2199 167.304 29.3222V29.8596C167.432 29.6586 167.612 29.4989 167.823 29.399C167.928 29.3526 168.042 29.3319 168.156 29.3385C168.269 29.3451 168.38 29.3788 168.479 29.437C168.579 29.4952 168.664 29.5763 168.728 29.674C168.792 29.7717 168.833 29.8834 168.849 30.0004L169.034 29.8596C168.96 29.4365 168.96 29.0031 169.034 28.58Z" fill="#FCD597"/>
</g>
<g style="mix-blend-mode:multiply">
<path d="M170.838 24.4024C170.641 24.2335 170.485 24.0194 170.382 23.777C170.279 23.5346 170.232 23.2707 170.245 23.0062L169.602 23.4545C169.951 23.8562 170.208 24.3345 170.353 24.8535C170.499 25.3725 170.529 25.9189 170.442 26.4519C170.565 26.394 170.693 26.351 170.825 26.3238L170.899 24.4409L170.838 24.4024Z" fill="#FCD597"/>
</g>
<g style="mix-blend-mode:multiply">
<path d="M169.577 29.3465L170.739 28.3092V27.0286C170.333 27.2376 170.002 27.5747 169.794 27.9913C169.585 28.4079 169.509 28.8824 169.577 29.3465Z" fill="#FCD597"/>
</g>
<g style="mix-blend-mode:multiply">
<path d="M167.984 25.7346C167.984 25.4785 167.984 24.9022 167.737 24.7485L167.329 25.0303V26.7335C167.5 26.6244 167.647 26.479 167.76 26.3068C167.872 26.1346 167.949 25.9396 167.984 25.7346Z" fill="#FCD597"/>
</g>
<path d="M167.292 31.3602V37.5358L170.504 34.5377L170.764 28.3109C169.59 29.3231 168.453 30.3609 167.292 31.3602Z" fill="#EA7100"/>
<g style="mix-blend-mode:multiply">
<path d="M167.292 31.3595V32.2305C168.275 31.0356 169.424 29.9994 170.702 29.1563V28.3109C169.59 29.3228 168.453 30.3604 167.292 31.3595Z" fill="#FFCA7A"/>
</g>
<path d="M170.986 22.5069L167.329 25.0303L157 24.8125L161.275 22.1738L170.986 22.5069Z" fill="#FFC73B"/>
<g style="mix-blend-mode:multiply">
<path d="M165.649 22.3273C164.512 23.1471 163.425 24.0181 162.375 24.8891H163.264C164.5 23.9925 165.797 23.1342 167.094 22.3273H165.649Z" fill="#FFDEAD"/>
</g>
<g style="mix-blend-mode:multiply">
<path d="M162.77 22.8124C163.412 22.8232 164.045 22.6505 164.598 22.3134H164.413C163.883 22.5446 163.314 22.6637 162.739 22.6637C162.164 22.6637 161.595 22.5446 161.065 22.3134L160.707 22.5309C160.838 22.6035 160.98 22.6553 161.127 22.6845C161.665 22.8101 162.219 22.8532 162.77 22.8124Z" fill="#FFD799"/>
</g>
<g style="mix-blend-mode:multiply">
<path d="M160.089 24.7344C159.774 24.5897 159.432 24.5199 159.088 24.5301C158.58 24.513 158.077 24.6364 157.63 24.8877H160.262C160.262 24.7983 160.212 24.7344 160.089 24.7344Z" fill="#FFD799"/>
</g>
<g style="mix-blend-mode:multiply">
<path d="M168.577 22.4163C167.885 22.9407 169.664 23.1453 169.961 23.1325H170.084L171.011 22.493L168.577 22.4163Z" fill="#FFD799"/>
</g>
<g style="mix-blend-mode:multiply">
<path d="M168.033 22.4036H167.242L167.082 22.6083C166.464 23.6833 167.663 24.1183 168.49 24.0672H168.762L169.442 23.5937C168.91 23.4529 167.613 23.1842 168.033 22.4036Z" fill="#FFD799"/>
</g>
<g style="mix-blend-mode:multiply">
<path d="M164.673 23.4539C165.09 23.5008 165.503 23.5822 165.908 23.6972C165.818 23.2398 165.87 22.7647 166.056 22.3397H165.315C164.966 22.72 164.537 23.0115 164.061 23.1914C163.585 23.3714 163.076 23.4349 162.572 23.377C161.737 23.4752 160.893 23.2958 160.163 22.8648L158.668 23.774C159.025 23.6887 159.395 23.6787 159.756 23.7448C160.117 23.8108 160.461 23.9514 160.768 24.1582C161.975 23.531 163.333 23.286 164.673 23.4539Z" fill="#FFD799"/>
</g>
<g style="mix-blend-mode:multiply">
<path d="M166.093 24.2342L165.649 24.0934C164.089 23.6379 162.422 23.7928 160.966 24.5286C160.986 24.6472 160.986 24.7684 160.966 24.887L167.02 25.0278C166.627 24.8908 166.297 24.6081 166.093 24.2342Z" fill="#FFD799"/>
</g>
<path d="M165.154 22.3008C163.808 23.1462 162.683 24.0172 161.337 24.8626H162.856C164.24 23.9788 165.327 23.095 166.699 22.3008H165.154Z" fill="#FFF2B0"/>
<path d="M167.329 25.0303L167.267 37.5351L157.63 36.8817L157 24.8125L167.329 25.0303Z" fill="#FF9900"/>
<path d="M157.334 31.2321L157.63 36.8823L167.267 37.5357V31.4499C163.956 31.4883 160.632 31.4755 157.334 31.2321Z" fill="#FF9900"/>
<g style="mix-blend-mode:multiply">
<path d="M163.178 31.45H162.189C162.262 33.3908 162.451 35.325 162.758 37.2411H163.524C163.326 35.3321 163.091 33.4359 163.178 31.45Z" fill="#FFCA7A"/>
</g>
<g style="mix-blend-mode:multiply">
<path d="M157.334 31.2321V31.7443C160.629 31.4514 163.946 31.5589 167.218 32.0645V31.4498C163.956 31.4882 160.632 31.4754 157.334 31.2321Z" fill="#FFCA7A"/>
</g>
<path d="M157 24.7997L157.334 31.2058C160.632 31.4493 163.956 31.4621 167.292 31.4236V25.0175L157 24.7997Z" fill="#FFAA00"/>
<g style="mix-blend-mode:multiply">
<path d="M163.178 24.9407H162.053C162.053 27.1572 162.053 29.3097 162.201 31.4621H163.178C163.103 29.2712 163.178 27.0675 163.178 24.9407Z" fill="#FFCA7A"/>
</g>
<g style="mix-blend-mode:screen">
<path d="M167.329 25.35V25.03L157 24.8125L157.012 25.1196L167.329 25.35Z" fill="#968562"/>
</g>
<g style="mix-blend-mode:multiply">
<path d="M159.965 25.3761C159.809 25.6535 159.575 25.8761 159.296 26.0152C159.016 26.1544 158.703 26.2039 158.396 26.1573C158.216 26.171 158.036 26.1437 157.867 26.0773C157.698 26.0109 157.546 25.9071 157.42 25.7731L157.284 25.581C157.155 25.4429 157.058 25.2766 157 25.0944L157.099 26.8232C157.218 27.0418 157.385 27.2283 157.587 27.3676C157.788 27.5068 158.019 27.595 158.259 27.6249C158.5 27.6548 158.744 27.6257 158.971 27.5398C159.199 27.4539 159.404 27.3137 159.57 27.1305C159.783 26.8497 159.937 26.5257 160.022 26.1795C160.107 25.8332 160.122 25.4723 160.064 25.12C160.04 25.2088 160.007 25.2947 159.965 25.3761Z" fill="#FFD799"/>
</g>
<g style="mix-blend-mode:multiply">
<path d="M161.571 29.0651C162.053 28.5405 161.967 27.7854 161.213 27.6319C161.058 27.611 160.901 27.6339 160.758 27.6982C160.615 27.7624 160.491 27.8656 160.4 27.9968C160.308 28.1279 160.253 28.2822 160.24 28.4433C160.226 28.6044 160.255 28.7662 160.323 28.9116C160.394 29.0093 160.482 29.0913 160.584 29.1523C160.686 29.2134 160.799 29.2523 160.916 29.2666C161.032 29.281 161.151 29.2706 161.263 29.2359C161.376 29.2013 161.481 29.1432 161.571 29.0651Z" fill="#FFD799"/>
</g>
<g style="mix-blend-mode:multiply">
<path d="M163.005 30.2071C162.5 30.2182 162.009 30.3732 161.584 30.6551C161.269 30.8462 160.992 31.0983 160.768 31.3975C162.127 31.3975 163.499 31.3975 164.87 31.3975V31.3591C164.796 30.5399 163.659 30.1815 163.005 30.2071Z" fill="#FFD799"/>
</g>
<g style="mix-blend-mode:multiply">
<path d="M166.686 28.7065C166.791 28.3953 166.803 28.0585 166.719 27.7405C166.635 27.4226 166.46 27.1385 166.217 26.926C165.962 26.6549 165.654 26.4428 165.314 26.3036C164.974 26.1643 164.61 26.1011 164.245 26.118C163.879 26.135 163.522 26.2317 163.195 26.4018C162.869 26.572 162.581 26.8117 162.35 27.1053C162.611 27.3493 162.794 27.6705 162.873 28.0255C162.953 28.3806 162.925 28.7524 162.795 29.0908C163.263 29.0517 163.734 29.1135 164.179 29.2722C164.623 29.4309 165.031 29.6831 165.377 30.013C165.97 30.2436 166.538 29.1676 166.686 28.7065ZM165.228 28.4503C165.152 28.6044 165.035 28.7323 164.89 28.8187C164.745 28.9051 164.58 28.9462 164.413 28.9371C164.228 28.9625 164.04 28.9304 163.873 28.8448C163.706 28.7593 163.568 28.6241 163.475 28.4565C163.382 28.289 163.34 28.0966 163.353 27.9039C163.366 27.7112 163.434 27.5268 163.548 27.3743C163.716 27.1925 163.938 27.0756 164.179 27.043C164.419 27.0103 164.663 27.064 164.87 27.195C165.076 27.314 165.23 27.5121 165.297 27.7468C165.364 27.9815 165.339 28.2341 165.228 28.4503Z" fill="#FFD799"/>
</g>
<g style="mix-blend-mode:multiply">
<path d="M166.118 25.0046C166.106 25.0981 166.106 25.1929 166.118 25.2864C166.217 25.6065 166.896 25.8755 167.292 25.773V25.0303L166.118 25.0046Z" fill="#FFD799"/>
</g>
<g style="mix-blend-mode:multiply">
<path d="M166.884 26.8748C166.956 27.0089 167.014 27.1506 167.057 27.2975C167.231 27.7232 167.281 28.1921 167.202 28.6469C167.123 29.1018 166.918 29.523 166.612 29.8593C166.401 30.1808 166.092 30.4198 165.735 30.5382L165.809 30.6919C165.904 30.9415 165.958 31.2054 165.97 31.4733H166.489C166.445 31.3185 166.445 31.1541 166.489 30.9993C166.476 30.9101 166.476 30.8195 166.489 30.7303C166.534 30.5215 166.635 30.3297 166.778 30.1761C166.922 30.0224 167.104 29.9128 167.304 29.8593V26.8748C167.165 26.8932 167.024 26.8932 166.884 26.8748Z" fill="#FFD799"/>
</g>
<g style="mix-blend-mode:multiply">
<path d="M161.386 26.567C161.582 26.6203 161.769 26.7022 161.942 26.8103C162.314 26.3105 162.825 25.9398 163.405 25.7477C163.985 25.5556 164.609 25.551 165.191 25.7346C165.078 25.4995 165.015 25.2418 165.006 24.979L160.867 24.8894C160.997 25.4275 160.997 25.9905 160.867 26.5286C161.041 26.5178 161.215 26.5307 161.386 26.567Z" fill="#FFD799"/>
</g>
<g style="mix-blend-mode:multiply">
<path d="M159.236 28.5796C159.23 28.4773 159.23 28.3747 159.236 28.2724C158.9 28.4032 158.539 28.4527 158.182 28.4172C157.824 28.3817 157.479 28.2621 157.173 28.0675V29.0533C157.43 28.7674 157.765 28.5691 158.134 28.4845C158.502 28.4 158.886 28.4331 159.236 28.5796Z" fill="#FFD799"/>
</g>
<g style="mix-blend-mode:multiply">
<path d="M157.581 30.5136C157.575 30.6253 157.536 30.7324 157.469 30.8207C157.566 30.9557 157.692 31.0654 157.837 31.1409C157.981 31.2165 158.141 31.2558 158.303 31.2558C158.466 31.2558 158.626 31.2165 158.77 31.1409C158.915 31.0654 159.041 30.9557 159.137 30.8207C159.195 30.7536 159.239 30.675 159.267 30.5897C159.295 30.5044 159.306 30.4141 159.299 30.3244C159.292 30.2347 159.267 30.1474 159.227 30.0677C159.186 29.988 159.131 29.9177 159.063 29.861C158.933 29.7581 158.779 29.6928 158.617 29.6717C158.454 29.6505 158.289 29.6743 158.139 29.7406C157.988 29.807 157.857 29.9134 157.759 30.0492C157.661 30.185 157.599 30.3452 157.581 30.5136Z" fill="#FFD799"/>
</g>
<path d="M161.337 24.9022C161.337 28.9253 161.238 33.0508 161.584 37.1508L163.178 37.2661C162.93 33.1662 162.881 29.0918 162.869 24.9407L161.337 24.9022Z" fill="#FFE770"/>
<g style="mix-blend-mode:screen">
<path d="M162.856 25.3504C162.856 25.2095 162.856 25.0687 162.856 24.9407H161.349C161.349 25.0815 161.349 25.2223 161.349 25.3632L162.856 25.3504Z" fill="#FFE770"/>
</g>
<g style="mix-blend-mode:screen">
<path d="M163.178 37.2657L163.066 35.1271L163.178 37.2657Z" fill="#FFE770"/>
</g>
<path d="M187.678 32.3083L186.998 36.6645L183.601 42.1866L184.132 37.5358L187.678 32.3083Z" fill="#872349"/>
<g style="mix-blend-mode:screen">
<path d="M187.357 34.3445L187.678 32.3083L186.516 34.0244C186.776 34.1817 187.06 34.2901 187.357 34.3445Z" fill="#2B0E18"/>
</g>
<g style="mix-blend-mode:screen">
<path d="M185.417 35.5754L184.181 37.5476C184.483 37.143 184.917 36.8664 185.401 36.7697C185.886 36.673 186.388 36.7629 186.813 37.0225L187.06 36.6255L187.134 36.1901C186.517 36.158 185.922 35.9448 185.417 35.5754Z" fill="#2B0E18"/>
</g>
<g style="mix-blend-mode:screen">
<path d="M187.171 35.5743L187.295 34.7935C186.944 34.6993 186.613 34.5388 186.319 34.3199L185.787 35.0879C186.191 35.3909 186.673 35.5604 187.171 35.5743Z" fill="#2B0E18"/>
</g>
<g style="mix-blend-mode:screen">
<path d="M184.293 38.2529C184.191 38.3666 184.096 38.4863 184.008 38.6115L183.934 39.2134C184.15 38.9431 184.42 38.7246 184.725 38.5731C185.092 38.4118 185.5 38.3803 185.886 38.4834L186.405 37.6254C186.035 37.4806 185.629 37.4635 185.249 37.5765C184.868 37.6895 184.533 37.9267 184.293 38.2529Z" fill="#2B0E18"/>
</g>
<g style="mix-blend-mode:screen">
<path d="M184.651 39.3679C184.266 39.7754 183.963 40.2588 183.761 40.7897L183.601 42.1731L185.565 39.0092C185.396 38.983 185.223 39.0022 185.063 39.0649C184.903 39.1277 184.761 39.232 184.651 39.3679Z" fill="#2B0E18"/>
</g>
<path d="M184.787 36.562C184.787 36.562 184.416 39.7267 184.28 41.0848L185.145 39.6754L185.639 35.332L184.787 36.562Z" fill="#54162E"/>
<path d="M184.132 37.5358L183.601 42.1866L162.597 41.136L162.029 36.8823L184.132 37.5358Z" fill="#A8355B"/>
<g style="mix-blend-mode:screen">
<path d="M184.095 37.817L184.132 37.5353L162.029 36.8823L162.066 37.164L184.095 37.817Z" fill="#A8355B"/>
</g>
<g style="mix-blend-mode:screen">
<path d="M163.585 40.5723C163.231 40.4976 162.871 40.459 162.51 40.457L162.597 41.1358L164.611 41.2382C164.35 40.9036 163.989 40.6691 163.585 40.5723Z" fill="#401423"/>
</g>
<g style="mix-blend-mode:screen">
<path d="M163.771 39.0091C163.284 38.9331 162.787 38.9859 162.325 39.1628V39.4573C162.739 39.4337 163.155 39.4681 163.561 39.5598C164.024 39.6663 164.46 39.8761 164.838 40.1746C165.215 40.4732 165.526 40.8533 165.747 41.2886H166.662C166.609 41.1498 166.542 41.0168 166.464 40.8916C165.813 39.9494 164.857 39.2813 163.771 39.0091Z" fill="#401423"/>
</g>
<g style="mix-blend-mode:screen">
<path d="M162.226 37.9328V38.1889C162.942 37.9015 163.735 37.9015 164.45 38.1889C165.329 38.5338 166.129 39.066 166.798 39.7513C165.933 38.2785 163.832 37.1004 162.226 37.9328Z" fill="#401423"/>
</g>
<g style="mix-blend-mode:screen">
<path d="M169.009 37.0873L165.747 36.9977C165.883 37.2322 166.062 37.4366 166.274 37.5992C166.486 37.7618 166.727 37.8793 166.983 37.9451C167.504 38.0182 168.033 37.8756 168.453 37.5482C168.649 37.4088 168.835 37.2548 169.009 37.0873Z" fill="#401423"/>
</g>
<g style="mix-blend-mode:screen">
<path d="M169.417 38.0089C169.939 37.8549 170.41 37.5536 170.776 37.1385H169.652C169.287 37.5403 168.871 37.889 168.416 38.1753C168.756 38.1724 169.093 38.1163 169.417 38.0089Z" fill="#401423"/>
</g>
<g style="mix-blend-mode:screen">
<path d="M174.754 41.2638C174.338 41.0489 173.871 40.9602 173.408 41.008C173.347 41.0693 173.271 41.1133 173.189 41.1357C173.107 41.1581 173.02 41.1582 172.938 41.1359C172.77 41.2324 172.626 41.3682 172.518 41.5324L175.384 41.6731C175.217 41.4765 174.998 41.3343 174.754 41.2638Z" fill="#401423"/>
</g>
<g style="mix-blend-mode:screen">
<path d="M174.445 40.4185C174.781 40.5293 175.092 40.7087 175.359 40.9461C175.627 41.1835 175.845 41.4741 176.002 41.8006H176.558C176.101 40.892 175.347 40.2138 174.445 40.4185Z" fill="#401423"/>
</g>
<g style="mix-blend-mode:screen">
<path d="M175.891 39.5857C176.703 40.1223 177.314 40.9314 177.621 41.878H178.547C178.421 41.2402 178.09 40.6658 177.607 40.2492C177.124 39.8326 176.519 39.5986 175.891 39.5857Z" fill="#401423"/>
</g>
<g style="mix-blend-mode:screen">
<path d="M175.656 38.3301L175.471 38.5991C176.404 38.4768 177.346 38.7341 178.099 39.317C178.852 39.8998 179.359 40.7628 179.511 41.7245C179.511 41.8014 179.511 41.891 179.511 41.9807H180.302C180.326 41.6202 180.301 41.258 180.228 40.9047C180.114 40.4099 179.901 39.9454 179.602 39.5416C179.304 39.1377 178.927 38.8035 178.496 38.5606C178.065 38.3178 177.589 38.1718 177.1 38.132C176.61 38.0923 176.119 38.1598 175.656 38.3301Z" fill="#401423"/>
</g>
<g style="mix-blend-mode:screen">
<path d="M176.175 37.3052C176.175 37.4331 176.064 37.561 176.002 37.6889C176.887 37.4908 177.81 37.594 178.634 37.9831C179.061 37.8818 179.461 37.6854 179.808 37.4075L176.175 37.3052Z" fill="#401423"/>
</g>
<g style="mix-blend-mode:screen">
<path d="M180.895 37.4462H180.475C180.092 37.8089 179.654 38.1031 179.177 38.3166C179.29 38.3903 179.397 38.4716 179.499 38.5598C180.073 38.3639 180.565 37.9711 180.895 37.4462Z" fill="#401423"/>
</g>
<g style="mix-blend-mode:screen">
<path d="M182.489 37.5486H181.821C181.403 38.2425 180.797 38.7942 180.079 39.1354C180.405 39.1242 180.722 39.032 181.006 38.8667C181.586 38.5424 182.091 38.0929 182.489 37.5486Z" fill="#401423"/>
</g>
<g style="mix-blend-mode:screen">
<path d="M183.971 37.5486H183.131C183.049 37.6952 182.958 37.8364 182.859 37.9712C182.255 38.7606 181.417 39.3229 180.475 39.572H180.339C181.075 39.6273 181.811 39.4534 182.452 39.0725C183.1 38.7428 183.632 38.2096 183.971 37.5486Z" fill="#401423"/>
</g>
<g style="mix-blend-mode:screen">
<path d="M182.81 40.7499C183.178 40.6459 183.522 40.4676 183.823 40.2252L183.922 39.3038C183.224 39.9528 182.371 40.3949 181.451 40.5835C181.87 40.8059 182.352 40.8649 182.81 40.7499Z" fill="#401423"/>
</g>
<g style="mix-blend-mode:screen">
<path d="M181.71 41.8657C181.378 41.7611 181.052 41.6373 180.734 41.4948C180.746 41.6779 180.746 41.8616 180.734 42.0448L183.563 42.1727L183.638 41.5715C183.046 41.8925 182.366 41.9962 181.71 41.8657Z" fill="#401423"/>
</g>
<g style="mix-blend-mode:screen">
<path d="M175.001 37.7022C175.076 37.5613 175.15 37.4204 175.211 37.2795H174.198C173.921 37.8685 173.535 38.3951 173.062 38.8295C172.404 39.4533 171.614 39.9091 170.756 40.1604C169.898 40.4118 168.995 40.4516 168.12 40.2769C168.206 40.5075 168.28 40.7508 168.354 40.9942C169.655 41.2378 170.997 41.051 172.19 40.4602C173.383 39.8694 174.367 38.9045 175.001 37.7022Z" fill="#401423"/>
</g>
<g style="mix-blend-mode:screen">
<path d="M173.42 37.2283H172.073C171.837 37.6731 171.528 38.0718 171.159 38.4064C170.147 39.1676 168.886 39.485 167.65 39.2901V39.3925C168.705 39.7729 169.855 39.7654 170.905 39.3713C171.956 38.9772 172.844 38.2206 173.42 37.2283Z" fill="#401423"/>
</g>
<path d="M166.069 37.0105L166.526 41.3912H168.651C168.651 39.9438 168.441 37.0361 168.441 37.0361L166.069 37.0105Z" fill="#691B39"/>
<g style="mix-blend-mode:screen">
<path d="M168.466 37.3286V37.0741L166.093 37.0105V37.2522L168.466 37.3286Z" fill="#691B39"/>
</g>
<path d="M187.678 32.3084L184.132 37.5358L162.029 36.8824L169.405 31.5397L187.678 32.3084Z" fill="#C2659D"/>
<g style="mix-blend-mode:multiply">
<path d="M164.747 36.0111C163.883 36.0653 163.052 36.3715 162.35 36.8945L166.155 37.0097C166.06 36.7053 165.87 36.4421 165.615 36.2614C165.36 36.0807 165.055 35.9927 164.747 36.0111Z" fill="#F5CBE4"/>
</g>
<g style="mix-blend-mode:multiply">
<path d="M165.896 34.9862C165.643 34.9978 165.391 35.0277 165.142 35.0758L164.944 35.2423C164.857 35.3397 164.738 35.4002 164.61 35.412C164.482 35.4238 164.355 35.3862 164.252 35.3063L163.795 35.6393C164.112 35.5275 164.447 35.4835 164.78 35.5099C165.114 35.5363 165.439 35.6326 165.735 35.7929C165.975 35.9219 166.186 36.1031 166.352 36.3241C166.518 36.5451 166.637 36.8008 166.699 37.0736H168.268C168.255 36.7712 168.181 36.475 168.053 36.2033C167.924 35.9316 167.743 35.6903 167.52 35.4945C167.298 35.2986 167.039 35.1524 166.759 35.0649C166.48 34.9775 166.186 34.9507 165.896 34.9862Z" fill="#F5CBE4"/>
</g>
<g style="mix-blend-mode:multiply">
<path d="M166.353 34.3966C166.998 34.4278 167.61 34.7077 168.067 35.1816C168.524 35.6554 168.794 36.2891 168.824 36.9585C168.829 37.0053 168.829 37.0526 168.824 37.0994H169.676C169.952 36.531 170.001 35.873 169.812 35.2677C169.355 33.9996 167.662 33.9483 166.353 34.3966Z" fill="#F5CBE4"/>
</g>
<g style="mix-blend-mode:multiply">
<path d="M171.937 31.6421L169.355 31.5397L167.811 32.6533C168.528 32.7969 169.267 32.781 169.979 32.6067C170.69 32.4324 171.358 32.1036 171.937 31.6421Z" fill="#F5CBE4"/>
</g>
<g style="mix-blend-mode:multiply">
<path d="M175.088 31.783L173.531 31.7062C173.293 31.9527 173.037 32.1796 172.765 32.3849C171.927 32.9943 170.983 33.4292 169.985 33.6655H170.047C170.971 33.7901 171.911 33.6843 172.787 33.3569C173.664 33.0294 174.453 32.4899 175.088 31.783Z" fill="#F5CBE4"/>
</g>
<g style="mix-blend-mode:multiply">
<path d="M183.934 37.5476C182.44 36.7583 180.763 36.4128 179.091 36.5492L178.584 36.7668C178.824 36.9646 179.047 37.183 179.252 37.4196L183.959 37.5604L183.934 37.5476Z" fill="#F5CBE4"/>
</g>
<g style="mix-blend-mode:multiply">
<path d="M185.874 32.2314H184.255C183.912 32.6607 183.656 33.1572 183.502 33.6914C183.823 33.8398 184.137 34.0065 184.441 34.1908C184.748 33.4207 185.241 32.7458 185.874 32.2314Z" fill="#F5CBE4"/>
</g>
<g style="mix-blend-mode:multiply">
<path d="M176.187 31.8215C175.788 32.3014 175.336 32.7313 174.841 33.1025C174.072 33.6978 173.199 34.1328 172.271 34.3834C173.106 34.4427 173.933 34.5842 174.742 34.8061C175.853 33.8126 177.207 33.1575 178.655 32.9133C180.103 32.6692 181.588 32.8455 182.946 33.4227C183.077 32.9706 183.269 32.5395 183.514 32.1418L176.187 31.8215Z" fill="#F5CBE4"/>
</g>
<g style="mix-blend-mode:multiply">
<path d="M186.986 32.2827C186.489 32.429 186.033 32.694 185.653 33.0566C185.273 33.4191 184.981 33.8691 184.799 34.3701H184.861L185.046 34.5238C185.228 33.9744 185.557 33.4901 185.995 33.1272C186.432 32.7644 186.96 32.5381 187.517 32.4748L187.665 32.2699L186.986 32.2827Z" fill="#F5CBE4"/>
</g>
<g style="mix-blend-mode:multiply">
<path d="M185.763 35.1382L186.751 33.705C186.257 34.0342 185.903 34.5471 185.763 35.1382Z" fill="#F5CBE4"/>
</g>
<g style="mix-blend-mode:multiply">
<path d="M182.785 34.4985C180.388 33.6923 177.732 33.5004 175.78 35.2024L176.472 35.4839C178.696 33.8075 182.254 34.1274 184.614 35.4839C184.068 35.042 183.448 34.708 182.785 34.4985Z" fill="#F5CBE4"/>
</g>
<g style="mix-blend-mode:multiply">
<path d="M183.971 35.8698C181.945 34.9349 179.029 34.4867 177.102 35.7801L177.485 35.9978C179.956 35.1398 182.204 35.7161 184.638 36.7918L184.91 36.3948C184.611 36.1952 184.297 36.0197 183.971 35.8698Z" fill="#F5CBE4"/>
</g>
<g style="mix-blend-mode:multiply">
<path d="M171.023 35.6393C171.22 35.6135 171.419 35.6135 171.616 35.6393C172.172 35.6722 172.721 35.7843 173.247 35.9723C174.046 36.2732 174.793 36.7056 175.459 37.2529L178.177 37.3425C176.06 35.8369 173.525 35.0944 170.961 35.2295V35.4088C171.011 35.4985 171.011 35.5753 171.023 35.6393Z" fill="#F5CBE4"/>
</g>
<g style="mix-blend-mode:multiply">
<path d="M173.185 37.2143H174.693L174.557 37.0991C173.536 36.3393 172.288 35.9808 171.035 36.0879C171.041 36.186 171.041 36.2843 171.035 36.3823C171.797 36.512 172.528 36.7946 173.185 37.2143Z" fill="#F5CBE4"/>
</g>
<g style="mix-blend-mode:multiply">
<path d="M170.937 36.8439C170.918 36.9471 170.893 37.049 170.862 37.1492H172.098C171.724 36.9993 171.334 36.8968 170.937 36.8439Z" fill="#F5CBE4"/>
</g>
<path d="M165.154 34.6146L163.536 35.7928C170.714 35.8824 177.559 36.3947 184.787 36.5612L185.639 35.2805C178.906 34.8964 171.962 34.8323 165.154 34.6146Z" fill="#872349"/>
<path d="M172.345 31.6677C170.232 33.4102 168.12 35.1911 166.069 37.0105L168.54 37.0745C170.418 35.3577 172.543 33.5639 174.347 31.7574L172.345 31.6677Z" fill="#872349"/>
<path d="M184.465 25.3505L183.625 33.4222L182.069 36.1769L182.328 27.2467L184.465 25.3505Z" fill="#258C87"/>
<path d="M184.465 25.3505L182.328 27.2979L182.229 30.6676C182.872 30.0654 183.465 29.3863 184.107 28.8354L184.465 25.3505Z" fill="#289994"/>
<g style="mix-blend-mode:multiply">
<path d="M183.205 27.5024C182.814 27.7869 182.499 28.1704 182.291 28.6165V29.3081C182.747 28.5062 183.44 27.8776 184.268 27.5152V27.195C183.893 27.1916 183.524 27.2981 183.205 27.5024Z" fill="#7AEBE7"/>
</g>
<g style="mix-blend-mode:multiply">
<path d="M182.241 30.283V30.5904C182.884 29.9885 183.477 29.3098 184.119 28.7591L184.181 28.1188C183.326 28.6039 182.645 29.3632 182.241 30.283Z" fill="#7AEBE7"/>
</g>
<path d="M182.229 30.6044L182.069 36.1777L183.625 33.4231L184.107 28.7722C183.489 29.3872 182.872 30.0022 182.229 30.6044Z" fill="#258C87"/>
<g style="mix-blend-mode:multiply">
<path d="M182.217 31.0012V31.9228C182.347 31.8383 182.489 31.7737 182.637 31.7308C183.037 31.6329 183.459 31.7019 183.811 31.9228V31.8076C183.655 31.7881 183.512 31.7053 183.415 31.5772C183.131 31.27 183.008 30.3996 182.217 31.0012Z" fill="#7AEBE7"/>
</g>
<g style="mix-blend-mode:multiply">
<path d="M182.155 33.0256V33.1921C182.563 33.0896 183.143 33.3073 183.601 33.1921V32.667C183.458 32.5802 183.304 32.5155 183.143 32.4749C182.943 32.4398 182.737 32.4749 182.558 32.5746C182.379 32.6743 182.237 32.833 182.155 33.0256Z" fill="#7AEBE7"/>
</g>
<g style="mix-blend-mode:multiply">
<path d="M182.13 33.9612L182.069 36.1766L183.366 33.8971C182.954 33.8399 182.535 33.8616 182.13 33.9612Z" fill="#7AEBE7"/>
</g>
<g style="mix-blend-mode:multiply">
<path d="M182.464 30.373C182.764 30.3349 183.068 30.4124 183.316 30.5907C183.478 30.7445 183.611 30.9266 183.712 31.1286C183.744 31.1875 183.791 31.2362 183.848 31.2694L184.107 28.7722C183.563 29.3101 183.02 29.8607 182.464 30.373Z" fill="#7AEBE7"/>
</g>
<g style="mix-blend-mode:multiply">
<path d="M184.107 28.7722C183.489 29.3869 182.872 30.0528 182.229 30.6035V30.9365C182.822 30.3474 183.465 29.7839 184.07 29.2332L184.107 28.7722Z" fill="#3DB9B5"/>
</g>
<path d="M183.329 26.3626C183.329 26.3626 183.007 32.0512 182.81 34.8699L183.242 34.1012C183.452 31.2184 183.946 25.8116 183.946 25.8116L183.329 26.3626Z" fill="#BF962E"/>
<path d="M184.465 25.3503L182.328 27.2457L172.79 26.6566L176.311 24.7997L184.465 25.3503Z" fill="#48DBD7"/>
<g style="mix-blend-mode:multiply">
<path d="M174.915 25.5426L173.889 26.0803C177.114 26.1828 180.067 26.298 183.119 26.5412L183.934 25.8243C180.932 25.7731 177.917 25.6834 174.915 25.5426Z" fill="#3DB9B5"/>
</g>
<g style="mix-blend-mode:multiply">
<path d="M177.682 26.9512L178.794 27.0281L181.401 25.1456L180.166 25.0687C179.313 25.6706 178.498 26.3109 177.682 26.9512Z" fill="#3DB9B5"/>
</g>
<path d="M175.261 25.3505L174.161 25.9394C175.249 26.029 182.81 26.3235 183.329 26.3619L183.897 25.8626C183.897 25.8626 178.004 25.4401 175.261 25.3505Z" fill="#FFF3B5"/>
<g style="mix-blend-mode:multiply">
<path d="M178.424 25.5042C178.078 25.7216 177.72 25.9135 177.361 26.0925L179.832 26.2076L180.561 25.6448L178.424 25.5042Z" fill="#E6DFBC"/>
</g>
<path d="M179.449 25.0175C178.486 25.645 177.448 26.2981 176.484 26.8744L178.35 26.9896C179.153 26.3493 180.178 25.709 181.031 25.1199L179.449 25.0175Z" fill="#FFF3B5"/>
<path d="M182.328 27.2463L182.068 36.1765L173.766 35.5743L172.79 26.657L182.328 27.2463Z" fill="#3DB9B5"/>
<g style="mix-blend-mode:multiply">
<path d="M179.239 31.142C178.004 31.2317 174.742 30.4888 173.259 31.142L173.321 31.616C173.721 31.403 174.169 31.3039 174.618 31.3286C175.068 31.3534 175.502 31.5011 175.879 31.7569C176.24 32.0695 176.675 32.2789 177.138 32.3643C177.602 32.4497 178.079 32.4081 178.523 32.2436C178.82 32.0966 179.13 31.9808 179.449 31.8978C180.088 31.7851 180.745 31.8837 181.327 32.1796C181.626 32.3054 181.902 32.483 182.143 32.7047L182.242 29.3231C182.224 29.359 182.203 29.3933 182.18 29.4256C181.828 29.9041 181.386 30.3032 180.88 30.5983C180.375 30.8935 179.816 31.0785 179.239 31.142Z" fill="#7AEBE7"/>
</g>
<g style="mix-blend-mode:multiply">
<path d="M172.79 26.657L173.21 30.4997C174.557 29.9874 176.682 30.4997 177.707 30.5766C178.606 30.7025 179.52 30.5524 180.337 30.1449C181.154 29.7373 181.838 29.0902 182.303 28.2838V27.2206L172.79 26.657Z" fill="#7AEBE7"/>
</g>
<g style="mix-blend-mode:multiply">
<path d="M179.005 33.1025C178.337 33.4356 177.398 33.9864 176.657 33.4996C175.916 33.0129 175.298 32.2187 174.483 32.3212C174.123 32.3471 173.771 32.4427 173.445 32.603V32.9232C173.589 32.8564 173.737 32.8008 173.889 32.7567C174.146 32.7164 174.407 32.7309 174.658 32.7991C174.909 32.8674 175.143 32.9881 175.347 33.1538C175.681 33.3587 175.94 33.7174 176.286 33.9095C177.188 34.3834 177.621 33.8454 178.276 33.5252C178.814 33.226 179.44 33.1442 180.034 33.2956C180.627 33.4469 181.145 33.8208 181.488 34.345C181.757 34.7273 181.946 35.1636 182.044 35.6259V34.55C181.71 33.0897 180.771 32.1931 179.005 33.1025Z" fill="#7AEBE7"/>
</g>
<g style="mix-blend-mode:multiply">
<path d="M178.819 34.4349C178.041 34.8703 177.065 35.4594 176.163 34.9856C175.496 34.627 174.458 33.4488 173.692 33.9739L173.803 34.9472C174.056 34.8352 174.336 34.804 174.606 34.8575C175.158 34.9737 175.661 35.2699 176.039 35.7027L181.278 36.0869C180.598 34.8575 179.931 33.7946 178.819 34.4349Z" fill="#7AEBE7"/>
</g>
<g style="mix-blend-mode:multiply">
<path d="M173.754 35.4089V35.5753L175.298 35.6905C175.101 35.4824 174.846 35.3432 174.569 35.2927C174.292 35.2422 174.007 35.2828 173.754 35.4089Z" fill="#7AEBE7"/>
</g>
<path d="M182.328 27.2974L172.79 26.657L173.062 29.5391C176.089 29.6287 179.14 29.6415 182.204 29.6671L182.328 27.2974Z" fill="#3DB9B5"/>
<g style="mix-blend-mode:multiply">
<path d="M182.254 29.6689C179.19 29.6689 176.076 29.6689 173.111 29.5409L173.185 30.2321C176.2 30.3004 179.215 30.4796 182.229 30.7697L182.254 29.6689Z" fill="#72DBD8"/>
</g>
<path d="M182.328 27.2974L172.79 26.657L173.136 29.7568C176.15 30.0258 179.19 30.2564 182.229 30.4613L182.328 27.2974Z" fill="#40C2BE"/>
<g style="mix-blend-mode:screen">
<path d="M182.328 27.4766V27.2461L172.79 26.657L172.815 26.9003L182.328 27.4766Z" fill="#3B706E"/>
</g>
<g style="mix-blend-mode:multiply">
<path d="M179.239 27.9367C180.148 27.8391 181.036 27.5929 181.871 27.2072L172.79 26.657V27.0921C174.631 26.0811 177.262 28.1286 179.239 27.9367Z" fill="#7AEBE7"/>
</g>
<g style="mix-blend-mode:multiply">
<path d="M178.078 28.4634C176.546 28.1051 174.297 26.7486 172.926 27.8363V28.233C173.769 27.9641 174.652 27.8558 175.533 27.9131C177.052 28.0027 178.399 29.1032 179.943 29.0136C180.739 28.9726 181.521 28.7864 182.254 28.4634V27.6316C180.986 28.3705 179.52 28.6625 178.078 28.4634Z" fill="#7AEBE7"/>
</g>
<g style="mix-blend-mode:multiply">
<path d="M173.062 28.7847L173.148 29.5781C174.414 29.3863 175.7 29.3863 176.966 29.5781C178.73 30.0066 180.572 29.9404 182.303 29.3862V29.1303C179.029 30.1284 176.175 27.9145 173.062 28.7847Z" fill="#7AEBE7"/>
</g>
<g style="mix-blend-mode:multiply">
<path d="M178.621 27.0157H177.707C177.356 29.958 177.158 32.9176 177.114 35.8819L178.634 35.9972C178.423 33.0075 178.419 30.006 178.621 27.0157Z" fill="#3DB9B5"/>
</g>
<path d="M176.484 26.8748C176.484 29.86 176.546 32.8197 176.682 35.8434L178.275 35.9587C178.325 32.9862 178.35 29.9967 178.35 26.9901L176.484 26.8748Z" fill="#FFE770"/>
</g>
<g clip-path="url(#clip1_652_12025)">
<path d="M22.3436 23.2031L21.744 36.1368L19.8718 37.6164L20.0676 24.5934L22.3436 23.2031Z" fill="#872349"/>
<g style="mix-blend-mode:screen">
<path d="M21.6951 23.5982L22.2947 24.1973V23.2031L21.6951 23.5982Z" fill="#2B0B17"/>
</g>
<g style="mix-blend-mode:screen">
<path d="M20.2023 24.4781C20.8753 25.1922 21.5238 25.9446 22.1846 26.6842L22.2457 25.2177L21.0221 23.9425L20.2023 24.4781Z" fill="#2B0B17"/>
</g>
<g style="mix-blend-mode:screen">
<path d="M19.9943 29.3241C20.6795 30.0892 21.328 30.9053 21.9521 31.7342L22.0255 30.3442C21.3647 29.6174 20.704 28.8905 20.031 28.1764L19.9943 29.3241Z" fill="#2B0B17"/>
</g>
<g style="mix-blend-mode:screen">
<path d="M19.9575 32.2717C20.5816 33.024 21.1812 33.7892 21.8175 34.5543L21.8786 33.1261C21.2546 32.2972 20.655 31.4683 19.982 30.6649L19.9575 32.2717Z" fill="#2B0B17"/>
</g>
<g style="mix-blend-mode:screen">
<path d="M19.8718 37.6148L20.5448 37.0924C20.3246 36.7994 20.1166 36.4937 19.8963 36.2134L19.8718 37.6148Z" fill="#2B0B17"/>
</g>
<g style="mix-blend-mode:screen">
<path d="M19.9086 35.0905C20.1666 35.3229 20.4041 35.5789 20.6183 35.8556L21.1812 36.5825L21.744 36.1361V35.9576C21.1322 35.2052 20.5204 34.4529 19.9208 33.7133L19.9086 35.0905Z" fill="#2B0B17"/>
</g>
<g style="mix-blend-mode:screen">
<path d="M20.031 27.1685C20.7162 27.8953 21.3892 28.6222 22.0622 29.3618L22.1357 27.7551C21.4504 27.0282 20.8019 26.1866 20.0555 25.4087L20.031 27.1685Z" fill="#2B0B17"/>
</g>
<path d="M22.1968 26.4166L20.0187 27.7425L20.0065 28.6222L22.1601 27.2708L22.1968 26.4166Z" fill="#499185"/>
<path d="M22.3436 23.2031L20.0676 24.5918H9.58105C9.78907 24.5918 13.7659 23.2031 13.7659 23.2031H22.3436Z" fill="#E376A3"/>
<g style="mix-blend-mode:multiply">
<path d="M13.0563 24.5918H13.6559C14.7823 24.0466 15.9434 23.5826 17.131 23.2031L16.7517 23.2031C15.528 23.6745 14.3044 24.1459 13.0563 24.5918Z" fill="#D44373"/>
</g>
<g style="mix-blend-mode:multiply">
<path d="M15.0018 23.2031L11.4899 23.9803C10.56 24.2987 9.66671 24.5918 9.58105 24.5918H12.3954C13.2642 24.4771 14.133 24.2223 15.014 24.0694L19.5782 23.2031H15.0018Z" fill="#FFB5E2"/>
</g>
<g style="mix-blend-mode:multiply">
<path d="M17.3268 24.592H20.0677L21.2914 23.8525L17.3268 24.592Z" fill="#FFB5E2"/>
</g>
<path d="M15.895 23.2031L12.322 24.5918H13.3621L16.9107 23.2031H15.895Z" fill="#ABFFF0"/>
<path d="M20.0676 24.5918L19.8719 37.6148L10.3397 37.1428L9.58105 24.5918H20.0676Z" fill="#A8355B"/>
<g style="mix-blend-mode:multiply">
<path d="M20.0187 28.4186C16.617 28.3038 13.2275 28.2273 9.78906 28.0999V28.5461C13.1296 28.5461 16.6047 28.6353 19.9942 28.852L20.0187 28.4186Z" fill="#D44373"/>
</g>
<g style="mix-blend-mode:multiply">
<path d="M13.5701 24.5918H12.8359C12.9705 28.8775 12.9461 33.0612 13.1541 37.3469H13.9984C13.7781 32.9974 13.46 28.9796 13.5701 24.5918Z" fill="#D44373"/>
</g>
<g style="mix-blend-mode:screen">
<path d="M20.0676 24.9869V24.5918H9.58105L9.59329 24.9869H20.0676Z" fill="#692139"/>
</g>
<g style="mix-blend-mode:screen">
<path d="M9.58105 24.5918L9.70342 26.6189C10.3275 25.9432 10.9271 25.2675 11.6123 24.5918H9.58105Z" fill="#26171C"/>
</g>
<g style="mix-blend-mode:screen">
<path d="M14.8182 24.7703L15.014 24.5918H13.0439C11.9427 25.7522 10.8536 26.8744 9.78906 28.0221L9.85024 29.2973L9.94814 29.208C11.5633 27.6778 13.1908 26.2241 14.8182 24.7703Z" fill="#26171C"/>
</g>
<g style="mix-blend-mode:screen">
<path d="M18.7583 24.5918H16.6414L14.757 26.2755C13.2887 27.551 11.7958 28.9158 10.3397 30.2678L9.93591 30.6505L10.046 32.2959C10.9638 31.4285 11.8693 30.5612 12.7992 29.7449C14.6836 27.9081 16.7883 26.3137 18.7583 24.5918Z" fill="#26171C"/>
</g>
<g style="mix-blend-mode:screen">
<path d="M13.4601 33.9301L10.3031 36.5704V37.1317L12.42 37.2465C14.9774 34.9505 17.4614 32.5781 19.9576 30.2056V28.3944L18.8074 29.3638C17.0453 30.8561 15.2711 32.4123 13.4601 33.9301Z" fill="#26171C"/>
</g>
<g style="mix-blend-mode:screen">
<path d="M19.8719 37.6156V34.6699C18.8563 35.6136 17.8284 36.5572 16.7883 37.4626L19.8719 37.6156Z" fill="#26171C"/>
</g>
<g style="mix-blend-mode:screen">
<path d="M15.5891 37.3996L16.8862 36.2772C17.914 35.3588 18.9297 34.4277 19.933 33.471V31.2899C17.8039 33.318 15.6748 35.3333 13.4967 37.2976L15.5891 37.3996Z" fill="#26171C"/>
</g>
<g style="mix-blend-mode:screen">
<path d="M13.0929 30.8543L10.1195 33.5967L10.2174 35.2548L13.1419 32.8186C15.3812 30.9181 17.8407 29.1069 20.031 27.0278V24.7446C17.7917 26.8365 15.3322 28.686 13.0929 30.8543Z" fill="#26171C"/>
</g>
<path d="M20.0188 27.7427C16.6048 27.7427 13.1786 27.7427 9.75244 27.4751V28.3798C13.1786 28.4818 16.5803 28.5455 19.9576 28.622L20.0188 27.7427Z" fill="#87C9BE"/>
<g style="mix-blend-mode:multiply">
<path d="M12.7993 27.6281H12.2487C12.2487 27.9085 12.2487 28.189 12.2487 28.4695H12.7871L12.7993 27.6281Z" fill="#D3EBE7"/>
</g>
<g style="mix-blend-mode:multiply">
<path d="M13.6314 27.6664H13.1174C13.1174 27.9341 13.1174 28.2146 13.1174 28.4951H13.6314C13.6436 28.2018 13.6314 27.9341 13.6314 27.6664Z" fill="#87C9BE"/>
</g>
<path d="M12.322 24.5919C12.4566 28.8521 12.5178 33.0357 12.6035 37.2449L13.668 37.3087C13.5824 33.0612 13.3988 28.7883 13.3621 24.5536L12.322 24.5919Z" fill="#87C9BE"/>
<g style="mix-blend-mode:screen">
<path d="M13.3621 24.935V24.5918H12.322C12.3281 24.7061 12.3281 24.8207 12.322 24.935H13.3621Z" fill="#87C9BE"/>
</g>
<path d="M10.3397 33.0879L8.51652 34.26L0 33.9033L3.15699 32.7567L10.3397 33.0879Z" fill="#E8E22E"/>
<g style="mix-blend-mode:multiply">
<path d="M8.24733 32.9863L5.89795 34.1459H6.59542C7.20724 33.7211 7.84353 33.3261 8.5043 32.9608L8.24733 32.9863Z" fill="#B4BF3D"/>
</g>
<g style="mix-blend-mode:multiply">
<path d="M4.11146 32.795C3.27939 33.2027 2.44731 33.5978 1.66418 33.9673H2.76546L4.88235 32.7822L4.11146 32.795Z" fill="#EDE97B"/>
</g>
<g style="mix-blend-mode:multiply">
<path d="M5.86121 32.8842L5.46965 33.0881L3.6709 34.0565H4.57639C5.24939 33.6488 5.93463 33.2537 6.61987 32.8715L5.86121 32.8842Z" fill="#EDE97B"/>
</g>
<g style="mix-blend-mode:multiply">
<path d="M7.34178 32.948L5.2616 34.1203L6.95022 34.1968C7.63545 33.789 8.33293 33.4067 9.01817 33.0245L7.34178 32.948Z" fill="#EDE97B"/>
</g>
<g style="mix-blend-mode:multiply">
<path d="M9.93598 33.0756C9.22628 33.4069 8.56551 33.8274 7.81909 34.2352H8.51657L10.3398 33.0629L9.93598 33.0756Z" fill="#EDE97B"/>
</g>
<path d="M7.18271 32.9353C6.44853 33.3303 5.71435 33.7126 5.00464 34.1076H6.36288C7.03588 33.6999 7.69664 33.3048 8.38188 32.9353H7.18271Z" fill="#F577A2"/>
<path d="M10.3397 33.0884L10.3152 38.2287L8.60213 40.3843L8.51648 34.2618L10.3397 33.0884Z" fill="#819920"/>
<g style="mix-blend-mode:screen">
<path d="M10.3397 33.1648V33.0884L8.51648 34.2604V34.3751L10.3397 33.1648Z" fill="#2D360B"/>
</g>
<g style="mix-blend-mode:multiply">
<path d="M10.3275 36.7872C9.78907 37.3227 9.17725 37.8582 8.56543 38.3809V39.0821C9.14054 38.4956 9.78907 37.9219 10.303 37.3737L10.3275 36.7872Z" fill="#B4BF3D"/>
</g>
<g style="mix-blend-mode:multiply">
<path d="M8.56543 34.2618V40.3843L8.87134 39.9889C8.87134 39.7465 8.87134 39.5169 8.87134 39.3001C8.87134 37.5526 8.87134 35.8052 8.78568 34.0577L8.56543 34.2618Z" fill="#DCE6B8"/>
</g>
<g style="mix-blend-mode:multiply">
<path d="M10.1439 33.2159C10.1439 34.8609 10.2296 36.5314 10.3152 38.1892V33.0884L10.1439 33.2159Z" fill="#DCE6B8"/>
</g>
<g style="mix-blend-mode:multiply">
<path d="M9.38525 33.7133C9.38525 35.2185 9.45867 36.7108 9.45867 38.2159V39.3001L9.96036 38.6623C9.86247 36.9276 9.78905 35.1802 9.78905 33.4072L9.38525 33.7133Z" fill="#DCE6B8"/>
</g>
<path d="M8.56543 37.8838V39.057L10.3397 37.2335V36.0858C9.78907 36.5959 9.07936 37.3355 8.56543 37.8838Z" fill="#873651"/>
<path d="M8.51652 34.2618L8.60218 40.3843L0.599583 39.9506L0 33.9047L8.51652 34.2618Z" fill="#B4BF3D"/>
<g style="mix-blend-mode:screen">
<path d="M8.51652 34.3888V34.2614L0 33.9047L0.0122364 34.0193L8.51652 34.3888Z" fill="#838C1D"/>
</g>
<g style="mix-blend-mode:multiply">
<path d="M5.89795 34.147C5.89795 36.2005 5.99584 38.2414 6.13044 40.2567H6.73002C6.6199 38.2158 6.54648 36.1878 6.44859 34.147H5.89795Z" fill="#B4BF3D"/>
</g>
<g style="mix-blend-mode:screen">
<path d="M7.48867 34.2235H6.71777C6.71777 35.8689 6.8279 37.5398 6.92579 39.147C6.92579 39.5424 6.92579 39.9378 6.92579 40.3332H7.5009C7.53761 38.2924 7.65997 36.2516 7.48867 34.2235Z" fill="#494F0B"/>
</g>
<g style="mix-blend-mode:screen">
<path d="M8.56547 34.2618H8.29626C8.43087 36.1368 8.29626 38.0118 8.29626 39.9124C8.29626 40.0654 8.29626 40.2185 8.29626 40.3715H8.56547V34.2618Z" fill="#494F0B"/>
</g>
<g style="mix-blend-mode:screen">
<path d="M5.94693 34.1598L4.3562 34.0833C4.3562 35.5373 4.53975 36.9787 4.68658 38.4327C4.68658 39.0195 4.80895 39.5935 4.85789 40.1802L6.19166 40.2567C6.19166 39.8741 6.19166 39.4914 6.19166 39.1088C6.04482 37.4761 5.89799 35.8052 5.94693 34.1598Z" fill="#494F0B"/>
</g>
<g style="mix-blend-mode:screen">
<path d="M3.5363 34.045L2.44727 34.0067V34.147C2.60634 35.7797 2.70423 37.4251 2.88778 39.0705L2.9979 40.0781H4.01352V39.9761C3.82998 38.0373 3.6709 36.0475 3.5363 34.045Z" fill="#494F0B"/>
</g>
<g style="mix-blend-mode:screen">
<path d="M0 33.9047L0.599583 39.9506H1.82322C1.60297 37.999 1.40718 35.9582 1.22364 33.9557L0 33.9047Z" fill="#494F0B"/>
</g>
<path d="M8.5655 37.8454C5.83679 37.6416 3.10807 37.4632 0.342651 37.3995L0.465015 38.5716C3.14478 38.7117 5.86126 38.8773 8.57774 39.0557L8.5655 37.8454Z" fill="#A8526F"/>
<g style="mix-blend-mode:multiply">
<path d="M4.89453 37.5908C4.89453 37.9986 4.89453 38.4064 4.89453 38.8651H5.77555C5.77555 38.4573 5.77555 38.0496 5.77555 37.5908H4.89453Z" fill="#F2DCE4"/>
</g>
<g style="mix-blend-mode:multiply">
<path d="M6.63209 37.7057H5.81226C5.81226 38.1135 5.81226 38.5212 5.81226 38.98H6.60762L6.63209 37.7057Z" fill="#A8526F"/>
</g>
<path d="M5.00464 34.1088C5.00464 36.1368 5.127 38.1649 5.28608 40.2057L6.50971 40.2695C6.42406 38.2414 6.38735 36.2006 6.37511 34.1725L5.00464 34.1088Z" fill="#A8526F"/>
<path d="M18.6728 33.2541L16.1398 35.4087L10.3153 35.2812L13.1664 33.1266L18.6728 33.2541Z" fill="#FFEB5A"/>
<g style="mix-blend-mode:multiply">
<path d="M13.46 33.2924C13.2765 33.2924 13.1052 33.4067 13.3009 33.4067C13.4967 33.4067 13.6803 33.2924 13.46 33.2924Z" fill="#FFEBC4"/>
</g>
<g style="mix-blend-mode:multiply">
<path d="M14.6836 33.3179C14.5 33.3179 14.341 33.4323 14.5245 33.4323C14.7081 33.4323 14.806 33.3306 14.6836 33.3179Z" fill="#FFEBC4"/>
</g>
<g style="mix-blend-mode:multiply">
<path d="M15.7361 33.4072C15.5648 33.4072 15.4057 33.521 15.5892 33.5336C15.7728 33.5462 15.9074 33.4072 15.7361 33.4072Z" fill="#FFEBC4"/>
</g>
<g style="mix-blend-mode:multiply">
<path d="M16.8372 33.4072C16.6659 33.4072 16.5191 33.5089 16.6904 33.5216C16.8617 33.5343 17.0208 33.4072 16.8372 33.4072Z" fill="#FFEBC4"/>
</g>
<g style="mix-blend-mode:multiply">
<path d="M17.9263 33.4072C17.755 33.4072 17.6081 33.5089 17.7917 33.5216C17.9752 33.5343 18.0976 33.4072 17.9263 33.4072Z" fill="#FFEBC4"/>
</g>
<g style="mix-blend-mode:multiply">
<path d="M12.9339 33.7006C12.7504 33.7006 12.5791 33.827 12.7626 33.827C12.9461 33.827 13.1297 33.7132 12.9339 33.7006Z" fill="#FFEBC4"/>
</g>
<g style="mix-blend-mode:multiply">
<path d="M14.0841 33.7261C13.9006 33.7261 13.7415 33.8525 13.925 33.8525C14.1086 33.8525 14.2677 33.7387 14.0841 33.7261Z" fill="#FFEBC4"/>
</g>
<g style="mix-blend-mode:multiply">
<path d="M15.222 33.7516C15.0385 33.7516 14.8794 33.878 15.063 33.878C15.2465 33.878 15.4056 33.7642 15.222 33.7516Z" fill="#FFEBC4"/>
</g>
<g style="mix-blend-mode:multiply">
<path d="M16.3478 33.7771C16.1642 33.7771 16.0174 33.9035 16.2009 33.9035C16.3845 33.9035 16.5313 33.7897 16.3478 33.7771Z" fill="#FFEBC4"/>
</g>
<g style="mix-blend-mode:multiply">
<path d="M17.4613 33.8026C17.2777 33.8026 17.1309 33.929 17.3145 33.929C17.498 33.929 17.6326 33.8153 17.4613 33.8026Z" fill="#FFEBC4"/>
</g>
<g style="mix-blend-mode:multiply">
<path d="M12.371 34.1216C12.1875 34.1216 12.0039 34.248 12.1875 34.248C12.371 34.248 12.5668 34.1216 12.371 34.1216Z" fill="#FFEBC4"/>
</g>
<g style="mix-blend-mode:multiply">
<path d="M13.5334 34.1598C13.3498 34.1598 13.1785 34.2742 13.3621 34.2742C13.5456 34.2742 13.7292 34.1598 13.5334 34.1598Z" fill="#FFEBC4"/>
</g>
<g style="mix-blend-mode:multiply">
<path d="M14.6837 34.1853C14.488 34.1853 14.3289 34.299 14.5124 34.3117C14.696 34.3243 14.8795 34.1853 14.6837 34.1853Z" fill="#FFEBC4"/>
</g>
<g style="mix-blend-mode:multiply">
<path d="M15.8339 34.2108C15.6504 34.2108 15.4791 34.3372 15.6626 34.3372C15.8462 34.3372 16.0175 34.2108 15.8339 34.2108Z" fill="#FFEBC4"/>
</g>
<g style="mix-blend-mode:multiply">
<path d="M16.9474 34.2363C16.7761 34.2363 16.617 34.3628 16.8005 34.3628C16.9841 34.3628 17.1309 34.249 16.9474 34.2363Z" fill="#FFEBC4"/>
</g>
<g style="mix-blend-mode:multiply">
<path d="M11.7958 34.5552C11.6 34.5552 11.4042 34.6816 11.6 34.6816C11.7958 34.6816 11.9793 34.5552 11.7958 34.5552Z" fill="#FFEBC4"/>
</g>
<g style="mix-blend-mode:multiply">
<path d="M12.9705 34.5934C12.787 34.5934 12.5912 34.7198 12.787 34.7198C12.9828 34.7198 13.1663 34.5934 12.9705 34.5934Z" fill="#FFEBC4"/>
</g>
<g style="mix-blend-mode:multiply">
<path d="M14.133 34.6827C13.9495 34.6827 13.7659 34.7965 13.9617 34.8091C14.1575 34.8217 14.3288 34.6827 14.133 34.6827Z" fill="#FFEBC4"/>
</g>
<g style="mix-blend-mode:multiply">
<path d="M15.2833 34.6827C15.0997 34.6827 14.9284 34.8092 15.112 34.8092C15.2955 34.8092 15.4668 34.6827 15.2833 34.6827Z" fill="#FFEBC4"/>
</g>
<g style="mix-blend-mode:multiply">
<path d="M16.4213 34.6827C16.2377 34.6827 16.0786 34.8092 16.2622 34.8092C16.4457 34.8092 16.6048 34.6827 16.4213 34.6827Z" fill="#FFEBC4"/>
</g>
<g style="mix-blend-mode:multiply">
<path d="M11.1841 35.0016C11.0006 35.0016 10.7926 35.1279 10.9883 35.1405C11.1841 35.1532 11.3799 35.0142 11.1841 35.0016Z" fill="#FFEBC4"/>
</g>
<g style="mix-blend-mode:multiply">
<path d="M12.3832 35.0398C12.1874 35.0398 11.9916 35.1661 12.1874 35.1787C12.3832 35.1914 12.579 35.0524 12.3832 35.0398Z" fill="#FFEBC4"/>
</g>
<g style="mix-blend-mode:multiply">
<path d="M13.5579 35.0781C13.3744 35.0781 13.1786 35.2171 13.3744 35.2171C13.5702 35.2171 13.7537 35.0908 13.5579 35.0781Z" fill="#FFEBC4"/>
</g>
<g style="mix-blend-mode:multiply">
<path d="M14.6836 35.1292C14.4878 35.1292 14.3043 35.2556 14.5001 35.2556C14.6959 35.2556 14.9161 35.1292 14.6836 35.1292Z" fill="#FFEBC4"/>
</g>
<g style="mix-blend-mode:multiply">
<path d="M15.9073 35.1675C15.7238 35.1675 15.5402 35.2939 15.736 35.2939C15.9318 35.2939 16.0664 35.1675 15.9073 35.1675Z" fill="#FFEBC4"/>
</g>
<g style="mix-blend-mode:multiply">
<path d="M17.4981 34.2611C15.7202 33.9484 13.9149 33.8374 12.114 33.9301L11.7959 34.172C13.5457 34.3121 15.3567 34.4394 17.1677 34.5413L17.4981 34.2611Z" fill="#FFD073"/>
</g>
<g style="mix-blend-mode:multiply">
<path d="M16.0174 33.1904C15.0385 33.9426 14.0718 34.6947 13.1051 35.3449H13.8882C14.6836 34.6183 15.4912 33.8916 16.3355 33.1776L16.0174 33.1904Z" fill="#FFD073"/>
</g>
<path d="M17.7795 34.0193C15.957 33.8474 14.1274 33.7708 12.2976 33.7898L11.7592 34.185C13.8516 34.185 15.4301 34.389 17.1921 34.5165L17.7795 34.0193Z" fill="#9CBF0C"/>
<g style="mix-blend-mode:multiply">
<path d="M13.8149 34.2614L15.112 34.3506L15.6749 33.8665H14.3411C14.182 33.9556 13.9985 34.1085 13.8149 34.2614Z" fill="#C1DE49"/>
</g>
<path d="M15.1854 33.1777C14.3411 33.9044 13.4723 34.6311 12.6157 35.3323H13.6925C14.5246 34.5801 15.3322 33.8661 16.1398 33.1649L15.1854 33.1777Z" fill="#9CBF0C"/>
<path d="M18.6728 33.2542L18.3301 40.7414L16.1154 43.2031L16.1398 35.4098L18.6728 33.2542Z" fill="#EA9D2D"/>
<path d="M18.6727 33.2542L16.1398 35.4098V41.2899C16.874 40.5246 17.6448 39.7975 18.428 39.1087L18.6727 33.2542Z" fill="#EA9D2D"/>
<g style="mix-blend-mode:multiply">
<path d="M16.4213 35.8052C16.2867 35.8052 16.2744 36.1218 16.4213 36.1218C16.5681 36.1218 16.5436 35.8052 16.4213 35.8052Z" fill="#FFD073"/>
</g>
<g style="mix-blend-mode:multiply">
<path d="M17.0576 35.2057C16.9474 35.2057 16.923 35.5097 17.0576 35.5224C17.1922 35.535 17.131 35.2057 17.0576 35.2057Z" fill="#FFD073"/>
</g>
<g style="mix-blend-mode:multiply">
<path d="M17.8652 34.4531C17.7551 34.4531 17.7306 34.7445 17.8652 34.7571C17.9998 34.7698 17.9753 34.4531 17.8652 34.4531Z" fill="#FFD073"/>
</g>
<g style="mix-blend-mode:multiply">
<path d="M18.4403 33.9557C18.3424 33.9557 18.3179 34.247 18.4403 34.2597C18.5626 34.2724 18.5504 33.9684 18.4403 33.9557Z" fill="#FFD073"/>
</g>
<g style="mix-blend-mode:multiply">
<path d="M16.4212 37.0042C16.2989 37.0042 16.2866 37.2955 16.4212 37.2955C16.5558 37.2955 16.5436 36.9915 16.4212 37.0042Z" fill="#FFD073"/>
</g>
<g style="mix-blend-mode:multiply">
<path d="M17.0575 36.4047C16.9351 36.4047 16.9229 36.696 17.0575 36.696C17.1921 36.696 17.1309 36.4047 17.0575 36.4047Z" fill="#FFD073"/>
</g>
<g style="mix-blend-mode:multiply">
<path d="M17.8285 35.6521C17.7306 35.6521 17.7061 35.9434 17.8285 35.9434C17.9508 35.9434 17.9386 35.6521 17.8285 35.6521Z" fill="#FFD073"/>
</g>
<g style="mix-blend-mode:multiply">
<path d="M18.3546 35.1675C18.2567 35.1675 18.22 35.4461 18.3546 35.4461C18.4892 35.4461 18.5014 35.1675 18.3546 35.1675Z" fill="#FFD073"/>
</g>
<g style="mix-blend-mode:multiply">
<path d="M16.4212 38.0883C16.2989 38.0883 16.2744 38.3679 16.4212 38.3552C16.5681 38.3425 16.5314 38.0756 16.4212 38.0883Z" fill="#FFD073"/>
</g>
<g style="mix-blend-mode:multiply">
<path d="M17.0453 37.5016C16.9352 37.5016 16.8985 37.7929 17.0453 37.7802C17.1922 37.7676 17.131 37.5016 17.0453 37.5016Z" fill="#FFD073"/>
</g>
<g style="mix-blend-mode:multiply">
<path d="M17.8161 36.7872C17.7182 36.7872 17.6815 37.0668 17.8161 37.0541C17.9507 37.0413 17.914 36.7872 17.8161 36.7872Z" fill="#FFD073"/>
</g>
<g style="mix-blend-mode:multiply">
<path d="M18.3546 36.3154C18.2567 36.3154 18.22 36.5823 18.3546 36.5823C18.4892 36.5823 18.4769 36.3154 18.3546 36.3154Z" fill="#FFD073"/>
</g>
<g style="mix-blend-mode:multiply">
<path d="M16.409 39.2107C16.2867 39.2107 16.2622 39.4902 16.409 39.4648C16.5559 39.4394 16.5191 39.198 16.409 39.2107Z" fill="#FFD073"/>
</g>
<g style="mix-blend-mode:multiply">
<path d="M17.0085 38.6368C16.8984 38.6368 16.8739 38.9036 17.0085 38.8909C17.1431 38.8782 17.1309 38.6241 17.0085 38.6368Z" fill="#FFD073"/>
</g>
<g style="mix-blend-mode:multiply">
<path d="M17.755 37.9097C17.6571 37.9097 17.6326 38.1639 17.755 38.1639C17.8773 38.1639 17.8529 37.897 17.755 37.9097Z" fill="#FFD073"/>
</g>
<g style="mix-blend-mode:multiply">
<path d="M18.3546 37.425C18.2567 37.425 18.22 37.6792 18.3546 37.6792C18.4892 37.6792 18.3546 37.425 18.3546 37.425Z" fill="#FFD073"/>
</g>
<g style="mix-blend-mode:multiply">
<path d="M16.409 40.3332C16.2989 40.3332 16.2744 40.6128 16.409 40.5874C16.5436 40.562 16.5191 40.3205 16.409 40.3332Z" fill="#FFD073"/>
</g>
<g style="mix-blend-mode:multiply">
<path d="M16.9841 39.7848C16.8862 39.7848 16.8617 40.0389 16.9841 40.0262C17.1065 40.0135 17.1309 39.7848 16.9841 39.7848Z" fill="#FFD073"/>
</g>
<g style="mix-blend-mode:multiply">
<path d="M17.706 39.0321C17.6204 39.0321 17.5837 39.2862 17.706 39.2608C17.8284 39.2354 17.8039 39.0067 17.706 39.0321Z" fill="#FFD073"/>
</g>
<g style="mix-blend-mode:multiply">
<path d="M18.2445 38.5093C18.1466 38.5093 18.1099 38.7634 18.2445 38.7507C18.3791 38.738 18.3546 38.5093 18.2445 38.5093Z" fill="#FFD073"/>
</g>
<path d="M16.1154 41.2894V43.2022L18.3546 40.741V39.1088C17.6204 39.7846 16.8495 40.5242 16.1154 41.2894Z" fill="#E08A0B"/>
<g style="mix-blend-mode:multiply">
<path d="M18.3546 39.3127V39.1088C17.5715 39.7972 16.8006 40.5239 16.0664 41.2888V41.5693C16.7677 40.7523 17.5331 39.9975 18.3546 39.3127Z" fill="#FFD073"/>
</g>
<g style="mix-blend-mode:screen">
<path d="M16.1398 35.5501L18.6728 33.3945V33.2542L16.1398 35.4098L16.1154 43.2031L16.1398 35.5501Z" fill="#38260B"/>
</g>
<path d="M16.1398 35.4098L16.1154 43.2031L11.0495 42.8333L10.3153 35.2822L16.1398 35.4098Z" fill="#FFD039"/>
<path d="M10.3153 35.2822L10.8659 40.9838C12.6035 41.2006 14.3655 41.3026 16.1154 41.3409V35.4098L10.3153 35.2822Z" fill="#FFD039"/>
<g style="mix-blend-mode:multiply">
<path d="M10.7435 35.7925C10.7161 35.8014 10.6922 35.8191 10.6752 35.8431C10.6582 35.8671 10.649 35.8961 10.649 35.9259C10.649 35.9557 10.6582 35.9847 10.6752 36.0087C10.6922 36.0327 10.7161 36.0504 10.7435 36.0593C10.7709 36.0504 10.7948 36.0327 10.8118 36.0087C10.8288 35.9847 10.838 35.9557 10.838 35.9259C10.838 35.8961 10.8288 35.8671 10.8118 35.8431C10.7948 35.8191 10.7709 35.8014 10.7435 35.7925Z" fill="#FFE6B5"/>
</g>
<g style="mix-blend-mode:multiply">
<path d="M11.7592 35.818C11.7318 35.8269 11.7078 35.8446 11.6908 35.8686C11.6738 35.8926 11.6647 35.9216 11.6647 35.9514C11.6647 35.9812 11.6738 36.0102 11.6908 36.0342C11.7078 36.0582 11.7318 36.0759 11.7592 36.0848C11.7865 36.0759 11.8105 36.0582 11.8275 36.0342C11.8445 36.0102 11.8536 35.9812 11.8536 35.9514C11.8536 35.9216 11.8445 35.8926 11.8275 35.8686C11.8105 35.8446 11.7865 35.8269 11.7592 35.818Z" fill="#FFE6B5"/>
</g>
<g style="mix-blend-mode:multiply">
<path d="M12.7748 35.8435C12.7474 35.8524 12.7235 35.8701 12.7065 35.8941C12.6895 35.9181 12.6803 35.9471 12.6803 35.9769C12.6803 36.0067 12.6895 36.0357 12.7065 36.0597C12.7235 36.0837 12.7474 36.1014 12.7748 36.1103C12.9338 36.1103 12.9338 35.8562 12.7748 35.8435Z" fill="#FFE6B5"/>
</g>
<g style="mix-blend-mode:multiply">
<path d="M13.7905 35.8817C13.758 35.8817 13.7269 35.8951 13.7039 35.9189C13.681 35.9428 13.6681 35.9751 13.6681 36.0088C13.6681 36.0425 13.681 36.0748 13.7039 36.0986C13.7269 36.1224 13.758 36.1358 13.7905 36.1358C13.8229 36.1358 13.854 36.1224 13.877 36.0986C13.8999 36.0748 13.9128 36.0425 13.9128 36.0088C13.9128 35.9751 13.8999 35.9428 13.877 35.9189C13.854 35.8951 13.8229 35.8817 13.7905 35.8817Z" fill="#FFE6B5"/>
</g>
<g style="mix-blend-mode:multiply">
<path d="M14.806 35.9583C14.7786 35.9671 14.7547 35.9849 14.7377 36.0089C14.7207 36.0329 14.7115 36.0619 14.7115 36.0917C14.7115 36.1215 14.7207 36.1505 14.7377 36.1745C14.7547 36.1985 14.7786 36.2162 14.806 36.2251C14.8334 36.2162 14.8574 36.1985 14.8743 36.1745C14.8913 36.1505 14.9005 36.1215 14.9005 36.0917C14.9005 36.0619 14.8913 36.0329 14.8743 36.0089C14.8574 35.9849 14.8334 35.9671 14.806 35.9583Z" fill="#FFE6B5"/>
</g>
<g style="mix-blend-mode:multiply">
<path d="M15.8217 35.9583C15.7943 35.9671 15.7703 35.9849 15.7533 36.0089C15.7363 36.0329 15.7272 36.0619 15.7272 36.0917C15.7272 36.1215 15.7363 36.1505 15.7533 36.1745C15.7703 36.1985 15.7943 36.2162 15.8217 36.2251C15.849 36.2162 15.873 36.1985 15.89 36.1745C15.907 36.1505 15.9161 36.1215 15.9161 36.0917C15.9161 36.0619 15.907 36.0329 15.89 36.0089C15.873 35.9849 15.849 35.9671 15.8217 35.9583Z" fill="#FFE6B5"/>
</g>
<g style="mix-blend-mode:multiply">
<path d="M10.7435 36.7108C10.7161 36.7197 10.6922 36.7374 10.6752 36.7614C10.6582 36.7854 10.649 36.8144 10.649 36.8442C10.649 36.874 10.6582 36.903 10.6752 36.927C10.6922 36.951 10.7161 36.9688 10.7435 36.9776C10.7709 36.9688 10.7948 36.951 10.8118 36.927C10.8288 36.903 10.838 36.874 10.838 36.8442C10.838 36.8144 10.8288 36.7854 10.8118 36.7614C10.7948 36.7374 10.7709 36.7197 10.7435 36.7108Z" fill="#FFE6B5"/>
</g>
<g style="mix-blend-mode:multiply">
<path d="M11.7592 36.7363C11.7318 36.7452 11.7078 36.7629 11.6908 36.7869C11.6738 36.8109 11.6647 36.8399 11.6647 36.8697C11.6647 36.8995 11.6738 36.9285 11.6908 36.9525C11.7078 36.9765 11.7318 36.9943 11.7592 37.0031C11.7865 36.9943 11.8105 36.9765 11.8275 36.9525C11.8445 36.9285 11.8536 36.8995 11.8536 36.8697C11.8536 36.8399 11.8445 36.8109 11.8275 36.7869C11.8105 36.7629 11.7865 36.7452 11.7592 36.7363Z" fill="#FFE6B5"/>
</g>
<g style="mix-blend-mode:multiply">
<path d="M12.7748 36.7617C12.7474 36.7706 12.7235 36.7883 12.7065 36.8123C12.6895 36.8363 12.6803 36.8653 12.6803 36.8951C12.6803 36.9249 12.6895 36.9539 12.7065 36.9779C12.7235 37.0019 12.7474 37.0197 12.7748 37.0285C12.8022 37.0197 12.8261 37.0019 12.8431 36.9779C12.8601 36.9539 12.8693 36.9249 12.8693 36.8951C12.8693 36.8653 12.8601 36.8363 12.8431 36.8123C12.8261 36.7883 12.8022 36.7706 12.7748 36.7617Z" fill="#FFE6B5"/>
</g>
<g style="mix-blend-mode:multiply">
<path d="M13.7904 36.7872C13.763 36.7961 13.7391 36.8138 13.7221 36.8378C13.7051 36.8618 13.6959 36.8909 13.6959 36.9206C13.6959 36.9504 13.7051 36.9794 13.7221 37.0034C13.7391 37.0274 13.763 37.0452 13.7904 37.0541C13.8178 37.0452 13.8417 37.0274 13.8587 37.0034C13.8757 36.9794 13.8849 36.9504 13.8849 36.9206C13.8849 36.8909 13.8757 36.8618 13.8587 36.8378C13.8417 36.8138 13.8178 36.7961 13.7904 36.7872Z" fill="#FFE6B5"/>
</g>
<g style="mix-blend-mode:multiply">
<path d="M14.8061 36.8256C14.79 36.8256 14.7741 36.8288 14.7593 36.8352C14.7444 36.8416 14.7309 36.851 14.7196 36.8628C14.7082 36.8746 14.6992 36.8886 14.693 36.904C14.6869 36.9194 14.6837 36.9359 14.6837 36.9526C14.6837 36.9693 14.6869 36.9858 14.693 37.0012C14.6992 37.0167 14.7082 37.0307 14.7196 37.0425C14.7309 37.0543 14.7444 37.0636 14.7593 37.07C14.7741 37.0764 14.79 37.0797 14.8061 37.0797C14.8222 37.0797 14.8381 37.0764 14.8529 37.07C14.8678 37.0636 14.8812 37.0543 14.8926 37.0425C14.904 37.0307 14.913 37.0167 14.9191 37.0012C14.9253 36.9858 14.9284 36.9693 14.9284 36.9526C14.9284 36.9359 14.9253 36.9194 14.9191 36.904C14.913 36.8886 14.904 36.8746 14.8926 36.8628C14.8812 36.851 14.8678 36.8416 14.8529 36.8352C14.8381 36.8288 14.8222 36.8256 14.8061 36.8256Z" fill="#FFE6B5"/>
</g>
<g style="mix-blend-mode:multiply">
<path d="M15.8217 36.8511C15.6626 36.8511 15.6626 37.1052 15.8217 37.1179C15.8491 37.109 15.873 37.0913 15.89 37.0673C15.907 37.0433 15.9162 37.0143 15.9162 36.9845C15.9162 36.9547 15.907 36.9257 15.89 36.9017C15.873 36.8777 15.8491 36.86 15.8217 36.8511Z" fill="#FFE6B5"/>
</g>
<g style="mix-blend-mode:multiply">
<path d="M10.7435 37.6165C10.7161 37.6253 10.6922 37.6431 10.6752 37.6671C10.6582 37.6911 10.649 37.7201 10.649 37.7499C10.649 37.7797 10.6582 37.8087 10.6752 37.8327C10.6922 37.8567 10.7161 37.8744 10.7435 37.8833C10.7709 37.8744 10.7948 37.8567 10.8118 37.8327C10.8288 37.8087 10.838 37.7797 10.838 37.7499C10.838 37.7201 10.8288 37.6911 10.8118 37.6671C10.7948 37.6431 10.7709 37.6253 10.7435 37.6165Z" fill="#FFE6B5"/>
</g>
<g style="mix-blend-mode:multiply">
<path d="M11.7592 37.6547C11.7268 37.6547 11.6956 37.668 11.6727 37.6919C11.6497 37.7157 11.6368 37.748 11.6368 37.7817C11.6368 37.8154 11.6497 37.8477 11.6727 37.8716C11.6956 37.8954 11.7268 37.9088 11.7592 37.9088C11.9183 37.9215 11.9183 37.6547 11.7592 37.6547Z" fill="#FFE6B5"/>
</g>
<g style="mix-blend-mode:multiply">
<path d="M12.7748 37.6802C12.7474 37.6891 12.7235 37.7068 12.7065 37.7308C12.6895 37.7548 12.6803 37.7838 12.6803 37.8136C12.6803 37.8434 12.6895 37.8724 12.7065 37.8964C12.7235 37.9204 12.7474 37.9381 12.7748 37.947C12.8022 37.9381 12.8261 37.9204 12.8431 37.8964C12.8601 37.8724 12.8693 37.8434 12.8693 37.8136C12.8693 37.7838 12.8601 37.7548 12.8431 37.7308C12.8261 37.7068 12.8022 37.6891 12.7748 37.6802Z" fill="#FFE6B5"/>
</g>
<g style="mix-blend-mode:multiply">
<path d="M13.7904 37.7057C13.763 37.7146 13.7391 37.7323 13.7221 37.7563C13.7051 37.7803 13.6959 37.8093 13.6959 37.8391C13.6959 37.8689 13.7051 37.8979 13.7221 37.9219C13.7391 37.9459 13.763 37.9636 13.7904 37.9725C13.8178 37.9636 13.8417 37.9459 13.8587 37.9219C13.8757 37.8979 13.8849 37.8689 13.8849 37.8391C13.8849 37.8093 13.8757 37.7803 13.8587 37.7563C13.8417 37.7323 13.8178 37.7146 13.7904 37.7057Z" fill="#FFE6B5"/>
</g>
<g style="mix-blend-mode:multiply">
<path d="M14.806 37.7312C14.7786 37.7401 14.7547 37.7578 14.7377 37.7818C14.7207 37.8058 14.7115 37.8348 14.7115 37.8646C14.7115 37.8944 14.7207 37.9234 14.7377 37.9474C14.7547 37.9714 14.7786 37.9891 14.806 37.998C14.8334 37.9891 14.8574 37.9714 14.8743 37.9474C14.8913 37.9234 14.9005 37.8944 14.9005 37.8646C14.9005 37.8348 14.8913 37.8058 14.8743 37.7818C14.8574 37.7578 14.8334 37.7401 14.806 37.7312Z" fill="#FFE6B5"/>
</g>
<g style="mix-blend-mode:multiply">
<path d="M15.8217 37.7567C15.7943 37.7656 15.7703 37.7833 15.7533 37.8073C15.7363 37.8313 15.7272 37.8603 15.7272 37.8901C15.7272 37.9199 15.7363 37.9489 15.7533 37.9729C15.7703 37.9969 15.7943 38.0147 15.8217 38.0235C15.849 38.0147 15.873 37.9969 15.89 37.9729C15.907 37.9489 15.9161 37.9199 15.9161 37.8901C15.9161 37.8603 15.907 37.8313 15.89 37.8073C15.873 37.7833 15.849 37.7656 15.8217 37.7567Z" fill="#FFE6B5"/>
</g>
<g style="mix-blend-mode:multiply">
<path d="M10.7436 38.5093C10.7201 38.5097 10.6972 38.5171 10.6777 38.5306C10.6582 38.5441 10.6428 38.5632 10.6334 38.5855V38.738C10.647 38.7439 10.6615 38.747 10.6763 38.747C10.691 38.747 10.7055 38.7439 10.7191 38.738C10.9026 38.7761 10.9026 38.5093 10.7436 38.5093Z" fill="#FFE6B5"/>
</g>
<g style="mix-blend-mode:multiply">
<path d="M11.7592 38.5093C11.6001 38.5093 11.5879 38.7634 11.7592 38.7634C11.7916 38.7634 11.8228 38.75 11.8457 38.7262C11.8687 38.7024 11.8816 38.67 11.8816 38.6363C11.8816 38.6026 11.8687 38.5703 11.8457 38.5465C11.8228 38.5227 11.7916 38.5093 11.7592 38.5093Z" fill="#FFE6B5"/>
</g>
<g style="mix-blend-mode:multiply">
<path d="M12.7748 38.5858C12.7474 38.5947 12.7235 38.6124 12.7065 38.6364C12.6895 38.6604 12.6803 38.6894 12.6803 38.7192C12.6803 38.749 12.6895 38.778 12.7065 38.802C12.7235 38.826 12.7474 38.8438 12.7748 38.8526C12.8022 38.8438 12.8261 38.826 12.8431 38.802C12.8601 38.778 12.8693 38.749 12.8693 38.7192C12.8693 38.6894 12.8601 38.6604 12.8431 38.6364C12.8261 38.6124 12.8022 38.5947 12.7748 38.5858Z" fill="#FFE6B5"/>
</g>
<g style="mix-blend-mode:multiply">
<path d="M13.7904 38.624C13.763 38.6329 13.7391 38.6506 13.7221 38.6746C13.7051 38.6986 13.6959 38.7276 13.6959 38.7574C13.6959 38.7872 13.7051 38.8162 13.7221 38.8402C13.7391 38.8642 13.763 38.882 13.7904 38.8908C13.9495 38.9036 13.9617 38.6367 13.7904 38.624Z" fill="#FFE6B5"/>
</g>
<g style="mix-blend-mode:multiply">
<path d="M14.8061 38.675C14.79 38.675 14.7741 38.6783 14.7593 38.6847C14.7444 38.6911 14.7309 38.7005 14.7196 38.7123C14.7082 38.7241 14.6992 38.7381 14.693 38.7535C14.6869 38.7689 14.6837 38.7854 14.6837 38.8021C14.6837 38.8188 14.6869 38.8353 14.693 38.8507C14.6992 38.8661 14.7082 38.8802 14.7196 38.892C14.7309 38.9038 14.7444 38.9131 14.7593 38.9195C14.7741 38.9259 14.79 38.9292 14.8061 38.9292C14.8222 38.9292 14.8381 38.9259 14.8529 38.9195C14.8678 38.9131 14.8812 38.9038 14.8926 38.892C14.904 38.8802 14.913 38.8661 14.9191 38.8507C14.9253 38.8353 14.9284 38.8188 14.9284 38.8021C14.9284 38.7854 14.9253 38.7689 14.9191 38.7535C14.913 38.7381 14.904 38.7241 14.8926 38.7123C14.8812 38.7005 14.8678 38.6911 14.8529 38.6847C14.8381 38.6783 14.8222 38.675 14.8061 38.675Z" fill="#FFE6B5"/>
</g>
<g style="mix-blend-mode:multiply">
<path d="M15.8217 38.7134C15.7943 38.7223 15.7703 38.74 15.7533 38.764C15.7363 38.788 15.7272 38.817 15.7272 38.8468C15.7272 38.8766 15.7363 38.9056 15.7533 38.9296C15.7703 38.9536 15.7943 38.9713 15.8217 38.9802C15.849 38.9713 15.873 38.9536 15.89 38.9296C15.907 38.9056 15.9161 38.8766 15.9161 38.8468C15.9161 38.817 15.907 38.788 15.89 38.764C15.873 38.74 15.849 38.7223 15.8217 38.7134Z" fill="#FFE6B5"/>
</g>
<g style="mix-blend-mode:multiply">
<path d="M10.7435 39.3766V39.6434C10.7709 39.6345 10.7949 39.6168 10.8118 39.5928C10.8288 39.5688 10.838 39.5398 10.838 39.51C10.838 39.4802 10.8288 39.4512 10.8118 39.4272C10.7949 39.4032 10.7709 39.3855 10.7435 39.3766Z" fill="#FFE6B5"/>
</g>
<g style="mix-blend-mode:multiply">
<path d="M11.7592 39.4403C11.6001 39.4403 11.5879 39.6944 11.7592 39.6944C11.7916 39.6944 11.8228 39.681 11.8457 39.6572C11.8687 39.6334 11.8816 39.6011 11.8816 39.5674C11.8816 39.5337 11.8687 39.5014 11.8457 39.4775C11.8228 39.4537 11.7916 39.4403 11.7592 39.4403Z" fill="#FFE6B5"/>
</g>
<g style="mix-blend-mode:multiply">
<path d="M12.7748 39.4915C12.6157 39.4915 12.6035 39.7456 12.7748 39.7583C12.8022 39.7494 12.8261 39.7317 12.8431 39.7077C12.8601 39.6837 12.8693 39.6547 12.8693 39.6249C12.8693 39.5951 12.8601 39.5661 12.8431 39.5421C12.8261 39.5181 12.8022 39.5003 12.7748 39.4915Z" fill="#FFE6B5"/>
</g>
<g style="mix-blend-mode:multiply">
<path d="M13.7904 39.5552C13.6314 39.5552 13.6191 39.8093 13.7904 39.8093C13.8229 39.8093 13.854 39.7959 13.877 39.7721C13.8999 39.7483 13.9128 39.7159 13.9128 39.6822C13.9128 39.6485 13.8999 39.6162 13.877 39.5924C13.854 39.5686 13.8229 39.5552 13.7904 39.5552Z" fill="#FFE6B5"/>
</g>
<g style="mix-blend-mode:multiply">
<path d="M14.806 39.6062C14.7786 39.615 14.7547 39.6327 14.7377 39.6566C14.7207 39.6806 14.7115 39.7095 14.7115 39.7392C14.7115 39.7689 14.7207 39.7978 14.7377 39.8217C14.7547 39.8457 14.7786 39.8633 14.806 39.8722C14.8262 39.8787 14.8475 39.8802 14.8683 39.8766C14.8892 39.873 14.9089 39.8644 14.9259 39.8514C14.9429 39.8385 14.9567 39.8216 14.9663 39.8021C14.9758 39.7826 14.9807 39.761 14.9807 39.7392C14.9807 39.7173 14.9758 39.6958 14.9663 39.6763C14.9567 39.6568 14.9429 39.6399 14.9259 39.6269C14.9089 39.614 14.8892 39.6054 14.8683 39.6018C14.8475 39.5982 14.8262 39.5997 14.806 39.6062Z" fill="#FFE6B5"/>
</g>
<g style="mix-blend-mode:multiply">
<path d="M15.8217 39.6699C15.6626 39.6699 15.6504 39.924 15.8217 39.9367C15.993 39.9494 15.993 39.6699 15.8217 39.6699Z" fill="#FFE6B5"/>
</g>
<g style="mix-blend-mode:multiply">
<path d="M10.7925 40.2695V40.4982C10.8102 40.4853 10.8246 40.4682 10.8345 40.4483C10.8445 40.4284 10.8497 40.4063 10.8497 40.3839C10.8497 40.3615 10.8445 40.3394 10.8345 40.3195C10.8246 40.2996 10.8102 40.2824 10.7925 40.2695Z" fill="#FFE6B5"/>
</g>
<g style="mix-blend-mode:multiply">
<path d="M11.7714 40.3333C11.6001 40.3333 11.5879 40.5874 11.7714 40.5874C11.955 40.5874 11.9305 40.3333 11.7714 40.3333Z" fill="#FFE6B5"/>
</g>
<g style="mix-blend-mode:multiply">
<path d="M12.7748 40.397C12.6157 40.397 12.6035 40.6503 12.7748 40.663C12.795 40.6695 12.8163 40.671 12.8371 40.6674C12.858 40.6638 12.8777 40.6552 12.8947 40.6422C12.9117 40.6293 12.9255 40.6124 12.935 40.5929C12.9446 40.5734 12.9495 40.5518 12.9495 40.53C12.9495 40.5081 12.9446 40.4866 12.935 40.4671C12.9255 40.4476 12.9117 40.4307 12.8947 40.4177C12.8777 40.4048 12.858 40.3961 12.8371 40.3925C12.8163 40.3889 12.795 40.3904 12.7748 40.397Z" fill="#FFE6B5"/>
</g>
<g style="mix-blend-mode:multiply">
<path d="M13.7904 40.4735C13.6314 40.4735 13.6191 40.7276 13.7904 40.7403C13.8178 40.7315 13.8418 40.7137 13.8588 40.6897C13.8758 40.6657 13.8849 40.6367 13.8849 40.6069C13.8849 40.5771 13.8758 40.5481 13.8588 40.5241C13.8418 40.5001 13.8178 40.4824 13.7904 40.4735Z" fill="#FFE6B5"/>
</g>
<g style="mix-blend-mode:multiply">
<path d="M14.8061 40.55C14.7736 40.55 14.7425 40.5634 14.7196 40.5873C14.6966 40.6111 14.6837 40.6434 14.6837 40.6771C14.6837 40.7108 14.6966 40.7431 14.7196 40.767C14.7425 40.7908 14.7736 40.8042 14.8061 40.8042C14.8385 40.8042 14.8697 40.7908 14.8926 40.767C14.9156 40.7431 14.9284 40.7108 14.9284 40.6771C14.9284 40.6434 14.9156 40.6111 14.8926 40.5873C14.8697 40.5634 14.8385 40.55 14.8061 40.55Z" fill="#FFE6B5"/>
</g>
<g style="mix-blend-mode:multiply">
<path d="M15.8217 40.6139C15.6626 40.6139 15.6504 40.868 15.8217 40.8807C15.8491 40.8718 15.873 40.8541 15.89 40.8301C15.907 40.8061 15.9162 40.7771 15.9162 40.7473C15.9162 40.7175 15.907 40.6885 15.89 40.6645C15.873 40.6405 15.8491 40.6228 15.8217 40.6139Z" fill="#FFE6B5"/>
</g>
<g style="mix-blend-mode:screen">
<path d="M16.1398 35.549V35.4093L10.3153 35.2822L10.3275 35.4093L16.1398 35.549Z" fill="#F0CB56"/>
</g>
<path d="M11.0128 42.8324L16.0786 43.2021V41.3407C14.3288 41.3407 12.5668 41.2005 10.8292 40.9838L11.0128 42.8324Z" fill="#FFB82B"/>
<g style="mix-blend-mode:multiply">
<path d="M16.1154 41.6714V41.3403C14.3656 41.3403 12.6035 41.2002 10.866 40.9838V41.3021C12.6236 41.2127 14.3853 41.3366 16.1154 41.6714Z" fill="#FFD073"/>
</g>
<g style="mix-blend-mode:multiply">
<path d="M13.46 43.0118H14.0718C13.8603 40.4671 13.795 37.9116 13.876 35.3588H13.1296C12.9464 37.9144 13.0573 40.4837 13.46 43.0118Z" fill="#FFD073"/>
</g>
<path d="M12.6157 35.3333C12.7503 37.8843 12.9216 40.4353 13.1052 42.9863H13.8516C13.7782 40.4353 13.7782 37.8843 13.6925 35.3333H12.6157Z" fill="#85A30A"/>
<g style="mix-blend-mode:screen">
<path d="M13.6925 35.5628C13.7782 38.1139 13.7782 40.5628 13.8516 43.0373C13.7782 40.4863 13.7782 37.9353 13.6925 35.3843H12.6157C12.6214 35.4522 12.6214 35.5205 12.6157 35.5884L13.6925 35.5628Z" fill="#85A30A"/>
</g>
<path d="M17.1922 34.517C17.1922 34.517 17.1922 39.619 17.082 42.17L17.6204 41.5833C17.6204 39.1343 17.7795 36.4813 17.7795 34.0706L17.1922 34.517Z" fill="#6E8708"/>
<g style="mix-blend-mode:screen">
<path d="M17.1922 34.6827L17.7795 34.198V34.0194L17.1922 34.5169C17.1922 34.5169 17.1922 39.6189 17.082 42.1699C17.131 39.5424 17.1922 34.6827 17.1922 34.6827Z" fill="#1D2402"/>
</g>
</g>
<path d="M147.379 6.37814C147.431 6.44149 147.488 6.50005 147.55 6.55314L147.71 6.67666C148.331 5.35906 149.895 3.22825 153.534 3.94882C154.695 4.12025 155.774 4.66303 156.618 5.50009C157.462 6.33715 158.027 7.42594 158.235 8.61189C158.305 8.56548 158.372 8.51388 158.435 8.45748C158.601 8.29612 158.748 8.11663 158.876 7.92221C159.135 7.2712 159.182 6.55175 159.01 5.87102C158.839 5.19028 158.458 4.58467 157.924 4.1444C154.175 0.459234 149.153 2.61063 148.301 3.42384C147.449 4.23704 146.738 5.58552 147.379 6.37814Z" fill="#9E0C12"/>
<path d="M151.238 36.0147H152.792C153.153 32.4427 153.203 27.9546 153.383 25.1033L145.946 25.2371C147.339 28.5105 149.554 32.7721 151.238 36.0147Z" fill="#9E0C12"/>
<path d="M149.765 23.0857L154.025 23.5282C154.134 24.544 154.395 25.5366 154.797 26.4715C154.797 26.4715 153.073 27.089 149.544 26.3275C148.913 24.969 149.765 23.0857 149.765 23.0857Z" fill="#9E0C12"/>
<path d="M156.31 15.8183C156.31 15.8183 157.503 20.7696 154.827 22.221C151.95 23.7754 146.547 21.7578 146.547 21.7578L147.85 16.7344L152.301 18.9682C152.331 18.131 152.543 17.3114 152.922 16.5697C153.289 16.0263 153.842 15.6464 154.472 15.5068C155.101 15.3673 155.758 15.4786 156.31 15.8183Z" fill="#9E0C12"/>
<path d="M145.786 13.0595C147.149 16.8477 151.439 19.6578 151.439 19.6578C151.439 19.6578 156.15 19.1123 158.455 15.7153C159.758 13.7698 159.367 11.3817 158.154 8.66411C159.828 12.9463 154.696 18.2991 150.326 16.1065C144.783 13.3272 147.389 7.33622 147.409 7.29504C145.284 8.80823 145.004 10.7332 145.786 13.0595Z" fill="#9E0C12"/>
<path d="M145.379 6.37814C145.431 6.44149 145.488 6.50005 145.55 6.55314L145.71 6.67666C146.331 5.35906 147.895 3.22825 151.534 3.94882C152.695 4.12025 153.774 4.66303 154.618 5.50009C155.462 6.33715 156.027 7.42594 156.235 8.61189C156.305 8.56548 156.372 8.51388 156.435 8.45748C156.601 8.29612 156.748 8.11663 156.876 7.92221C157.135 7.2712 157.182 6.55175 157.01 5.87102C156.839 5.19028 156.458 4.58467 155.924 4.1444C152.175 0.459234 147.153 2.61063 146.301 3.42384C145.449 4.23704 144.738 5.58552 145.379 6.37814Z" fill="#9E0C12"/>
<path d="M146 18V4C145.697 4.3219 145.474 4.69931 145.349 5.10612C145.223 5.51294 145.197 5.93947 145.273 6.35623C145.037 6.43862 144.824 6.56389 144.645 6.72416C144.466 6.88443 144.326 7.07625 144.234 7.28758C144.141 7.49891 144.098 7.72518 144.107 7.9522C144.116 8.17922 144.178 8.40208 144.287 8.60679C144.287 8.60679 140.462 12.1464 146 18Z" fill="#9E0C12"/>
<path d="M137.27 17.9388C139.206 20.9677 141.782 23.5083 144.808 25.3709C146.45 26.3515 148.166 27.1949 149.94 27.8929C150.942 26.9356 153.839 18.2991 154.21 15.3757C151.524 13.6052 148.978 11.6185 146.402 9.68323C144.117 11.1053 141.995 12.7869 140.077 14.6963C139.063 15.7029 138.125 16.7868 137.27 17.9388Z" fill="#9E0C12"/>
<path d="M150.238 36.0147H151.792C152.153 32.4427 152.203 27.9546 152.383 25.1033L144.946 25.2371C146.339 28.5105 148.554 32.7721 150.238 36.0147Z" fill="#F82F11"/>
<path d="M149.927 36.2608C150.068 36.5077 154.358 36.5592 154.448 36.2608C154.448 36.2608 154.709 34.7072 152.774 34.3883C152.16 34.3327 151.541 34.4134 150.96 34.6249L149.236 34.5323L149.927 36.2608Z" fill="#383838"/>
<path d="M149.928 36.2609H151.932C151.932 35.6228 152.193 33.9968 152.243 33.3793L148.725 33.2661L149.928 36.2609Z" fill="#383838"/>
<path d="M148.725 33.4396C149.885 33.6039 151.062 33.6039 152.223 33.4396C152.854 33.4396 152.854 32.4115 152.483 32.2676C152.413 32.2162 149.035 32.2162 148.404 32.2676C147.923 32.4423 148.294 33.378 148.725 33.4396Z" fill="#FFFBF0"/>
<path d="M138.27 17.9388C140.206 20.9677 142.782 23.5083 145.808 25.3709C147.45 26.3515 149.166 27.1949 150.94 27.8929C151.942 26.9356 154.839 18.2991 155.21 15.3757C152.524 13.6052 149.978 11.6185 147.402 9.68323C145.117 11.1053 142.995 12.7869 141.077 14.6963C140.063 15.7029 139.125 16.7868 138.27 17.9388Z" fill="#F82F11"/>
<path d="M148.765 23.0857L153.025 23.5282C153.134 24.544 153.395 25.5366 153.797 26.4715C153.797 26.4715 152.073 27.089 148.544 26.3275C147.913 24.969 148.765 23.0857 148.765 23.0857Z" fill="#F82F11"/>
<path d="M149.116 26.1738H147.782C147.676 23.5571 147.981 20.9398 148.685 18.4226H150.298C149.486 21.4284 148.865 25.0518 149.116 26.1738Z" fill="#FFFBF0"/>
<path d="M138.872 16.9711C139.744 17.9078 143.342 22.1179 146.209 23.0856C146.974 23.3628 147.758 23.583 148.554 23.7444C150.056 24.0918 151.614 24.0918 153.115 23.7444C153.315 23.662 153.576 22.6326 153.335 22.4062C152.457 22.6854 151.535 22.7868 150.619 22.7047C146.61 22.5503 142.37 17.9078 139.794 15.9623C139.515 16.3245 139.206 16.662 138.872 16.9711Z" fill="#383838"/>
<path d="M148.173 24.1144L149.446 24.3202C149.582 24.3306 149.717 24.295 149.832 24.2187C149.946 24.1425 150.032 24.0299 150.078 23.8983C150.207 23.4924 150.301 23.0758 150.359 22.6531C150.376 22.5168 150.34 22.3791 150.26 22.2694C150.179 22.1597 150.06 22.0869 149.928 22.0665L148.604 21.8606C148.193 21.768 147.602 21.6857 147.442 22.1797C147.281 22.6736 147.311 22.9515 147.221 23.322C147.141 23.96 147.783 24.1144 148.173 24.1144ZM147.803 23.4249C147.873 23.0853 147.943 22.7457 147.993 22.3958C148.043 22.0459 148.404 22.3958 148.534 22.3958L149.847 22.6016C149.998 22.6016 149.847 22.8692 149.847 22.9824L149.757 23.3734C149.757 23.5072 149.757 23.8468 149.547 23.8366L147.873 23.5587C147.849 23.5495 147.829 23.5322 147.816 23.5098C147.803 23.4873 147.799 23.4609 147.803 23.4352V23.4249Z" fill="#F8C456"/>
<path d="M137.649 19.3182C138.959 21.9792 140.979 24.2032 143.472 25.7312C146.018 27.2032 148.825 28.037 153.436 27.7899C153.554 27.7728 153.668 27.7382 153.776 27.687C154.107 27.5738 154.147 26.1121 153.546 25.9988C152.814 26.0709 147.652 26.74 143.382 23.5901C140.375 21.3769 139.042 18.2065 138.371 17.5991C138.07 17.6094 137.659 18.6491 137.649 19.3182Z" fill="#FFFBF0"/>
<path d="M30.4196 27.0796L29.8282 33.2559H23.8142L22 13.9242H31.6725L31.1312 19.6578L36.1429 13.9242H41.5254L36.3233 22.1592L42.5478 33.225H36.5338C33.6604 30.3565 31.6224 28.308 30.4196 27.0796Z" fill="white"/>
<path d="M71.445 17.6814C72.1558 17.6898 72.8557 17.8625 73.4925 18.1869C74.1294 18.5112 74.6868 18.9788 75.1236 19.5548C76.1991 20.9421 76.7476 22.6833 76.6671 24.4547C76.598 27.3895 76.3638 30.3178 75.9655 33.2249H70.6231L70.0016 26.0914C69.8012 23.8164 69.2098 22.6841 68.2275 22.6841C67.0548 22.6841 66.4334 23.8267 66.3532 26.1222L66.1026 33.2249H60.4895L59.838 18.124H66.7842L66.6639 20.8313C66.8588 20.4618 67.0942 20.1164 67.3655 19.8019C67.6872 19.4029 68.0465 19.0374 68.438 18.7107C69.2968 18.0257 70.3577 17.6625 71.445 17.6814Z" fill="white"/>
<path d="M90.8702 17.6814C91.9168 17.628 92.9422 17.9975 93.7268 18.7108C94.4412 19.4229 94.9421 20.3302 95.1702 21.3254C95.4659 22.5752 95.6073 23.8583 95.5912 25.1444C95.4985 27.8523 95.2643 30.5532 94.8895 33.2353H89.507L88.8355 25.8444C88.7961 24.9731 88.6306 24.1127 88.3443 23.2915C88.2558 23.0863 88.1045 22.9164 87.9133 22.8077C87.7256 22.6949 87.5085 22.6446 87.2919 22.6636C86.079 22.6636 85.4275 23.693 85.2872 25.8753L84.9765 33.2353H79.3735L78.5315 12.5654H85.8385L85.5378 20.8004C85.8651 20.1249 86.3226 19.5248 86.8825 19.0364C87.4425 18.548 88.0933 18.1816 88.7954 17.9594C89.4693 17.7597 90.1689 17.6659 90.8702 17.6814Z" fill="white"/>
<path d="M109.754 17.6813C110.801 17.6279 111.826 17.9974 112.611 18.7107C113.337 19.4034 113.852 20.2972 114.094 21.2842C114.38 22.5491 114.508 23.8462 114.475 25.1443C114.382 27.8522 114.148 30.5531 113.773 33.2352H108.401L107.719 25.8443C107.675 24.9707 107.5 24.1095 107.198 23.2914C107.11 23.0862 106.958 22.9163 106.767 22.8076C106.581 22.6915 106.363 22.6409 106.146 22.6635C104.943 22.6635 104.281 23.6929 104.141 25.8752L103.84 33.2249H98.2674L97.4354 12.5551H104.752L104.452 20.8415C104.776 20.1669 105.232 19.5676 105.79 19.0808C106.349 18.5939 106.998 18.2297 107.699 18.0107C108.362 17.788 109.056 17.6767 109.754 17.6813Z" fill="white"/>
<path d="M142.28 18.577L142.811 18.3814L141.809 33.2147H136.005L135.003 18.3814C136.186 18.8756 137.454 19.124 138.731 19.1123C139.934 19.1276 141.132 18.947 142.28 18.577ZM138.882 17.702C137.932 17.7349 137.007 17.3922 136.296 16.7447C135.973 16.4213 135.717 16.0336 135.545 15.6053C135.372 15.177 135.287 14.717 135.293 14.2536C135.282 13.7923 135.362 13.3333 135.529 12.905C135.696 12.4766 135.947 12.0878 136.266 11.7625C137.003 11.1569 137.918 10.8266 138.862 10.8258C139.806 10.8272 140.72 11.1656 141.448 11.7831C141.778 12.0979 142.041 12.48 142.22 12.9051C142.398 13.3346 142.491 13.7968 142.49 14.2639C142.496 14.7256 142.409 15.1836 142.237 15.61C142.065 16.0365 141.81 16.4225 141.488 16.7447C140.778 17.395 139.853 17.7413 138.902 17.7123L138.882 17.702Z" fill="white"/>
<path d="M53.6035 28.8193C54.7332 28.5009 55.7103 27.7685 56.3499 26.7605L58.8256 28.5002C58.6089 29.0094 58.3329 29.4899 58.0037 29.931C57.4891 30.5644 56.8922 31.122 56.2296 31.5883C55.344 32.255 54.3494 32.7535 53.2928 33.0603C51.2732 33.7373 49.0813 33.6237 47.1385 32.7412C46.15 32.2246 45.2861 31.488 44.6099 30.5852C43.9337 29.6824 43.462 28.636 43.2294 27.5223C42.7775 26.0587 42.7775 24.4875 43.2294 23.0239C44.0312 20.4779 45.8989 18.7623 48.8324 17.877C50.6087 17.2136 52.5465 17.1595 54.3552 17.7226C55.052 17.9967 55.6733 18.4407 56.1657 19.0164C56.6582 19.592 57.0069 20.282 57.1818 21.0269C57.3631 21.6194 57.4009 22.2483 57.2921 22.8592C57.1943 23.4737 56.9498 24.0537 56.5804 24.5474C55.5711 25.7885 54.1891 26.6502 52.6513 26.9973C51.8512 27.2454 51.0282 27.4075 50.1956 27.4811C50.316 27.7955 50.5005 28.0798 50.7368 28.3149C50.9761 28.5494 51.2639 28.7254 51.5788 28.8296C52.239 29.0375 52.9453 29.0339 53.6035 28.8193ZM51.0676 24.115C51.6196 23.9737 52.1227 23.678 52.521 23.2607C52.6679 23.1105 52.7719 22.9218 52.8217 22.7151C52.8717 22.5089 52.8717 22.2933 52.8217 22.0872C52.7682 21.8947 52.676 21.7158 52.551 21.5622C52.4209 21.414 52.2598 21.2979 52.0799 21.2225C51.6406 21.0526 51.1561 21.0526 50.7168 21.2225C50.4344 21.3161 50.1746 21.4705 49.955 21.6754C49.7318 21.8733 49.5538 22.1193 49.4338 22.396C49.2742 22.6921 49.172 23.0172 49.1331 23.3533C49.088 23.699 49.1188 24.0508 49.2233 24.3827C49.8487 24.4075 50.4734 24.3168 51.0676 24.115Z" fill="#FFCB3B"/>
<path d="M46.1061 16.3323L50.5865 13.9242L55.4077 16.3323C52.3326 15.756 49.1812 15.756 46.1061 16.3323Z" fill="#FFCB3B"/>
<path d="M120.279 32.7618C118.868 32.5143 117.604 31.718 116.75 30.5383C116.34 29.9169 116.064 29.2116 115.943 28.4708C115.822 27.73 115.858 26.971 116.049 26.2458C116.134 25.5131 116.404 24.8157 116.831 24.2221C117.258 23.6284 117.828 23.1588 118.484 22.8592C119.852 22.315 121.348 22.2109 122.774 22.5607C124.207 22.8257 125.572 23.3898 126.784 24.218C126.864 22.4406 125.982 21.3495 124.138 20.9446C123.069 20.756 121.98 20.711 120.9 20.8107L120.71 17.8461C122.601 17.4499 124.551 17.4499 126.443 17.8461C131.789 18.999 134.004 21.9431 133.088 26.6782C132.582 28.6526 131.963 30.5947 131.234 32.4942C131.234 32.4942 131.044 33.2868 130.723 33.4C128.778 34.1412 122.424 33.2147 120.279 32.7618ZM123.747 29.4678C124.578 29.671 125.453 29.5728 126.222 29.1899L126.453 27.1311C126.034 26.676 125.488 26.3665 124.889 26.2458C124.358 26.1023 123.794 26.1533 123.296 26.39C123.087 26.4781 122.904 26.6199 122.764 26.8017C122.622 26.9818 122.523 27.1932 122.474 27.4193C122.386 27.8669 122.461 28.3318 122.684 28.7266C122.793 28.9324 122.947 29.1087 123.135 29.2413C123.321 29.3614 123.529 29.4387 123.747 29.4678Z" fill="#FFCB3B"/>
<path d="M130.192 16.6307C124.017 12.401 121.872 12.7406 121.702 14.1299C121.441 16.2705 130.192 16.6307 130.192 16.6307Z" fill="#FFCB3B"/>
<path d="M146.5 17.6806V4.04138C146.24 4.35499 146.05 4.72267 145.943 5.119C145.836 5.51534 145.814 5.93087 145.878 6.33689C145.677 6.41716 145.495 6.5392 145.342 6.69534C145.189 6.85148 145.07 7.03836 144.991 7.24424C144.912 7.45012 144.875 7.67056 144.883 7.89173C144.89 8.1129 144.943 8.33002 145.036 8.52946C145.036 8.52946 141.769 11.9779 146.5 17.6806Z" fill="#CC280E"/>
<path d="M155.31 15.8183C155.31 15.8183 156.503 20.7696 153.827 22.221C150.95 23.7754 145.547 21.7578 145.547 21.7578L146.85 16.7344L151.301 18.9682C151.331 18.131 151.543 17.3114 151.922 16.5697C152.289 16.0263 152.842 15.6464 153.472 15.5068C154.101 15.3673 154.758 15.4786 155.31 15.8183Z" fill="#F73011"/>
<g style="mix-blend-mode:multiply" opacity="0.1">
<path d="M155.651 17.4342C155.651 17.4342 155.22 19.2969 150.639 20.3363C148.494 19.5439 147.342 16.8064 147.342 16.8064C147.342 16.8064 154.538 16.3536 155.651 17.4342Z" fill="black"/>
</g>
<path d="M146.089 17.2594C145.656 17.2989 145.22 17.2252 144.822 17.0452C144.424 16.8653 144.077 16.5848 143.813 16.23C142.38 16.477 141.027 18.7725 142.169 20.3475C143.312 21.9224 145.176 21.0886 145.738 20.5945C146.087 20.1243 146.304 19.565 146.366 18.9772C146.428 18.3893 146.332 17.7953 146.089 17.2594Z" fill="#FFB691"/>
<path d="M144.415 16.5076C144.415 16.5076 141.588 14.5008 140.977 15.7666C140.365 17.0325 143.763 17.722 143.763 17.722C144.091 17.3911 144.318 16.969 144.415 16.5076Z" fill="#FFB691"/>
<path d="M146.359 18.5764C146.38 18.1277 146.29 17.6809 146.097 17.2778C145.905 16.8746 145.615 16.5283 145.257 16.2711C144.054 15.5199 142.931 17.5164 143.883 18.0412C144.836 18.5661 144.946 17.0841 144.946 17.0841C144.946 17.0841 143.382 18.6484 144.816 19.3688C145.828 19.8834 146.359 18.5764 146.359 18.5764Z" fill="#FFB691"/>
<path d="M142.981 17.5057L142.3 17.3109L142.981 17.5057Z" fill="#D67D52"/>
<path d="M142.41 19.5328C142.186 19.4987 141.969 19.4261 141.769 19.3181C141.769 19.3181 141.769 19.3181 141.769 19.3181C141.973 19.4353 142.198 19.5116 142.43 19.543L142.41 19.5328Z" fill="#D67D52"/>
<path d="M145.938 16.4256C146.237 16.2604 146.584 16.211 146.915 16.2866C147.246 16.3622 147.54 16.5577 147.742 16.8374C147.75 16.8479 147.754 16.8605 147.754 16.8734C147.754 16.8863 147.75 16.8989 147.742 16.9094C147.211 17.655 146.829 18.5018 146.62 19.4005C146.448 20.2804 146.448 21.1867 146.62 22.0666C146.62 22.0666 146.439 22.4063 145.718 22.3857C144.996 22.3651 144.435 22.1181 144.435 21.8195C144.435 21.7372 144.385 21.4078 144.355 20.9343C144.269 20.1087 144.367 19.2739 144.642 18.493C144.916 17.712 145.359 17.0051 145.938 16.4256Z" fill="#FFFBF0"/>
<path d="M145.106 21.5415C145.908 21.5415 146.469 17.424 147.742 16.8373C147.75 16.8478 147.754 16.8604 147.754 16.8733C147.754 16.8862 147.75 16.8988 147.742 16.9093C147.211 17.6549 146.829 18.5017 146.62 19.4004C146.448 20.2803 146.448 21.1866 146.62 22.0665C146.62 22.0665 146.439 22.4062 145.718 22.3856C144.996 22.365 144.435 22.118 144.435 21.8195C144.435 21.7371 144.385 21.4077 144.354 20.9342C144.505 21.2636 144.735 21.5621 145.106 21.5415Z" fill="#F5F1E6"/>
<path d="M146.119 8.67366C145.881 10.1984 146.242 11.7578 147.124 13.0087C148.006 14.2596 149.335 15.0997 150.82 15.344C152.304 15.5883 153.823 15.217 155.041 14.3116C156.259 13.4062 157.077 12.041 157.315 10.5162C157.47 9.51022 157.377 8.48024 157.044 7.52076C156.721 6.52908 156.138 5.64762 155.36 4.97247C154.583 4.29731 153.639 3.85437 152.633 3.69191C151.627 3.52945 150.597 3.65371 149.655 4.05115C148.713 4.44859 147.896 5.10395 147.291 5.94581C146.689 6.74308 146.287 7.67966 146.119 8.67366Z" fill="#FFB691"/>
<path d="M147.221 5.70846C147.209 5.90306 147.179 6.09603 147.131 6.28478C147.772 5.55234 148.58 4.99558 149.483 4.66493C150.386 4.33428 151.356 4.24019 152.303 4.39118C154.087 4.80634 155.673 5.85169 156.783 7.34477C156.859 7.41961 156.947 7.47899 157.044 7.51973C156.715 6.53176 156.131 5.65397 155.354 4.97981C154.578 4.30565 153.637 3.86037 152.634 3.69138C151.638 3.48631 150.607 3.56598 149.652 3.92168C148.698 4.27739 147.857 4.89547 147.221 5.70846Z" fill="#FFA578"/>
<path d="M147.446 7.51421C147.541 6.86223 147.117 6.25626 146.499 6.16076C145.88 6.06525 145.301 6.51636 145.206 7.16835C145.11 7.82033 145.535 8.4263 146.153 8.52181C146.772 8.61732 147.351 8.1662 147.446 7.51421Z" fill="#FFB691"/>
<path d="M145.938 7.78872C146.231 7.71729 146.486 7.53306 146.65 7.27416C146.799 6.98366 146.851 6.65135 146.8 6.32736C146.805 6.29668 146.805 6.26543 146.8 6.23474C147.034 6.34295 147.226 6.52824 147.346 6.76127C147.466 6.99429 147.507 7.26171 147.462 7.52115C147.444 7.67668 147.397 7.82708 147.322 7.96351C147.248 8.09994 147.147 8.21963 147.027 8.31553C146.906 8.41143 146.768 8.48161 146.621 8.52192C146.473 8.56224 146.32 8.57188 146.169 8.55028C145.981 8.51955 145.804 8.44005 145.655 8.31936C145.506 8.19867 145.39 8.04079 145.317 7.86076C145.526 7.87028 145.736 7.84597 145.938 7.78872Z" fill="#FFA578"/>
<path d="M145.868 6.83172C145.92 6.80881 145.977 6.797 146.033 6.797C146.09 6.797 146.147 6.80881 146.199 6.83172C146.288 6.87075 146.37 6.92655 146.439 6.99627C146.583 7.12636 146.69 7.29314 146.75 7.47961C146.79 7.58444 146.811 7.69609 146.81 7.80869C146.81 7.80869 146.75 7.80869 146.74 7.80869C146.741 7.6225 146.689 7.44005 146.59 7.28421C146.5 7.12963 146.372 7.00197 146.219 6.91399C146.17 6.88324 146.115 6.86285 146.059 6.85401C146.002 6.84518 145.944 6.84809 145.888 6.86258V6.80087L145.868 6.83172Z" fill="#C7622D"/>
<path d="M158.799 9.19172C158.894 8.53973 158.47 7.93377 157.851 7.83826C157.233 7.74275 156.654 8.19387 156.559 8.84585C156.463 9.49784 156.887 10.1038 157.506 10.1993C158.124 10.2948 158.703 9.84371 158.799 9.19172Z" fill="#FFB691"/>
<path d="M157.866 7.84062H157.946C157.857 7.96273 157.786 8.09805 157.736 8.24198C157.705 8.3354 157.685 8.43206 157.676 8.53014C157.661 8.67036 157.661 8.81185 157.676 8.95208C157.747 9.36188 157.915 9.74726 158.167 10.0738C157.958 10.1877 157.719 10.2309 157.485 10.1973C157.179 10.1482 156.905 9.97638 156.723 9.71969C156.541 9.46301 156.465 9.14246 156.513 8.82858C156.561 8.5147 156.728 8.23319 156.978 8.04598C157.228 7.85878 157.54 7.7812 157.846 7.83033L157.866 7.84062Z" fill="#FFA578"/>
<path d="M158.237 8.73611C158.156 8.68398 158.059 8.66557 157.966 8.68468C157.876 8.68932 157.788 8.71021 157.706 8.7464C157.541 8.82305 157.396 8.93951 157.285 9.08585C157.222 9.16925 157.175 9.26326 157.144 9.36358C157.144 9.36358 157.064 9.36358 157.084 9.36358C157.151 9.1754 157.264 9.00865 157.414 8.88035C157.564 8.75205 157.744 8.66678 157.936 8.63325C157.999 8.61028 158.065 8.60205 158.131 8.60918C158.197 8.6163 158.261 8.63859 158.317 8.67439V8.72583L158.237 8.73611Z" fill="#C7622D"/>
<path d="M147.918 2.38821C147.99 1.89934 147.675 1.44549 147.215 1.37451C146.755 1.30353 146.325 1.64229 146.253 2.13117C146.181 2.62004 146.496 3.0739 146.956 3.14488C147.416 3.21586 147.847 2.87709 147.918 2.38821Z" fill="#FFFBF0"/>
<path d="M156.392 4.60678C156.463 4.60678 154.318 0.932794 151.782 0.490269C148.885 0.0271611 147.702 4.50387 147.702 4.50387C150.515 3.45588 153.604 3.49245 156.392 4.60678Z" fill="#F82F11"/>
<path d="M152.092 0.573163C151.244 0.387889 150.367 0.393129 149.521 0.588526C148.675 0.783922 147.88 1.16485 147.191 1.7052C147.107 1.79523 147.06 1.91504 147.06 2.03966C147.06 2.16429 147.107 2.2841 147.191 2.37413C147.765 2.66993 148.425 2.73949 149.045 2.56966C150.263 2.30384 151.345 1.59466 152.092 0.573163Z" fill="#F82F11"/>
<path d="M146.379 6.37814C146.431 6.44149 146.488 6.50005 146.55 6.55314L146.71 6.67666C147.331 5.35906 148.895 3.22825 152.534 3.94882C153.695 4.12025 154.774 4.66303 155.618 5.50009C156.462 6.33715 157.027 7.42594 157.235 8.61189C157.305 8.56548 157.372 8.51388 157.435 8.45748C157.601 8.29612 157.748 8.11663 157.876 7.92221C158.135 7.2712 158.182 6.55175 158.01 5.87102C157.839 5.19028 157.458 4.58467 156.924 4.1444C153.175 0.459234 148.153 2.61063 147.301 3.42384C146.449 4.23704 145.738 5.58552 146.379 6.37814Z" fill="#FFFBF0"/>
<path d="M149.907 1.2315C149.74 1.33637 149.582 1.45683 149.436 1.59135C149.276 1.74557 149.126 1.91007 148.985 2.07457C148.899 2.17227 148.819 2.27528 148.745 2.38301C148.745 2.38301 148.745 2.38301 148.745 2.38301C148.885 2.19795 149.035 2.01289 149.196 1.8381C149.341 1.67771 149.498 1.52984 149.667 1.396C149.749 1.3227 149.84 1.2605 149.938 1.21094C149.938 1.21094 149.998 1.21094 149.938 1.26234L149.907 1.2315Z" fill="#991D0A"/>
<path d="M146.379 6.37823C146.431 6.44157 146.488 6.50013 146.55 6.55322L146.71 6.67675C147.331 5.35914 148.895 3.22834 152.534 3.9489C153.695 4.12033 154.774 4.66311 155.618 5.50017C156.462 6.33723 157.027 7.42603 157.235 8.61197C157.305 8.56557 157.372 8.51396 157.435 8.45757C157.561 7.9619 157.57 7.44236 157.46 6.94261C157.35 6.44286 157.125 5.97749 156.804 5.58561C155.45 3.76361 154.618 3.2901 151.892 3.13569C149.476 2.95041 146.82 4.74152 146.379 6.37823Z" fill="#F5F1E6"/>
<path d="M154.999 8.34401C155.019 8.34417 155.038 8.33693 155.053 8.32366C155.067 8.31039 155.077 8.29202 155.079 8.27203C155.14 7.88124 155.079 7.43903 154.819 7.3979C154.558 7.35676 154.588 7.4596 154.498 7.61386C154.405 7.78232 154.344 7.96722 154.318 8.15891C154.314 8.1685 154.313 8.17879 154.315 8.18885C154.316 8.19892 154.32 8.20845 154.326 8.2166C154.332 8.22474 154.34 8.23125 154.349 8.23554C154.358 8.23983 154.368 8.24176 154.378 8.24118C154.388 8.24427 154.398 8.24507 154.408 8.24351C154.419 8.24196 154.429 8.23809 154.437 8.23219C154.446 8.22629 154.453 8.21851 154.458 8.20939C154.464 8.20027 154.467 8.19006 154.468 8.17947C154.494 8.01005 154.548 7.8465 154.628 7.69613C154.689 7.60358 154.749 7.55216 154.799 7.55216C154.849 7.55216 154.979 7.85039 154.919 8.25146C154.918 8.26228 154.918 8.27327 154.921 8.2838C154.924 8.29434 154.929 8.3042 154.935 8.31281C154.942 8.32142 154.95 8.32862 154.959 8.33398C154.968 8.33933 154.979 8.34275 154.989 8.34401H154.999Z" fill="#8C4520"/>
<path d="M149.466 7.48965C149.484 7.48747 149.501 7.47918 149.514 7.46613C149.526 7.45307 149.534 7.436 149.537 7.41766C149.597 7.02687 149.537 6.58466 149.286 6.54353C149.035 6.50239 149.055 6.60523 148.965 6.75949C148.868 6.92598 148.807 7.11178 148.785 7.30454C148.782 7.31413 148.781 7.32442 148.782 7.33449C148.784 7.34455 148.787 7.35408 148.793 7.36223C148.799 7.37038 148.807 7.37688 148.816 7.38117C148.825 7.38546 148.835 7.3874 148.845 7.38681C148.855 7.3899 148.865 7.3907 148.876 7.38915C148.886 7.38759 148.896 7.38373 148.904 7.37783C148.913 7.37193 148.92 7.36414 148.926 7.35502C148.931 7.34591 148.934 7.33569 148.935 7.3251C148.961 7.15568 149.015 6.99213 149.096 6.84176C149.156 6.74921 149.216 6.6875 149.266 6.69779C149.316 6.70807 149.446 6.99602 149.386 7.39709C149.383 7.41744 149.388 7.43824 149.399 7.45538C149.41 7.47251 149.427 7.48474 149.446 7.48965H149.466Z" fill="#8C4520"/>
<path d="M156.312 6.61513C156.312 6.61513 156.643 7.25304 156.202 7.35593C155.511 6.91644 154.693 6.73477 153.887 6.84149C153.436 6.96495 153.596 5.8126 153.997 5.63769C154.432 5.58207 154.874 5.64284 155.28 5.81409C155.685 5.98534 156.041 6.26127 156.312 6.61513Z" fill="#FFA578"/>
<path d="M156.312 6.42983C156.312 6.42983 156.643 7.06774 156.202 7.17063C155.511 6.73035 154.693 6.54862 153.887 6.65618C153.436 6.77965 153.596 5.6273 153.997 5.45239C154.432 5.39677 154.874 5.45753 155.28 5.62878C155.685 5.80004 156.041 6.07597 156.312 6.42983Z" fill="#FFFBF0"/>
<path d="M148.063 5.39048C148.063 5.39048 147.562 5.89463 147.953 6.13128C148.741 5.92942 149.573 6.01301 150.308 6.36792C150.699 6.63543 150.88 5.50366 150.559 5.1847C150.161 4.99635 149.722 4.91636 149.285 4.95239C148.848 4.98843 148.427 5.13929 148.063 5.39048Z" fill="#FFA578"/>
<path d="M148.053 5.25656C148.053 5.25656 147.552 5.76072 147.943 5.99736C148.731 5.79551 149.563 5.8791 150.298 6.23401C150.689 6.50152 150.88 5.36974 150.549 5.05079C150.151 4.86244 149.712 4.78244 149.275 4.81848C148.838 4.85452 148.417 5.00538 148.053 5.25656Z" fill="#FFFBF0"/>
<path d="M155.067 8.84554C155.086 8.71653 154.903 8.57971 154.657 8.53996C154.411 8.5002 154.195 8.57256 154.175 8.70158C154.156 8.8306 154.339 8.96741 154.585 9.00716C154.831 9.04692 155.047 8.97456 155.067 8.84554Z" fill="#FF8B6E"/>
<path d="M149.785 7.99837C149.805 7.86935 149.622 7.73254 149.376 7.69279C149.129 7.65303 148.914 7.72539 148.894 7.8544C148.874 7.98342 149.058 8.12024 149.304 8.15999C149.55 8.19975 149.766 8.12738 149.785 7.99837Z" fill="#FF8B6E"/>
<path d="M144.785 13.0595C146.149 16.8476 150.439 19.6578 150.439 19.6578C150.439 19.6578 155.15 19.1123 157.455 15.7153C158.758 13.7698 158.367 11.3816 157.154 8.66409C157.312 8.47692 157.399 8.23754 157.399 7.98985C157.399 7.74215 157.312 7.50277 157.154 7.3156C157.014 7.17149 156.854 7.1509 156.783 7.3156C156.463 7.9744 156.783 8.60232 155.36 9.16848C154.668 9.45671 153.586 8.78761 152.022 8.34498C150.85 8.01558 149.937 8.50968 149.346 8.41704C149.046 8.40669 148.752 8.33054 148.482 8.19368C148.213 8.05683 147.976 7.86244 147.786 7.62356C147.596 7.38469 147.458 7.10687 147.382 6.80874C147.305 6.51061 147.291 6.19908 147.341 5.89507C147.041 5.54508 146.499 5.95683 146.469 7.3259C144.284 8.8082 144.004 10.7331 144.785 13.0595Z" fill="#FFFBF0"/>
<path d="M144.786 13.0595C146.149 16.8477 150.439 19.6578 150.439 19.6578C150.439 19.6578 155.15 19.1123 157.455 15.7153C158.758 13.7698 158.367 11.3817 157.154 8.66411C158.828 12.9463 153.696 18.2991 149.326 16.1065C143.783 13.3272 146.389 7.33622 146.409 7.29504C144.284 8.80823 144.004 10.7332 144.786 13.0595Z" fill="#F5F1E6"/>
<path d="M153.305 11.4429C153.305 11.4429 149.887 11.4429 148.464 9.28174C148.795 10.5784 150.93 11.9266 153.305 11.4429Z" fill="#C7622D"/>
<path d="M148.955 9.16802C148.955 9.16802 148.203 8.63339 147.873 9.25027C147.913 8.72592 148.594 8.67451 148.955 9.16802Z" fill="#C7622D"/>
<path d="M152.303 7.36707C152.303 7.36707 153.225 8.20046 152.884 8.8075C152.719 8.96104 152.516 9.06453 152.297 9.10645C152.078 9.14838 151.852 9.12708 151.644 9.04495C151.437 8.96281 151.255 8.82306 151.12 8.64125C150.985 8.45945 150.902 8.24274 150.88 8.01526L152.303 7.36707Z" fill="#FFB691"/>
<path opacity="0.5" d="M152.481 8.46597C152.502 8.33701 152.407 8.21426 152.27 8.19181C152.134 8.16936 152.007 8.25569 151.987 8.38466C151.966 8.51362 152.061 8.63637 152.198 8.65882C152.334 8.68127 152.461 8.59493 152.481 8.46597Z" fill="white"/>
<defs>
<clipPath id="clip0_652_12025">
<rect width="30.6778" height="20" fill="white" transform="translate(157 22.1738)"/>
</clipPath>
<clipPath id="clip1_652_12025">
<rect width="22.3436" height="20" fill="white" transform="translate(0 23.2031)"/>
</clipPath>
</defs>
</svg>
