<svg width="80" height="33" viewBox="0 0 80 33" fill="none" xmlns="http://www.w3.org/2000/svg">
<ellipse cx="40" cy="30" rx="40" ry="3" fill="url(#paint0_radial_659_11479)"/>
<g style="mix-blend-mode:screen">
<path style="mix-blend-mode:screen" d="M25.6045 26.32C24.3938 24.5255 23.7698 22.4018 23.818 20.24V17.72V15.14C23.7699 12.9814 24.394 10.8609 25.6045 9.07001C26.7287 7.53001 28.5821 6.76001 31.1648 6.76001C33.7476 6.76001 35.591 7.53001 36.695 9.07001C37.9014 10.8628 38.5251 12.982 38.4815 15.14C38.4815 15.7133 38.4815 16.5733 38.4815 17.72C38.4815 18.8667 38.4815 19.7067 38.4815 20.24C38.5246 22.4011 37.901 24.5233 36.695 26.32C35.5508 27.86 33.7074 28.63 31.1648 28.63C28.6222 28.63 26.7688 27.86 25.6045 26.32ZM35.1092 25.06C36.109 23.5887 36.6054 21.835 36.5244 20.06C36.5244 19.47 36.5244 18.67 36.5244 17.63C36.5244 16.59 36.5244 15.81 36.5244 15.26C36.5902 13.5086 36.0945 11.7819 35.1092 10.33C34.6382 9.7277 34.0255 9.25023 33.3253 8.93979C32.6251 8.62935 31.859 8.49548 31.0946 8.55001C30.3302 8.49548 29.564 8.62935 28.8638 8.93979C28.1637 9.25023 27.551 9.7277 27.0799 10.33C26.0865 11.7785 25.5869 13.5069 25.6547 15.26V17.63V20.06C25.5716 21.8367 26.0719 23.5921 27.0799 25.06C27.5587 25.6511 28.1738 26.118 28.8729 26.421C29.572 26.724 30.3342 26.854 31.0946 26.8C31.855 26.854 32.6172 26.724 33.3163 26.421C34.0153 26.118 34.6304 25.6511 35.1092 25.06V25.06Z" fill="url(#paint1_linear_659_11479)"/>
<path style="mix-blend-mode:screen" d="M41.6831 28.14C41.6177 28.0769 41.5669 28.0004 41.534 27.9158C41.5011 27.8312 41.4869 27.7406 41.4924 27.65V27.2C41.5236 26.9457 41.6075 26.7006 41.7388 26.4802C41.8701 26.2599 42.046 26.0691 42.2551 25.92L50.154 18.06C51.0288 17.3028 51.7894 16.4238 52.4122 15.45C52.811 14.6672 53.0077 13.7976 52.9843 12.92C53.0167 12.3382 52.9292 11.7559 52.7273 11.209C52.5253 10.6621 52.2132 10.1622 51.81 9.74004C51.3606 9.33466 50.8341 9.02315 50.2618 8.82391C49.6895 8.62467 49.0829 8.54175 48.4778 8.58004C47.8819 8.55127 47.2863 8.64175 46.726 8.84613C46.1658 9.05052 45.6523 9.36467 45.2159 9.77004C44.3593 10.64 43.8401 11.7845 43.7506 13C43.745 13.0984 43.7189 13.1946 43.674 13.2824C43.6291 13.3702 43.5663 13.4477 43.4896 13.51C43.3671 13.6181 43.2114 13.6816 43.048 13.69H42.4458C42.3589 13.6963 42.2716 13.6853 42.189 13.6579C42.1063 13.6304 42.0299 13.587 41.9641 13.53C41.9109 13.476 41.8693 13.4119 41.8417 13.3414C41.8141 13.271 41.8011 13.1956 41.8035 13.12C41.8515 12.0913 42.1219 11.085 42.5964 10.17C43.0914 9.16289 43.8598 8.31413 44.8145 7.72004C45.9119 7.03863 47.1851 6.69109 48.4778 6.72004C49.3652 6.65091 50.2571 6.77225 51.0934 7.07586C51.9297 7.37948 52.6908 7.85831 53.3255 8.48004C54.3947 9.69345 54.9615 11.2661 54.9113 12.88C54.9265 14.0222 54.6539 15.15 54.1184 16.16C53.4458 17.3117 52.5919 18.3483 51.5892 19.23L44.4532 26.5H54.6604C54.7551 26.4934 54.8502 26.5059 54.9399 26.5368C55.0296 26.5677 55.112 26.6165 55.1823 26.68C55.2456 26.7504 55.2942 26.8326 55.3253 26.9219C55.3563 27.0112 55.3691 27.1057 55.363 27.2V27.65C55.3693 27.7416 55.3546 27.8333 55.3198 27.9183C55.285 28.0032 55.2311 28.0791 55.1622 28.14C55.0247 28.2625 54.8448 28.327 54.6604 28.32H42.205C42.11 28.3299 42.0141 28.3189 41.9239 28.2878C41.8338 28.2567 41.7515 28.2062 41.6831 28.14V28.14Z" fill="url(#paint2_linear_659_11479)"/>
<path style="mix-blend-mode:screen" d="M7.19185 28.14C7.12653 28.0769 7.07568 28.0004 7.04277 27.9158C7.00986 27.8312 6.99566 27.7406 7.00115 27.65V27.2C7.03239 26.9457 7.11632 26.7006 7.24763 26.4802C7.37893 26.2599 7.55475 26.0691 7.76393 25.92L15.6628 18.06C16.5376 17.3028 17.2982 16.4238 17.921 15.45C18.3198 14.6672 18.5165 13.7976 18.4931 12.92C18.5255 12.3382 18.438 11.7559 18.2361 11.209C18.0341 10.6621 17.722 10.1622 17.3188 9.74004C16.8694 9.33466 16.3429 9.02315 15.7706 8.82391C15.1983 8.62467 14.5917 8.54175 13.9866 8.58004C13.3907 8.55127 12.7951 8.64175 12.2348 8.84613C11.6746 9.05052 11.1611 9.36467 10.7247 9.77004C9.86808 10.64 9.34886 11.7845 9.25939 13C9.2538 13.0984 9.22771 13.1946 9.18279 13.2824C9.13786 13.3702 9.07508 13.4477 8.99844 13.51C8.87593 13.6181 8.72024 13.6816 8.55683 13.69H7.95463C7.86771 13.6963 7.78042 13.6853 7.69775 13.6579C7.61508 13.6304 7.53866 13.587 7.47287 13.53C7.4197 13.476 7.37806 13.4119 7.35046 13.3414C7.32286 13.271 7.30987 13.1956 7.31228 13.12C7.36027 12.0913 7.63073 11.085 8.10518 10.17C8.60021 9.16289 9.36864 8.31413 10.3233 7.72004C11.4207 7.03863 12.6939 6.69109 13.9866 6.72004C14.874 6.65091 15.7659 6.77225 16.6022 7.07586C17.4385 7.37948 18.1996 7.85831 18.8343 8.48004C19.9035 9.69345 20.4703 11.2661 20.4201 12.88C20.4353 14.0222 20.1627 15.15 19.6272 16.16C18.9546 17.3117 18.1006 18.3483 17.098 19.23L9.96196 26.5H20.1692C20.2639 26.4934 20.359 26.5059 20.4487 26.5368C20.5384 26.5677 20.6208 26.6165 20.6911 26.68C20.7544 26.7504 20.803 26.8326 20.8341 26.9219C20.8651 27.0112 20.8779 27.1057 20.8718 27.2V27.65C20.8781 27.7416 20.8634 27.8333 20.8286 27.9183C20.7938 28.0032 20.7399 28.0791 20.671 28.14C20.5335 28.2625 20.3536 28.327 20.1692 28.32H7.71375C7.61884 28.3299 7.52291 28.3189 7.43274 28.2878C7.34256 28.2567 7.26033 28.2062 7.19185 28.14V28.14Z" fill="url(#paint3_linear_659_11479)"/>
<path style="mix-blend-mode:screen" d="M57.1918 28.14C57.1265 28.0769 57.0757 28.0004 57.0428 27.9158C57.0099 27.8312 56.9957 27.7406 57.0012 27.65V27.2C57.0324 26.9457 57.1163 26.7006 57.2476 26.4802C57.3789 26.2599 57.5547 26.0691 57.7639 25.92L65.6628 18.06C66.5376 17.3028 67.2982 16.4238 67.921 15.45C68.3198 14.6672 68.5165 13.7976 68.4931 12.92C68.5255 12.3382 68.438 11.7559 68.2361 11.209C68.0341 10.6621 67.722 10.1622 67.3188 9.74004C66.8694 9.33466 66.3429 9.02315 65.7706 8.82391C65.1983 8.62467 64.5917 8.54175 63.9866 8.58004C63.3907 8.55127 62.7951 8.64175 62.2348 8.84613C61.6746 9.05052 61.1611 9.36467 60.7247 9.77004C59.8681 10.64 59.3489 11.7845 59.2594 13C59.2538 13.0984 59.2277 13.1946 59.1828 13.2824C59.1379 13.3702 59.0751 13.4477 58.9984 13.51C58.8759 13.6181 58.7202 13.6816 58.5568 13.69H57.9546C57.8677 13.6963 57.7804 13.6853 57.6978 13.6579C57.6151 13.6304 57.5387 13.587 57.4729 13.53C57.4197 13.476 57.3781 13.4119 57.3505 13.3414C57.3229 13.271 57.3099 13.1956 57.3123 13.12C57.3603 12.0913 57.6307 11.085 58.1052 10.17C58.6002 9.16289 59.3686 8.31413 60.3233 7.72004C61.4207 7.03863 62.6939 6.69109 63.9866 6.72004C64.874 6.65091 65.7659 6.77225 66.6022 7.07586C67.4385 7.37948 68.1996 7.85831 68.8343 8.48004C69.9035 9.69345 70.4703 11.2661 70.4201 12.88C70.4353 14.0222 70.1627 15.15 69.6272 16.16C68.9546 17.3117 68.1006 18.3483 67.098 19.23L59.962 26.5H70.1692C70.2639 26.4934 70.3589 26.5059 70.4486 26.5368C70.5384 26.5677 70.6208 26.6165 70.6911 26.68C70.7544 26.7504 70.803 26.8326 70.8341 26.9219C70.8651 27.0112 70.8779 27.1058 70.8718 27.2V27.65C70.8781 27.7416 70.8634 27.8333 70.8286 27.9183C70.7938 28.0032 70.7399 28.0791 70.671 28.14C70.5334 28.2625 70.3536 28.327 70.1692 28.32H57.7138C57.6188 28.3299 57.5229 28.3189 57.4327 28.2878C57.3426 28.2567 57.2603 28.2063 57.1918 28.14V28.14Z" fill="url(#paint4_linear_659_11479)"/>
</g>
<g style="mix-blend-mode:screen">
<path d="M10.9912 0.000366211V3.27037H10.5195V1.81037H8.63261V3.27037H8.16089V0.000366211H8.63261V1.41037H10.5195V0.000366211H10.9912Z" fill="#FFD27D"/>
</g>
<g style="mix-blend-mode:screen">
<path d="M15.2768 2.45H13.5405L13.1792 3.27H12.6874L14.1828 0H14.6445L16.1099 3.27H15.6181L15.2768 2.45ZM15.1062 2.08L14.4036 0.48L13.7011 2.08H15.1062Z" fill="#FFD27D"/>
</g>
<g style="mix-blend-mode:screen">
<path d="M20.1244 0.300024C20.2473 0.401356 20.3442 0.530412 20.407 0.676494C20.4698 0.822576 20.4968 0.981477 20.4857 1.14002C20.4953 1.30133 20.4677 1.46267 20.4051 1.61173C20.3424 1.76078 20.2464 1.8936 20.1244 2.00002C19.8347 2.21265 19.4801 2.31867 19.1207 2.30002H18.3078V3.30002H17.8361V2.44735e-05H19.1207C19.4801 -0.0186234 19.8347 0.0873942 20.1244 0.300024V0.300024ZM19.7832 1.68002C19.8627 1.61544 19.9253 1.53253 19.9656 1.43845C20.0058 1.34436 20.0224 1.24194 20.014 1.14002C20.0224 1.03811 20.0058 0.935685 19.9656 0.841604C19.9253 0.747522 19.8627 0.664609 19.7832 0.600025C19.5918 0.46076 19.3571 0.393454 19.1207 0.410024H18.3279V1.87002H19.1207C19.3571 1.88659 19.5918 1.81929 19.7832 1.68002V1.68002Z" fill="#FFD27D"/>
</g>
<g style="mix-blend-mode:screen">
<path d="M24.6811 0.300024C24.8039 0.401356 24.9008 0.530412 24.9637 0.676494C25.0265 0.822576 25.0535 0.981477 25.0424 1.14002C25.0488 1.29803 25.0198 1.45547 24.9572 1.60081C24.8947 1.74616 24.8003 1.87573 24.6811 1.98002C24.3914 2.19265 24.0367 2.29867 23.6774 2.28002H22.8644V3.28002H22.3927V2.44733e-05H23.6774C24.0367 -0.0186234 24.3914 0.0873942 24.6811 0.300024V0.300024ZM24.3398 1.68002C24.4181 1.61436 24.4798 1.53127 24.5199 1.43746C24.56 1.34366 24.5774 1.24177 24.5706 1.14002C24.5774 1.03828 24.56 0.936393 24.5199 0.842586C24.4798 0.748779 24.4181 0.665687 24.3398 0.600024C24.1431 0.456118 23.9004 0.388571 23.6573 0.410024H22.8644V1.87002H23.6573C23.9004 1.89148 24.1431 1.82393 24.3398 1.68002V1.68002Z" fill="#FFD27D"/>
</g>
<g style="mix-blend-mode:screen">
<path d="M28.2039 2.14V3.27H27.7423V2.13L26.4375 0H26.9393L27.9932 1.72L28.9968 0H29.4585L28.2039 2.14Z" fill="#FFD27D"/>
</g>
<g style="mix-blend-mode:screen">
<path d="M36.5042 0V3.27H36.1127L34.1757 0.83V3.27H33.714V0H34.0954L36.1027 2.44V0H36.5042Z" fill="#FFD27D"/>
</g>
<g style="mix-blend-mode:screen">
<path d="M41.0809 2.86V3.27H38.7023V0H41.0207V0.41H39.1941V1.41H40.8401V1.81H39.1941V2.81L41.0809 2.86Z" fill="#FFD27D"/>
</g>
<g style="mix-blend-mode:screen">
<path d="M47.6549 0L46.5509 3.27H46.0591L45.216 0.66L44.3228 3.27H43.8209L42.6768 0H43.2087L44.0919 2.66L44.9651 0H45.3967L46.3 2.67L47.2233 0H47.6549Z" fill="#FFD27D"/>
</g>
<g style="mix-blend-mode:screen">
<path d="M53.2452 2.14V3.27H52.7835V2.13L51.4788 0H51.9806L53.0344 1.72L54.0381 0H54.4998L53.2452 2.14Z" fill="#FFD27D"/>
</g>
<g style="mix-blend-mode:screen">
<path d="M58.5647 2.86V3.27H56.186V0H58.5045V0.41H56.6578V1.41H58.2636V1.81H56.6578V2.81L58.5647 2.86Z" fill="#FFD27D"/>
</g>
<g style="mix-blend-mode:screen">
<path d="M62.6395 2.45H60.8931L60.5318 3.27H60.05L61.5355 0H61.9972L63.4926 3.27H63.0008L62.6395 2.45ZM62.4689 2.08L61.7663 0.48L61.0537 2.08H62.4689Z" fill="#FFD27D"/>
</g>
<g style="mix-blend-mode:screen">
<path d="M67.3869 3.27002L66.6843 2.27002H65.6807V3.27002H65.219V2.05597e-05H66.4936C66.8531 -0.0203189 67.2084 0.0858671 67.4973 0.300021C67.6202 0.401352 67.7171 0.530408 67.7799 0.67649C67.8427 0.822573 67.8697 0.981473 67.8586 1.14002C67.8661 1.36681 67.803 1.59036 67.678 1.78002C67.5467 1.96295 67.3604 2.09954 67.146 2.17002L67.9188 3.27002H67.3869ZM67.136 1.69002C67.2169 1.62383 67.2809 1.53948 67.3228 1.44387C67.3647 1.34827 67.3832 1.24414 67.3769 1.14002C67.3841 1.03725 67.3659 0.93428 67.3239 0.840136C67.2819 0.745992 67.2174 0.663545 67.136 0.600021C66.9419 0.458454 66.7033 0.391029 66.4635 0.410021H65.6606V1.88002H66.4635C66.7027 1.89317 66.9394 1.82629 67.136 1.69002V1.69002Z" fill="#FFD27D"/>
</g>
<defs>
<radialGradient id="paint0_radial_659_11479" cx="0" cy="0" r="1" gradientUnits="userSpaceOnUse" gradientTransform="translate(40 30) rotate(90) scale(3 40)">
<stop stop-color="#FFD78B"/>
<stop offset="0.78125" stop-color="#FBD895" stop-opacity="0"/>
</radialGradient>
<linearGradient id="paint1_linear_659_11479" x1="683.446" y1="441.536" x2="683.446" y2="674.67" gradientUnits="userSpaceOnUse">
<stop stop-color="#FFD27D"/>
<stop offset="0.1" stop-color="#F0B54D"/>
<stop offset="0.21" stop-color="#E49B23"/>
<stop offset="0.29" stop-color="#DC8B0A"/>
<stop offset="0.34" stop-color="#D98500"/>
<stop offset="0.47" stop-color="#A56500"/>
<stop offset="0.66" stop-color="#5F3A00"/>
<stop offset="0.82" stop-color="#2C1B00"/>
<stop offset="0.93" stop-color="#0C0700"/>
<stop offset="1"/>
</linearGradient>
<linearGradient id="paint2_linear_659_11479" x1="904.408" y1="436.554" x2="904.408" y2="667.048" gradientUnits="userSpaceOnUse">
<stop stop-color="#FFD27D"/>
<stop offset="0.1" stop-color="#F0B54D"/>
<stop offset="0.21" stop-color="#E49B23"/>
<stop offset="0.29" stop-color="#DC8B0A"/>
<stop offset="0.34" stop-color="#D98500"/>
<stop offset="0.47" stop-color="#A56500"/>
<stop offset="0.66" stop-color="#5F3A00"/>
<stop offset="0.82" stop-color="#2C1B00"/>
<stop offset="0.93" stop-color="#0C0700"/>
<stop offset="1"/>
</linearGradient>
<linearGradient id="paint3_linear_659_11479" x1="869.917" y1="436.554" x2="869.917" y2="667.048" gradientUnits="userSpaceOnUse">
<stop stop-color="#FFD27D"/>
<stop offset="0.1" stop-color="#F0B54D"/>
<stop offset="0.21" stop-color="#E49B23"/>
<stop offset="0.29" stop-color="#DC8B0A"/>
<stop offset="0.34" stop-color="#D98500"/>
<stop offset="0.47" stop-color="#A56500"/>
<stop offset="0.66" stop-color="#5F3A00"/>
<stop offset="0.82" stop-color="#2C1B00"/>
<stop offset="0.93" stop-color="#0C0700"/>
<stop offset="1"/>
</linearGradient>
<linearGradient id="paint4_linear_659_11479" x1="919.916" y1="436.554" x2="919.916" y2="667.048" gradientUnits="userSpaceOnUse">
<stop stop-color="#FFD27D"/>
<stop offset="0.1" stop-color="#F0B54D"/>
<stop offset="0.21" stop-color="#E49B23"/>
<stop offset="0.29" stop-color="#DC8B0A"/>
<stop offset="0.34" stop-color="#D98500"/>
<stop offset="0.47" stop-color="#A56500"/>
<stop offset="0.66" stop-color="#5F3A00"/>
<stop offset="0.82" stop-color="#2C1B00"/>
<stop offset="0.93" stop-color="#0C0700"/>
<stop offset="1"/>
</linearGradient>
</defs>
</svg>
