<?xml version="1.0" encoding="utf-8"?>
<!-- Generator: Adobe Illustrator 25.0.0, SVG Export Plug-In . SVG Version: 6.00 Build 0)  -->
<svg version="1.1" id="Layer_1" xmlns="http://www.w3.org/2000/svg" xmlns:xlink="http://www.w3.org/1999/xlink" x="0px" y="0px"
	 viewBox="0 0 80 33.6" style="enable-background:new 0 0 80 33.6;" xml:space="preserve">
<style type="text/css">
	.st0{display:none;fill:url(#SVGID_1_);}
	.st1{fill:url(#SVGID_2_);}
	.st2{fill:url(#SVGID_3_);}
	.st3{fill:url(#SVGID_4_);}
	.st4{fill:url(#SVGID_5_);}
	.st5{fill:#FFD27D;}
	.st6{display:none;fill:#CE6167;}
	.st7{fill:url(#SVGID_6_);}
</style>
<radialGradient id="SVGID_1_" cx="-123.6486" cy="272.225" r="1" gradientTransform="matrix(1.836970e-16 3 40 -2.449294e-15 -10841.3154 400.9456)" gradientUnits="userSpaceOnUse">
	<stop  offset="0" style="stop-color:#FFD78B"/>
	<stop  offset="0.7812" style="stop-color:#FBD895;stop-opacity:0"/>
</radialGradient>
<ellipse class="st0" cx="47.7" cy="30" rx="40" ry="3"/>
<g>
	
		<linearGradient id="SVGID_2_" gradientUnits="userSpaceOnUse" x1="31.8343" y1="-407.536" x2="31.8343" y2="-640.67" gradientTransform="matrix(1 0 0 -1 0 34)">
		<stop  offset="0" style="stop-color:#FFD27D"/>
		<stop  offset="0.1" style="stop-color:#F0B54D"/>
		<stop  offset="0.21" style="stop-color:#E49B23"/>
		<stop  offset="0.29" style="stop-color:#DC8B0A"/>
		<stop  offset="0.34" style="stop-color:#D98500"/>
		<stop  offset="0.47" style="stop-color:#A56500"/>
		<stop  offset="0.66" style="stop-color:#5F3A00"/>
		<stop  offset="0.82" style="stop-color:#2C1B00"/>
		<stop  offset="0.93" style="stop-color:#0C0700"/>
		<stop  offset="1" style="stop-color:#000000"/>
	</linearGradient>
	<path class="st1" d="M26.3,26.3c-1.2-1.8-1.8-3.9-1.8-6.1v-2.5v-2.6c0-2.2,0.6-4.3,1.8-6.1c1.1-1.5,3-2.3,5.6-2.3
		c2.6,0,4.4,0.8,5.5,2.3c1.2,1.8,1.8,3.9,1.8,6.1c0,0.6,0,1.4,0,2.6s0,2,0,2.5c0,2.2-0.6,4.3-1.8,6.1c-1.1,1.5-3,2.3-5.5,2.3
		S27.5,27.9,26.3,26.3z M35.8,25.1c1-1.5,1.5-3.2,1.4-5c0-0.6,0-1.4,0-2.4c0-1,0-1.8,0-2.4c0.1-1.8-0.4-3.5-1.4-4.9
		c-0.5-0.6-1.1-1.1-1.8-1.4c-0.7-0.3-1.5-0.4-2.2-0.4c-0.8-0.1-1.5,0.1-2.2,0.4c-0.7,0.3-1.3,0.8-1.8,1.4c-1,1.4-1.5,3.2-1.4,4.9
		v2.4v2.4c-0.1,1.8,0.4,3.5,1.4,5c0.5,0.6,1.1,1.1,1.8,1.4c0.7,0.3,1.5,0.4,2.2,0.4c0.8,0.1,1.5-0.1,2.2-0.4
		C34.7,26.1,35.3,25.7,35.8,25.1L35.8,25.1z"/>
	
		<linearGradient id="SVGID_3_" gradientUnits="userSpaceOnUse" x1="49.1126" y1="-402.554" x2="49.1126" y2="-633.048" gradientTransform="matrix(1 0 0 -1 0 34)">
		<stop  offset="0" style="stop-color:#FFD27D"/>
		<stop  offset="0.1" style="stop-color:#F0B54D"/>
		<stop  offset="0.21" style="stop-color:#E49B23"/>
		<stop  offset="0.29" style="stop-color:#DC8B0A"/>
		<stop  offset="0.34" style="stop-color:#D98500"/>
		<stop  offset="0.47" style="stop-color:#A56500"/>
		<stop  offset="0.66" style="stop-color:#5F3A00"/>
		<stop  offset="0.82" style="stop-color:#2C1B00"/>
		<stop  offset="0.93" style="stop-color:#0C0700"/>
		<stop  offset="1" style="stop-color:#000000"/>
	</linearGradient>
	<path class="st2" d="M42.4,28.1c-0.1-0.1-0.1-0.1-0.1-0.2c0-0.1,0-0.2,0-0.3v-0.4c0-0.3,0.1-0.5,0.2-0.7c0.1-0.2,0.3-0.4,0.5-0.6
		l7.9-7.9c0.9-0.8,1.6-1.6,2.3-2.6c0.4-0.8,0.6-1.7,0.6-2.5c0-0.6-0.1-1.2-0.3-1.7c-0.2-0.5-0.5-1-0.9-1.5c-0.4-0.4-1-0.7-1.5-0.9
		c-0.6-0.2-1.2-0.3-1.8-0.2c-0.6,0-1.2,0.1-1.8,0.3c-0.6,0.2-1.1,0.5-1.5,0.9c-0.9,0.9-1.4,2-1.5,3.2c0,0.1,0,0.2-0.1,0.3
		s-0.1,0.2-0.2,0.2c-0.1,0.1-0.3,0.2-0.4,0.2h-0.6c-0.1,0-0.2,0-0.3,0c-0.1,0-0.2-0.1-0.2-0.1c-0.1-0.1-0.1-0.1-0.1-0.2
		c0-0.1,0-0.1,0-0.2c0-1,0.3-2,0.8-2.9c0.5-1,1.3-1.9,2.2-2.4c1.1-0.7,2.4-1,3.7-1c0.9-0.1,1.8,0.1,2.6,0.4c0.8,0.3,1.6,0.8,2.2,1.4
		c1.1,1.2,1.6,2.8,1.6,4.4c0,1.1-0.3,2.3-0.8,3.3c-0.7,1.2-1.5,2.2-2.5,3.1l-7.1,7.3h10.2c0.1,0,0.2,0,0.3,0c0.1,0,0.2,0.1,0.2,0.1
		c0.1,0.1,0.1,0.2,0.1,0.2c0,0.1,0,0.2,0,0.3v0.4c0,0.1,0,0.2,0,0.3c0,0.1-0.1,0.2-0.2,0.2c-0.1,0.1-0.3,0.2-0.5,0.2H42.9
		c-0.1,0-0.2,0-0.3,0C42.5,28.3,42.4,28.2,42.4,28.1L42.4,28.1z"/>
	
		<linearGradient id="SVGID_4_" gradientUnits="userSpaceOnUse" x1="14.6214" y1="-402.554" x2="14.6214" y2="-633.048" gradientTransform="matrix(1 0 0 -1 0 34)">
		<stop  offset="0" style="stop-color:#FFD27D"/>
		<stop  offset="0.1" style="stop-color:#F0B54D"/>
		<stop  offset="0.21" style="stop-color:#E49B23"/>
		<stop  offset="0.29" style="stop-color:#DC8B0A"/>
		<stop  offset="0.34" style="stop-color:#D98500"/>
		<stop  offset="0.47" style="stop-color:#A56500"/>
		<stop  offset="0.66" style="stop-color:#5F3A00"/>
		<stop  offset="0.82" style="stop-color:#2C1B00"/>
		<stop  offset="0.93" style="stop-color:#0C0700"/>
		<stop  offset="1" style="stop-color:#000000"/>
	</linearGradient>
	<path class="st3" d="M7.9,28.1c-0.1-0.1-0.1-0.1-0.1-0.2s0-0.2,0-0.3v-0.4c0-0.3,0.1-0.5,0.2-0.7c0.1-0.2,0.3-0.4,0.5-0.6l7.9-7.9
		c0.9-0.8,1.6-1.6,2.3-2.6c0.4-0.8,0.6-1.7,0.6-2.5c0-0.6-0.1-1.2-0.3-1.7c-0.2-0.5-0.5-1-0.9-1.5c-0.4-0.4-1-0.7-1.5-0.9
		c-0.6-0.2-1.2-0.3-1.8-0.2c-0.6,0-1.2,0.1-1.8,0.3c-0.6,0.2-1.1,0.5-1.5,0.9c-0.9,0.9-1.4,2-1.5,3.2c0,0.1,0,0.2-0.1,0.3
		c0,0.1-0.1,0.2-0.2,0.2c-0.1,0.1-0.3,0.2-0.4,0.2H8.6c-0.1,0-0.2,0-0.3,0c-0.1,0-0.2-0.1-0.2-0.1c-0.1-0.1-0.1-0.1-0.1-0.2
		c0-0.1,0-0.1,0-0.2c0-1,0.3-2,0.8-2.9c0.5-1,1.3-1.9,2.2-2.4c1.1-0.7,2.4-1,3.7-1c0.9-0.1,1.8,0.1,2.6,0.4c0.8,0.3,1.6,0.8,2.2,1.4
		c1.1,1.2,1.6,2.8,1.6,4.4c0,1.1-0.3,2.3-0.8,3.3c-0.7,1.2-1.5,2.2-2.5,3.1l-7.1,7.3h10.2c0.1,0,0.2,0,0.3,0c0.1,0,0.2,0.1,0.2,0.1
		c0.1,0.1,0.1,0.2,0.1,0.2c0,0.1,0,0.2,0,0.3v0.4c0,0.1,0,0.2,0,0.3c0,0.1-0.1,0.2-0.2,0.2c-0.1,0.1-0.3,0.2-0.5,0.2H8.4
		c-0.1,0-0.2,0-0.3,0C8,28.3,7.9,28.2,7.9,28.1L7.9,28.1z"/>
	
		<linearGradient id="SVGID_5_" gradientUnits="userSpaceOnUse" x1="64.6214" y1="-402.554" x2="64.6214" y2="-633.048" gradientTransform="matrix(1 0 0 -1 0 34)">
		<stop  offset="0" style="stop-color:#FFD27D"/>
		<stop  offset="0.1" style="stop-color:#F0B54D"/>
		<stop  offset="0.21" style="stop-color:#E49B23"/>
		<stop  offset="0.29" style="stop-color:#DC8B0A"/>
		<stop  offset="0.34" style="stop-color:#D98500"/>
		<stop  offset="0.47" style="stop-color:#A56500"/>
		<stop  offset="0.66" style="stop-color:#5F3A00"/>
		<stop  offset="0.82" style="stop-color:#2C1B00"/>
		<stop  offset="0.93" style="stop-color:#0C0700"/>
		<stop  offset="1" style="stop-color:#000000"/>
	</linearGradient>
	<path class="st4" d="M57.9,28.1c-0.1-0.1-0.1-0.1-0.1-0.2c0-0.1,0-0.2,0-0.3v-0.4c0-0.3,0.1-0.5,0.2-0.7c0.1-0.2,0.3-0.4,0.5-0.6
		l7.9-7.9c0.9-0.8,1.6-1.6,2.3-2.6c0.4-0.8,0.6-1.7,0.6-2.5c0-0.6-0.1-1.2-0.3-1.7c-0.2-0.5-0.5-1-0.9-1.5c-0.4-0.4-1-0.7-1.5-0.9
		c-0.6-0.2-1.2-0.3-1.8-0.2c-0.6,0-1.2,0.1-1.8,0.3c-0.6,0.2-1.1,0.5-1.5,0.9c-0.9,0.9-1.4,2-1.5,3.2c0,0.1,0,0.2-0.1,0.3
		s-0.1,0.2-0.2,0.2c-0.1,0.1-0.3,0.2-0.4,0.2h-0.6c-0.1,0-0.2,0-0.3,0c-0.1,0-0.2-0.1-0.2-0.1c-0.1-0.1-0.1-0.1-0.1-0.2
		c0-0.1,0-0.1,0-0.2c0-1,0.3-2,0.8-2.9c0.5-1,1.3-1.9,2.2-2.4c1.1-0.7,2.4-1,3.7-1c0.9-0.1,1.8,0.1,2.6,0.4c0.8,0.3,1.6,0.8,2.2,1.4
		c1.1,1.2,1.6,2.8,1.6,4.4c0,1.1-0.3,2.3-0.8,3.3c-0.7,1.2-1.5,2.2-2.5,3.1l-7.1,7.3h10.2c0.1,0,0.2,0,0.3,0c0.1,0,0.2,0.1,0.2,0.1
		c0.1,0.1,0.1,0.2,0.1,0.2c0,0.1,0,0.2,0,0.3v0.4c0,0.1,0,0.2,0,0.3c0,0.1-0.1,0.2-0.2,0.2c-0.1,0.1-0.3,0.2-0.5,0.2H58.4
		c-0.1,0-0.2,0-0.3,0C58,28.3,57.9,28.2,57.9,28.1L57.9,28.1z"/>
</g>
<g>
	<path class="st5" d="M12.7,0v3.3h-0.5V1.8h-1.9v1.5H9.8V0h0.5v1.4h1.9V0H12.7z"/>
</g>
<g>
	<path class="st5" d="M17,2.5h-1.7l-0.4,0.8h-0.5L15.9,0h0.5l1.5,3.3h-0.5L17,2.5z M16.8,2.1l-0.7-1.6l-0.7,1.6H16.8z"/>
</g>
<g>
	<path class="st5" d="M21.8,0.3c0.1,0.1,0.2,0.2,0.3,0.4c0.1,0.1,0.1,0.3,0.1,0.5c0,0.2,0,0.3-0.1,0.5C22,1.8,21.9,1.9,21.8,2
		c-0.3,0.2-0.6,0.3-1,0.3H20v1h-0.5V0h1.3C21.2,0,21.5,0.1,21.8,0.3L21.8,0.3z M21.5,1.7c0.1-0.1,0.1-0.1,0.2-0.2
		c0-0.1,0.1-0.2,0-0.3c0-0.1,0-0.2,0-0.3c0-0.1-0.1-0.2-0.2-0.2c-0.2-0.1-0.4-0.2-0.7-0.2H20v1.5h0.8C21,1.9,21.3,1.8,21.5,1.7
		L21.5,1.7z"/>
</g>
<g>
	<path class="st5" d="M26.4,0.3c0.1,0.1,0.2,0.2,0.3,0.4c0.1,0.1,0.1,0.3,0.1,0.5c0,0.2,0,0.3-0.1,0.5c-0.1,0.1-0.2,0.3-0.3,0.4
		c-0.3,0.2-0.6,0.3-1,0.3h-0.8v1h-0.5V0h1.3C25.7,0,26.1,0.1,26.4,0.3L26.4,0.3z M26,1.7c0.1-0.1,0.1-0.1,0.2-0.2
		c0-0.1,0.1-0.2,0.1-0.3c0-0.1,0-0.2-0.1-0.3S26.1,0.7,26,0.6c-0.2-0.1-0.4-0.2-0.7-0.2h-0.8v1.5h0.8C25.6,1.9,25.8,1.8,26,1.7
		L26,1.7z"/>
</g>
<g>
	<path class="st5" d="M29.9,2.1v1.1h-0.5V2.1L28.1,0h0.5l1.1,1.7l1-1.7h0.5L29.9,2.1z"/>
</g>
<g>
	<path class="st5" d="M38.2,0v3.3h-0.4l-1.9-2.4v2.4h-0.5V0h0.4l2,2.4V0H38.2z"/>
</g>
<g>
	<path class="st5" d="M42.8,2.9v0.4h-2.4V0h2.3v0.4h-1.8v1h1.6v0.4h-1.6v1L42.8,2.9z"/>
</g>
<g>
	<path class="st5" d="M49.3,0l-1.1,3.3h-0.5l-0.8-2.6L46,3.3h-0.5L44.4,0h0.5l0.9,2.7L46.6,0h0.4L48,2.7L48.9,0H49.3z"/>
</g>
<g>
	<path class="st5" d="M54.9,2.1v1.1h-0.5V2.1L53.2,0h0.5l1.1,1.7l1-1.7h0.5L54.9,2.1z"/>
</g>
<g>
	<path class="st5" d="M60.2,2.9v0.4h-2.4V0h2.3v0.4h-1.8v1h1.6v0.4h-1.6v1L60.2,2.9z"/>
</g>
<g>
	<path class="st5" d="M64.3,2.5h-1.7l-0.4,0.8h-0.5L63.2,0h0.5l1.5,3.3h-0.5L64.3,2.5z M64.2,2.1l-0.7-1.6l-0.7,1.6H64.2z"/>
</g>
<g>
	<path class="st5" d="M69.1,3.3l-0.7-1h-1v1h-0.5V0h1.3c0.4,0,0.7,0.1,1,0.3c0.1,0.1,0.2,0.2,0.3,0.4c0.1,0.1,0.1,0.3,0.1,0.5
		c0,0.2-0.1,0.5-0.2,0.6C69.2,2,69,2.1,68.8,2.2l0.8,1.1H69.1z M68.8,1.7C68.9,1.6,69,1.5,69,1.4c0-0.1,0.1-0.2,0.1-0.3
		c0-0.1,0-0.2-0.1-0.3s-0.1-0.2-0.2-0.2c-0.2-0.1-0.4-0.2-0.7-0.2h-0.8v1.5h0.8C68.4,1.9,68.6,1.8,68.8,1.7L68.8,1.7z"/>
</g>
<rect x="15.7" y="0.1" class="st6" width="64.9" height="31.1"/>
<rect x="7.7" y="-49.6" class="st5" width="64.6" height="33.2"/>
<radialGradient id="SVGID_6_" cx="-123.6757" cy="272.0232" r="1" gradientTransform="matrix(1.836970e-16 3 40 -2.449294e-15 -10841.3154 400.9456)" gradientUnits="userSpaceOnUse">
	<stop  offset="0" style="stop-color:#FFD78B"/>
	<stop  offset="0.7812" style="stop-color:#FBD895;stop-opacity:0"/>
</radialGradient>
<ellipse class="st7" cx="39.6" cy="29.9" rx="40" ry="3"/>
</svg>
