<svg width="48" height="48" viewBox="0 0 48 48" fill="none" xmlns="http://www.w3.org/2000/svg">
<path d="M24 40C32.8366 40 40 32.8366 40 24C40 15.1634 32.8366 8 24 8C15.1634 8 8 15.1634 8 24C8 32.8366 15.1634 40 24 40Z" fill="url(#paint0_linear)"/>
<path d="M18.375 23.0625C19.9259 23.0625 21.1875 21.8009 21.1875 20.25C21.1875 18.6991 19.9259 17.4375 18.375 17.4375C16.8241 17.4375 15.5625 18.6991 15.5625 20.25C15.5625 21.8009 16.8241 23.0625 18.375 23.0625ZM29.625 23.0625C31.1759 23.0625 32.4375 21.8009 32.4375 20.25C32.4375 18.6991 31.1759 17.4375 29.625 17.4375C28.0741 17.4375 26.8125 18.6991 26.8125 20.25C26.8125 21.8009 28.0741 23.0625 29.625 23.0625ZM31.5 24.9375H16.5C15.9818 24.9375 15.5625 25.3568 15.5625 25.875C15.5625 30.5277 19.3473 34.3125 24 34.3125C28.6527 34.3125 32.4375 30.5277 32.4375 25.875C32.4375 25.3568 32.0182 24.9375 31.5 24.9375Z" fill="url(#paint1_linear)"/>
<defs>
<linearGradient id="paint0_linear" x1="24" y1="40" x2="24" y2="8" gradientUnits="userSpaceOnUse">
<stop stop-color="#FD5900"/>
<stop offset="1" stop-color="#FFDE00"/>
</linearGradient>
<linearGradient id="paint1_linear" x1="24" y1="34.3125" x2="24" y2="17.4375" gradientUnits="userSpaceOnUse">
<stop stop-color="#FFE59A"/>
<stop offset="1" stop-color="#FFFFD5"/>
</linearGradient>
</defs>
</svg>
