<svg width="36" height="36" viewBox="0 0 36 36" fill="none" xmlns="http://www.w3.org/2000/svg">
<g opacity="0.2" clip-path="url(#clip0)">
<path d="M36 18C36 21.553 34.9453 25.0085 32.9502 27.9926C32.5187 28.6381 31.6453 28.8116 30.9996 28.3799C30.3539 27.9484 30.1805 27.075 30.612 26.4293C32.2971 23.9093 33.1875 20.9946 33.1875 18C33.1875 9.62567 26.3743 2.8125 18 2.8125C9.62567 2.8125 2.8125 9.62567 2.8125 18C2.8125 26.3743 9.62567 33.1875 18 33.1875C20.7779 33.1875 23.4945 32.4311 25.8566 31.0004C26.5207 30.598 27.3853 30.8103 27.7877 31.4745C28.1904 32.1389 27.9781 33.0035 27.3137 33.4059C24.5121 35.103 21.2915 36 18 36C13.1921 36 8.67178 34.1277 5.27206 30.7279C1.87234 27.3282 0 22.8079 0 18C0 13.1921 1.87234 8.67178 5.27206 5.27206C8.67178 1.87234 13.1921 0 18 0C22.8079 0 27.3282 1.87234 30.7279 5.27206C34.1277 8.67178 36 13.1921 36 18ZM28.125 18C28.125 17.2233 27.4955 16.5938 26.7188 16.5938H12.1512L17.2334 11.5444C17.7844 10.997 17.7871 10.1066 17.2397 9.55563C16.6924 9.00467 15.8019 9.00192 15.2509 9.54932L9.75256 15.0123C8.94974 15.8099 8.50781 16.8709 8.50781 18C8.50781 19.1291 8.94974 20.1901 9.75256 20.9875L15.2509 26.4507C15.5253 26.7231 15.8838 26.8594 16.2422 26.8594C16.6036 26.8594 16.9648 26.7209 17.2397 26.4444C17.7871 25.8934 17.7844 25.003 17.2334 24.4556L12.1512 19.4062H26.7188C27.4955 19.4062 28.125 18.7767 28.125 18Z" fill="white"/>
</g>
<defs>
<clipPath id="clip0">
<rect width="36" height="36" fill="white"/>
</clipPath>
</defs>
</svg>
