<svg width="36" height="36" viewBox="0 0 36 36" fill="none" xmlns="http://www.w3.org/2000/svg">
<g opacity="0.2">
<path d="M0 18C0 21.553 1.05469 25.0085 3.0498 27.9926C3.48129 28.6381 4.35471 28.8116 5.00043 28.3799C5.64615 27.9484 5.81946 27.075 5.38797 26.4293C3.70294 23.9093 2.8125 20.9946 2.8125 18C2.8125 9.62567 9.62567 2.8125 18 2.8125C26.3743 2.8125 33.1875 9.62567 33.1875 18C33.1875 26.3743 26.3743 33.1875 18 33.1875C15.2221 33.1875 12.5055 32.4311 10.1434 31.0004C9.47928 30.598 8.61465 30.8103 8.21228 31.4745C7.80963 32.1389 8.02194 33.0035 8.68634 33.4059C11.4879 35.103 14.7085 36 18 36C22.8079 36 27.3282 34.1277 30.7279 30.7279C34.1277 27.3282 36 22.8079 36 18C36 13.1921 34.1277 8.67178 30.7279 5.27206C27.3282 1.87234 22.8079 0 18 0C13.1921 0 8.67178 1.87234 5.27206 5.27206C1.87234 8.67178 0 13.1921 0 18ZM7.875 18C7.875 17.2233 8.50452 16.5938 9.28125 16.5938H23.8488L18.7666 11.5444C18.2156 10.997 18.2129 10.1066 18.7603 9.55563C19.3076 9.00467 20.1981 9.00192 20.7491 9.54932L26.2474 15.0123C27.0503 15.8099 27.4922 16.8709 27.4922 18C27.4922 19.1291 27.0503 20.1901 26.2474 20.9875L20.7491 26.4507C20.4747 26.7231 20.1162 26.8594 19.7578 26.8594C19.3964 26.8594 19.0352 26.7209 18.7603 26.4444C18.2129 25.8934 18.2156 25.003 18.7666 24.4556L23.8488 19.4062H9.28125C8.50452 19.4062 7.875 18.7767 7.875 18Z" fill="white"/>
</g>
</svg>
