<svg width="121" height="24" viewBox="0 0 121 24" fill="none" xmlns="http://www.w3.org/2000/svg">
<path d="M8.39682 16.6292L7.81339 22.9185H1.83844L0 3.17139H9.65393L9.10827 9.0366L14.1031 3.17139H19.4674L14.2794 11.6121L20.4999 22.9185H14.4935C11.6337 19.9859 9.60146 17.8895 8.39682 16.6292Z" fill="white"/>
<path d="M49.3337 7.01667C50.765 7.01667 51.9962 7.6572 53.0274 8.93826C54.0585 10.2193 54.5741 11.8872 54.5741 13.942C54.5741 15.9923 54.339 18.9844 53.8689 22.9184H48.5068L47.894 15.6181C47.6897 13.2955 47.0972 12.1335 46.1164 12.132C44.9538 12.132 44.3312 13.3052 44.2486 15.6516L44.0387 22.9184H38.3954L37.7511 7.47196H44.6767L44.555 10.2439C44.7543 9.88027 44.9908 9.54121 45.2602 9.23286C45.5799 8.82194 45.9393 8.44791 46.3326 8.11695C47.1866 7.39882 48.2449 7.01083 49.3337 7.01667Z" fill="white"/>
<path d="M68.7108 7.01688C69.8749 7.01688 70.8249 7.38067 71.5608 8.10824C72.2809 8.81662 72.7932 9.73112 73.0362 10.7418C73.3194 12.0219 73.4484 13.335 73.4203 14.6497C73.4203 16.2373 73.1852 18.9965 72.7151 22.9275H67.353L66.6793 15.3683C66.5562 14.065 66.3925 13.1953 66.1882 12.7593C66.0953 12.5512 65.9453 12.3778 65.758 12.2619C65.5708 12.146 65.3549 12.093 65.1389 12.1099C63.9342 12.1099 63.2808 13.2065 63.1787 15.3996L62.8723 22.9275H57.2415L56.402 1.77881H63.695L63.3886 10.2597C64.0433 8.86854 65.1263 7.90142 66.6373 7.35835C67.3072 7.12901 68.007 7.01376 68.7108 7.01688Z" fill="white"/>
<path d="M87.5465 7.01677C88.7092 7.01677 89.6592 7.38056 90.3965 8.10813C91.1197 8.81571 91.6356 9.73011 91.8824 10.7417C92.1637 12.0221 92.292 13.3351 92.2643 14.6496C92.2643 16.2372 92.0293 18.9964 91.5592 22.9274H86.197L85.5234 15.3682C85.4016 14.0649 85.2379 13.1952 85.0323 12.7592C84.9398 12.5507 84.79 12.3769 84.6026 12.261C84.4152 12.145 84.1991 12.0923 83.9829 12.1098C82.7769 12.1098 82.1228 13.2063 82.0207 15.3995L81.7227 22.9185H76.0856L75.2587 1.76978H82.5621L82.2557 10.2507C82.9091 8.85951 83.9913 7.89239 85.5024 7.34932C86.1634 7.12631 86.853 7.01412 87.5465 7.01677Z" fill="white"/>
<path d="M119.965 7.92965L120.487 7.73326L119.438 22.9096H113.646L112.666 7.73326C113.849 8.23675 115.114 8.49141 116.389 8.48315C117.601 8.50059 118.808 8.31378 119.965 7.92965ZM116.565 7.03693C115.622 7.06707 114.702 6.71804 113.99 6.05939C113.662 5.73272 113.401 5.33834 113.222 4.90046C113.043 4.46257 112.95 3.99041 112.948 3.51291C112.947 3.03541 113.037 2.56265 113.214 2.12361C113.391 1.68456 113.65 1.2885 113.975 0.959691C114.708 0.335425 115.62 -0.00322495 116.56 2.31492e-05C117.499 0.00327125 118.409 0.348222 119.138 0.977546C119.467 1.30198 119.729 1.69512 119.909 2.13234C120.088 2.56955 120.18 3.04144 120.18 3.51847C120.18 3.99549 120.088 4.46739 119.909 4.9046C119.729 5.34182 119.467 5.73496 119.138 6.05939C118.427 6.7228 117.506 7.07595 116.561 7.04809L116.565 7.03693Z" fill="white"/>
<path d="M31.5285 18.408C32.6557 18.0907 33.6332 17.342 34.2735 16.3057L36.7374 18.0911C36.5195 18.6078 36.2462 19.0961 35.9231 19.5463C35.4105 20.1977 34.815 20.7701 34.1539 21.2469C33.2651 21.9271 32.2705 22.4356 31.2158 22.7489C28.9968 23.4319 26.9513 23.3225 25.0792 22.4208C23.2072 21.5192 21.9088 19.7419 21.1841 17.089C20.7294 15.4226 20.7245 13.8864 21.1694 12.4803C21.9711 9.88101 23.8333 8.12978 26.7561 7.22664C28.9947 6.53775 30.831 6.48568 32.2651 7.07041C33.6992 7.65515 34.645 8.78296 35.1025 10.4538C35.2807 11.0601 35.3191 11.703 35.2147 12.3283C35.1102 12.9537 34.8659 13.5432 34.5023 14.0471C33.751 15.1496 32.4428 15.988 30.5778 16.5623C29.7787 16.814 28.9572 16.977 28.1265 17.0489C28.2459 17.3751 28.4322 17.669 28.6718 17.9091C28.9114 18.1493 29.1983 18.3296 29.5116 18.4371C30.1716 18.6414 30.8739 18.6313 31.5285 18.408ZM28.9786 13.5628C29.531 13.4249 30.0348 13.1222 30.4309 12.6901C30.5759 12.5373 30.6799 12.346 30.7319 12.136C30.7839 11.926 30.7822 11.7051 30.7268 11.4961C30.6768 11.2971 30.5844 11.113 30.4566 10.9581C30.3289 10.8033 30.1692 10.6819 29.9901 10.6034C29.5529 10.4239 29.0698 10.4168 28.6281 10.5833C28.3475 10.6801 28.0888 10.8375 27.8681 11.0457C27.6475 11.2538 27.4696 11.5082 27.3458 11.7929C27.1862 12.0933 27.0853 12.4249 27.0493 12.7678C27.0132 13.1106 27.0427 13.4577 27.1359 13.7882C27.758 13.8359 28.3829 13.7594 28.9786 13.5628Z" fill="#FFCB3B"/>
<path d="M24.053 5.63977L28.5211 3.17139L33.3312 5.63977C30.2635 5.0481 27.1207 5.0481 24.053 5.63977Z" fill="#FFCB3B"/>
<path d="M98.0462 22.4431C96.5072 22.1038 95.3347 21.3473 94.5288 20.1733C93.7229 18.9994 93.4906 17.5346 93.832 15.7789C94.172 14.0247 94.98 12.8708 96.256 12.3173C97.532 11.7638 98.9598 11.6612 100.539 12.0093C101.953 12.2827 103.299 12.8607 104.495 13.7077C104.578 11.8851 103.699 10.7692 101.857 10.36C100.793 10.1634 99.7082 10.1154 98.6317 10.2172L98.4386 7.18192C100.328 6.78843 102.273 6.79602 104.16 7.20424C109.522 8.38115 111.733 11.3948 110.791 16.2453C110.47 17.9036 109.87 19.3364 108.94 22.1931C108.94 22.1931 108.754 23.001 108.433 23.1238C106.533 23.8625 100.191 22.9118 98.0462 22.4431ZM101.515 19.0775C102.344 19.2829 103.215 19.1805 103.981 18.7874L104.21 16.6404C103.789 16.1746 103.244 15.8575 102.649 15.732C102.117 15.5897 101.556 15.6424 101.056 15.8815C100.85 15.9743 100.669 16.1186 100.527 16.302C100.385 16.4854 100.287 16.7026 100.241 16.935C100.151 17.3935 100.226 17.8715 100.451 18.274C100.561 18.4838 100.714 18.6648 100.898 18.8038C101.082 18.9428 101.293 19.0363 101.515 19.0775Z" fill="#FFCB3B"/>
<path d="M107.939 5.94104C101.78 1.60909 99.6391 1.96172 99.4691 3.38115C99.2109 5.56833 107.939 5.94104 107.939 5.94104Z" fill="#FFCB3B"/>
</svg>
