<svg xmlns="http://www.w3.org/2000/svg" width="31" height="36" viewBox="0 0 31 36">
  <metadata><?xpacket begin="﻿" id="W5M0MpCehiHzreSzNTczkc9d"?>
<x:xmpmeta xmlns:x="adobe:ns:meta/" x:xmptk="Adobe XMP Core 5.6-c138 79.159824, 2016/09/14-01:09:01        ">
   <rdf:RDF xmlns:rdf="http://www.w3.org/1999/02/22-rdf-syntax-ns#">
      <rdf:Description rdf:about=""/>
   </rdf:RDF>
</x:xmpmeta>
                                                                                                    
                                                                                                    
                                                                                                    
                                                                                                    
                                                                                                    
                                                                                                    
                                                                                                    
                                                                                                    
                                                                                                    
                                                                                                    
                                                                                                    
                                                                                                    
                                                                                                    
                                                                                                    
                                                                                                    
                                                                                                    
                                                                                                    
                                                                                                    
                                                                                                    
                                                                                                    
                           
<?xpacket end="w"?></metadata>
<defs>
    <style>
      .cls-1 {
        fill: #f93;
        fill-rule: evenodd;
      }
    </style>
  </defs>
  <path id="mask" class="cls-1" d="M31,0S28.177,3.066,15.5,3.066,0,0,0,0V18c0,9.941,6.941,18,15.5,18S31,27.945,31,18V0h0ZM4.909,16.2a0.56,0.56,0,0,1-.58-0.614,4.755,4.755,0,0,1,9.421,0,0.56,0.56,0,0,1-.58.614H4.909Zm18.915,6.089A7.627,7.627,0,0,1,20.9,27.2a8.775,8.775,0,0,1-5.476,1.868,13.148,13.148,0,0,1-1.332-.113,8.983,8.983,0,0,1-1.413-.347,8.689,8.689,0,0,1-2.594-1.4,7.608,7.608,0,0,1-2.922-4.915,0.4,0.4,0,0,1,.552-0.447,20.045,20.045,0,0,0,4,.586l1.919,0.084,1.931,0.03c1.1-.005,2.431-0.012,3.72-0.1a19.727,19.727,0,0,0,3.989-.591A0.4,0.4,0,0,1,23.825,22.291ZM26.091,16.2H17.829a0.56,0.56,0,0,1-.58-0.614,4.755,4.755,0,0,1,9.421,0A0.56,0.56,0,0,1,26.091,16.2Z"/>
</svg>
