<svg width="48" height="48" viewBox="0 0 48 48" fill="none" xmlns="http://www.w3.org/2000/svg">
<path d="M35.25 32.4375C34.7331 32.4375 34.3125 32.0169 34.3125 31.5C34.3125 28.9153 32.2097 26.8125 29.625 26.8125H26.9273C27.6295 26.0819 28.0625 25.0909 28.0625 24C28.0625 23.6187 28.0086 23.2501 27.9099 22.9H31.3429C31.6967 23.0079 32.0641 23.0625 32.4375 23.0625C34.5052 23.0625 36.1875 21.3802 36.1875 19.3125C36.1875 17.9458 35.4358 16.7104 34.2789 16.0576C34.3013 15.8935 34.3125 15.7283 34.3125 15.5625C34.3125 13.785 33.0693 12.2924 31.4068 11.9083C31.2531 11.2252 30.9128 10.5937 30.4116 10.0772C29.6986 9.34225 28.7533 8.9375 27.75 8.9375C27.472 8.9375 27.1964 8.96869 26.9256 9.03062C26.0966 8.36231 25.0773 8 24 8C22.9227 8 21.9034 8.36231 21.0744 9.03062C20.8036 8.96869 20.528 8.9375 20.25 8.9375C19.2467 8.9375 18.3014 9.34225 17.5884 10.0772C17.0873 10.5937 16.7469 11.2253 16.5933 11.9083C14.9308 12.2924 13.6875 13.785 13.6875 15.5625C13.6875 15.7283 13.6988 15.8935 13.7211 16.0576C12.5643 16.7104 11.8125 17.9458 11.8125 19.3125C11.8125 21.3802 13.4948 23.0625 15.5625 23.0625C15.9359 23.0625 16.3034 23.0079 16.6571 22.9H20.0901C19.9914 23.2501 19.9375 23.6187 19.9375 24C19.9375 25.0909 20.3705 26.0819 21.0727 26.8125H18.375C15.7903 26.8125 13.6875 28.9153 13.6875 31.5C13.6875 32.0169 13.2669 32.4375 12.75 32.4375C12.2322 32.4375 11.8125 32.8573 11.8125 33.375C11.8125 33.8927 12.2322 34.3125 12.75 34.3125C13.277 34.3125 13.5024 34.5157 13.9621 34.9754C14.3368 35.3502 14.8134 35.826 15.5625 36.0539L17.6875 37.4375H30.5625L32.4375 36.0539C33.1866 35.826 33.6632 35.3501 34.0379 34.9754C34.4976 34.5157 34.723 34.3125 35.25 34.3125C35.7677 34.3125 36.1875 33.8927 36.1875 33.375C36.1875 32.8573 35.7677 32.4375 35.25 32.4375Z" fill="url(#paint0_linear)"/>
<path d="M28.9621 34.9754C28.5024 34.5157 28.277 34.3125 27.75 34.3125C27.223 34.3125 26.9976 34.5157 26.5379 34.9754C26.0264 35.4869 25.3258 36.1875 24 36.1875C22.6742 36.1875 21.9736 35.4869 21.4621 34.9754C21.0024 34.5157 20.777 34.3125 20.25 34.3125C19.723 34.3125 19.4976 34.5157 19.0379 34.9754C18.5264 35.4869 17.8258 36.1875 16.5 36.1875C16.1454 36.1875 15.8359 36.1371 15.5625 36.0539V39.0625C15.5625 39.5802 15.9822 40 16.5 40H31.5C32.0177 40 32.4375 39.5802 32.4375 39.0625V36.0539C32.1641 36.1371 31.8546 36.1875 31.5 36.1875C30.1742 36.1875 29.4736 35.4869 28.9621 34.9754ZM17.4852 24.7932C17.8779 28.0393 20.6497 30.5625 24 30.5625C27.3503 30.5625 30.1221 28.0393 30.5148 24.7932C31.6309 24.4201 32.4375 23.365 32.4375 22.125C32.4375 20.885 31.6309 19.8299 30.5148 19.4567C30.1221 16.2107 27.3503 13.6875 24 13.6875C20.6497 13.6875 17.8779 16.2107 17.4852 19.4567C16.3691 19.8299 15.5625 20.885 15.5625 22.125C15.5625 23.365 16.3691 24.4201 17.4852 24.7932ZM24 21.1875C25.5508 21.1875 26.8125 22.4492 26.8125 24C26.8125 25.5508 25.5508 26.8125 24 26.8125C22.4492 26.8125 21.1875 25.5508 21.1875 24C21.1875 22.4492 22.4492 21.1875 24 21.1875Z" fill="url(#paint1_linear)"/>
<defs>
<linearGradient id="paint0_linear" x1="24" y1="37.4375" x2="24" y2="8" gradientUnits="userSpaceOnUse">
<stop stop-color="#FD5A00"/>
<stop offset="1" stop-color="#FFDC00"/>
</linearGradient>
<linearGradient id="paint1_linear" x1="24" y1="40" x2="24" y2="13.6875" gradientUnits="userSpaceOnUse">
<stop stop-color="#FFE59A"/>
<stop offset="1" stop-color="#FFFFC8"/>
</linearGradient>
</defs>
</svg>
