<svg width="48" height="48" viewBox="0 0 48 48" fill="none" xmlns="http://www.w3.org/2000/svg">
<path d="M24 40C32.8366 40 40 32.8366 40 24C40 15.1634 32.8366 8 24 8C15.1634 8 8 15.1634 8 24C8 32.8366 15.1634 40 24 40Z" fill="url(#paint0_linear)"/>
<path d="M20.25 22.125C20.25 22.6432 20.6693 23.0625 21.1875 23.0625C21.7057 23.0625 22.125 22.6432 22.125 22.125C22.125 20.0568 20.4422 18.375 18.375 18.375C16.3077 18.375 14.625 20.0568 14.625 22.125C14.625 22.6432 15.0443 23.0625 15.5625 23.0625C16.0807 23.0625 16.5 22.6432 16.5 22.125C16.5 21.0914 17.3404 20.25 18.375 20.25C19.4096 20.25 20.25 21.0914 20.25 22.125ZM31.5 22.125C31.5 22.6432 31.9193 23.0625 32.4375 23.0625C32.9557 23.0625 33.375 22.6432 33.375 22.125C33.375 20.0568 31.6922 18.375 29.625 18.375C27.5577 18.375 25.875 20.0568 25.875 22.125C25.875 22.6432 26.2943 23.0625 26.8125 23.0625C27.3307 23.0625 27.75 22.6432 27.75 22.125C27.75 21.0914 28.5904 20.25 29.625 20.25C30.6596 20.25 31.5 21.0914 31.5 22.125ZM16.1372 24.9961C15.1741 25.2662 10.3089 26.6771 9.09862 27.8874C7.63562 29.3495 7.63562 31.7289 9.09862 33.191C10.5599 34.6522 12.9404 34.6519 14.4014 33.191C15.6117 31.9807 17.0216 27.1156 17.2926 26.1524C17.3842 25.8256 17.2926 25.4759 17.0527 25.236C16.8129 24.9961 16.4595 24.9036 16.1372 24.9961ZM38.9014 27.8873C37.6911 26.677 32.8259 25.2662 31.8628 24.9961C31.5442 24.9054 31.1871 24.997 30.9473 25.2359C30.7074 25.4758 30.6159 25.8256 30.7074 26.1524C30.9784 27.1155 32.3884 31.9806 33.5987 33.1909C35.0599 34.6521 37.4405 34.6519 38.9014 33.1909C40.3644 31.7289 40.3644 29.3494 38.9014 27.8873ZM27.75 26.8125H20.25C19.7318 26.8125 19.3125 27.2318 19.3125 27.75V31.5C19.3125 34.0846 21.4146 36.1875 24 36.1875C26.5854 36.1875 28.6875 34.0846 28.6875 31.5V27.75C28.6875 27.2318 28.2682 26.8125 27.75 26.8125Z" fill="url(#paint1_linear)"/>
<defs>
<linearGradient id="paint0_linear" x1="24" y1="40" x2="24" y2="8" gradientUnits="userSpaceOnUse">
<stop stop-color="#FD5A00"/>
<stop offset="1" stop-color="#FFDC00"/>
</linearGradient>
<linearGradient id="paint1_linear" x1="24" y1="36.1875" x2="24" y2="18.375" gradientUnits="userSpaceOnUse">
<stop stop-color="#FFE59A"/>
<stop offset="1" stop-color="#FFFFD5"/>
</linearGradient>
</defs>
</svg>
