<svg width="48" height="48" viewBox="0 0 48 48" fill="none" xmlns="http://www.w3.org/2000/svg">
<path d="M40 13.75C40 11.6818 38.3182 10 36.25 10C34.8804 10 33.5837 10.8141 32.9346 11.9704C31.3663 11.7599 29.7852 12.6076 29.0922 14.0166C26.9911 14.587 25.3806 16.3338 25.008 18.5101C24.9219 19.0097 25.2493 19.4837 25.7421 19.5854C25.1756 19.4886 24.5937 19.4375 24 19.4375C23.4063 19.4375 22.8244 19.4886 22.2579 19.5854C22.7508 19.4838 23.0781 19.0097 22.992 18.5101C22.6194 16.3339 21.0089 14.587 18.9078 14.0166C18.2157 12.6067 16.6419 11.7571 15.0654 11.9704C14.4162 10.8141 13.1196 10 11.75 10C9.68181 10 8 11.6818 8 13.75C8 14.5547 8.31975 15.3844 8.78763 16.0143C8.31613 16.7632 8 17.6211 8 18.5C8 20.1269 8.90844 21.6091 10.2469 22.4514C9.39944 24.6747 10.3312 27.2259 12.5559 28.3382C12.8228 28.4717 13.1318 28.4669 13.3853 28.3428C13.6471 28.2146 13.8358 27.9729 13.8934 27.6873C13.9626 27.3485 14.049 27.0157 14.151 26.6896C13.8499 27.6569 13.6875 28.6849 13.6875 29.75C13.6875 35.4363 18.3137 40.0625 24 40.0625C29.6863 40.0625 34.3125 35.4363 34.3125 29.75C34.3125 28.6849 34.1501 27.6569 33.8489 26.6896C33.9509 27.0157 34.0373 27.3485 34.1065 27.6873C34.1642 27.9729 34.3528 28.2147 34.6146 28.3428C34.8682 28.4669 35.1771 28.4717 35.4441 28.3382C37.6676 27.2265 38.601 24.6759 37.753 22.4514C39.6408 21.2636 40.8725 18.6512 39.2124 16.0144C39.6803 15.3844 40 14.5547 40 13.75ZM14.2181 26.4835C14.1963 26.5485 14.1749 26.6136 14.1544 26.6791C14.1749 26.6136 14.1962 26.5484 14.2181 26.4835ZM14.2837 26.2946C14.2703 26.3323 14.2568 26.37 14.2438 26.4079C14.2568 26.37 14.2702 26.3323 14.2837 26.2946ZM33.7819 26.4835C33.8037 26.5484 33.825 26.6137 33.8456 26.6791C33.8251 26.6136 33.8037 26.5484 33.7819 26.4835ZM33.7163 26.2946C33.7298 26.3323 33.7432 26.37 33.7563 26.4079C33.7433 26.37 33.7298 26.3323 33.7163 26.2946Z" fill="url(#paint0_linear)"/>
<path d="M35.9438 27.3125C34.9501 22.4375 30.9938 18.5937 26.1 17.75C24.7687 17.5062 23.2313 17.5062 21.9 17.75C17.0062 18.5937 13.0499 22.4375 12.0563 27.3125C11.8874 28.1 11.8125 28.925 11.8125 29.75C11.8125 36.4624 17.2875 42 24 42C30.7125 42 36.1875 36.4624 36.1875 29.75C36.1875 28.925 36.1126 28.1 35.9438 27.3125ZM25.7625 25.3437C25.3875 24.9688 25.3875 24.3688 25.7625 24.0125C26.1188 23.6375 26.7188 23.6375 27.0938 24.0125L27.75 24.6687L28.4062 24.0125C28.7812 23.6375 29.3812 23.6375 29.7375 24.0125C30.1125 24.3688 30.1125 24.9688 29.7375 25.3437L29.0813 26L29.7375 26.6562C30.1125 27.0312 30.1125 27.6313 29.7375 27.9875C29.3536 28.3715 28.7707 28.3518 28.4062 27.9875L27.75 27.3312L27.0938 27.9875C26.7303 28.3509 26.1474 28.3724 25.7625 27.9875C25.3875 27.6313 25.3875 27.0313 25.7625 26.6562L26.4187 26L25.7625 25.3437ZM26.8125 31.625C26.8125 33.1811 25.5562 34.4375 24 34.4375C22.4438 34.4375 21.1875 33.1811 21.1875 31.625C21.1875 30.0688 22.4438 28.8125 24 28.8125C25.5562 28.8125 26.8125 30.0688 26.8125 31.625ZM18.2625 25.3437C17.8875 24.9688 17.8875 24.3688 18.2625 24.0125C18.6187 23.6375 19.2188 23.6375 19.5938 24.0125L20.25 24.6687L20.9062 24.0125C21.2812 23.6375 21.8813 23.6375 22.2375 24.0125C22.6125 24.3688 22.6125 24.9688 22.2375 25.3437L21.5813 26L22.2375 26.6562C22.6125 27.0312 22.6125 27.6313 22.2375 27.9875C21.8536 28.3715 21.2707 28.3518 20.9062 27.9875L20.25 27.3312L19.5938 27.9875C19.2303 28.3509 18.6474 28.3724 18.2625 27.9875C17.8875 27.6313 17.8875 27.0313 18.2625 26.6562L18.9187 26L18.2625 25.3437ZM24 38.1875C19.3501 38.1875 15.5625 34.4 15.5625 29.75C15.5625 29.225 15.9749 28.8125 16.5 28.8125C17.0251 28.8125 17.4375 29.225 17.4375 29.75C17.4375 33.3688 20.3813 36.3125 24 36.3125C27.6187 36.3125 30.5625 33.3688 30.5625 29.75C30.5625 29.225 30.9749 28.8125 31.5 28.8125C32.0251 28.8125 32.4375 29.225 32.4375 29.75C32.4375 34.4 28.6499 38.1875 24 38.1875Z" fill="url(#paint1_linear)"/>
<defs>
<linearGradient id="paint0_linear" x1="24" y1="40.0625" x2="24" y2="10" gradientUnits="userSpaceOnUse">
<stop stop-color="#FFE59A"/>
<stop offset="1" stop-color="#FFFFD5"/>
</linearGradient>
<linearGradient id="paint1_linear" x1="24" y1="42" x2="24" y2="17.5671" gradientUnits="userSpaceOnUse">
<stop stop-color="#FD5A00"/>
<stop offset="1" stop-color="#FFDC00"/>
</linearGradient>
</defs>
</svg>
