<svg width="48" height="48" viewBox="0 0 48 48" fill="none" xmlns="http://www.w3.org/2000/svg">
<path d="M36.2361 10H24.9861C24.4684 10 24.0486 10.4197 24.0486 10.9375V26C24.0486 26.5177 24.4684 26.9375 24.9861 26.9375C26.5967 26.9375 28.1789 26.3979 29.3351 25.8744C28.6404 27.5951 26.9527 28.8125 24.9861 28.8125C24.4684 28.8125 24.0486 29.2322 24.0486 29.75V37.25C24.0486 37.5514 24.1935 37.8343 24.4379 38.0105C24.6846 38.1883 24.9994 38.2338 25.2826 38.1394C32.395 35.7686 37.1736 29.1386 37.1736 21.6415V10.9375C37.1736 10.4197 36.7539 10 36.2361 10ZM21.2361 13.75H9.98611C9.46836 13.75 9.04861 14.1697 9.04861 14.6875V25.3915C9.04861 32.9021 13.8499 39.5886 20.9396 41.9519C21.2292 42.0484 21.5431 41.9969 21.7842 41.823C22.0287 41.6468 22.1736 41.3639 22.1736 41.0625V29.75C22.1736 29.2322 21.7539 28.8125 21.2361 28.8125C19.6256 28.8125 17.1111 28.3333 16.8872 27.2089C19.4444 28 20.7778 27.3333 21.2361 26.9373C21.7539 26.9373 22.1736 26.5176 22.1736 25.9998V14.6875C22.1736 14.1697 21.7539 13.75 21.2361 13.75Z" fill="url(#paint0_linear)"/>
<path d="M29.625 19.4375C31.1758 19.4375 32.4375 18.1758 32.4375 16.625C32.4375 16.1073 32.0178 15.6875 31.5 15.6875C30.9822 15.6875 30.5625 16.1073 30.5625 16.625C30.5625 17.1419 30.1419 17.5625 29.625 17.5625C29.1072 17.5625 28.6875 17.9823 28.6875 18.5C28.6875 19.0177 29.1072 19.4375 29.625 19.4375ZM16.5 21.3125C17.0169 21.3125 17.4375 21.7331 17.4375 22.25C17.4375 22.7678 17.8573 23.1875 18.375 23.1875C18.8927 23.1875 19.3125 22.7678 19.3125 22.25C19.3125 20.6992 18.0508 19.4375 16.5 19.4375C15.9823 19.4375 15.5625 19.8572 15.5625 20.375C15.5625 20.8928 15.9823 21.3125 16.5 21.3125Z" fill="url(#paint1_linear)"/>
<defs>
<linearGradient id="paint0_linear" x1="23.1111" y1="42" x2="23.1111" y2="10" gradientUnits="userSpaceOnUse">
<stop stop-color="#FD5A00"/>
<stop offset="1" stop-color="#FFDC00"/>
</linearGradient>
<linearGradient id="paint1_linear" x1="24" y1="15.6875" x2="24" y2="23.1875" gradientUnits="userSpaceOnUse">
<stop stop-color="#FFE59A"/>
<stop offset="0.9973" stop-color="white"/>
</linearGradient>
</defs>
</svg>
