<svg width="48" height="48" viewBox="0 0 48 48" fill="none" xmlns="http://www.w3.org/2000/svg">
<g clip-path="url(#clip0)">
<path d="M13.2348 19.4119C13.2348 19.4119 12.2242 17.6397 10.0573 17.0701C9.36178 16.8874 8.68417 17.4252 8.68417 18.1442V19.8416C8.68417 23.2032 10.6932 26.2393 13.7871 27.5535L13.2348 19.4119Z" fill="url(#paint0_linear)"/>
<path d="M34.7652 19.4119C34.7652 19.4119 35.7758 17.6397 37.9428 17.0701C38.6383 16.8874 39.3159 17.4252 39.3159 18.1442V19.8416C39.3159 23.2032 37.3069 26.2393 34.2129 27.5535L34.7652 19.4119Z" fill="url(#paint1_linear)"/>
<path fill-rule="evenodd" clip-rule="evenodd" d="M27.3143 33.8381C32.0397 32.4158 35.4819 28.0307 35.4819 22.8417C35.4819 16.5005 30.3412 11.3599 24 11.3599C17.6587 11.3599 12.5181 16.5005 12.5181 22.8417C12.5181 28.0307 15.9602 32.4158 20.6857 33.8381H18.4025C18.4025 33.8381 14.4873 35.6876 14.4873 40H33.5127C33.5127 35.6877 29.5975 33.8381 29.5975 33.8381H27.3143Z" fill="url(#paint2_linear)"/>
<path d="M17.2041 22.6667H16.0445C15.2835 22.6667 14.6667 23.2836 14.6667 24.0446V26.5942H18.5819V24.0446C18.5819 23.2836 17.965 22.6667 17.2041 22.6667Z" fill="#FD5900"/>
<path d="M30.7111 22.6667H31.8707C32.6317 22.6667 33.2486 23.2836 33.2486 24.0446V26.5942H29.3333V24.0446C29.3333 23.2836 29.9502 22.6667 30.7111 22.6667Z" fill="#FD5900"/>
<path d="M32.0644 25.3333H15.9357C15.0808 25.3333 14.4711 26.0498 14.7246 26.7558C15.9526 30.1759 19.6463 32.6666 24 32.6666C28.3536 32.6666 32.0474 30.1759 33.2753 26.7558C33.5289 26.0498 32.9192 25.3333 32.0644 25.3333Z" fill="url(#paint3_linear)"/>
<path d="M24.8824 8.69614C24.7901 8.28665 24.4198 8 24 8C23.5803 8 23.2099 8.28665 23.1177 8.69614C22.7608 10.2792 21.35 11.6674 21.35 11.6674C21.35 11.6674 22.3945 11.7905 23.2214 12.7281C23.633 13.1949 24.3671 13.1949 24.7788 12.7281C25.6057 11.7905 26.6502 11.6674 26.6502 11.6674C26.6502 11.6674 25.2392 10.2791 24.8824 8.69614Z" fill="url(#paint4_linear)"/>
<path d="M19.6052 18.6218L17.4568 18.0461C17.1995 17.9771 16.9344 18.1299 16.8653 18.3875C16.7963 18.6451 16.9491 18.91 17.2067 18.979L18.0733 19.2112C17.992 19.2976 17.9418 19.4137 17.9418 19.5417V20.4672C17.9418 20.7339 18.158 20.9501 18.4247 20.9501C18.6914 20.9501 18.9076 20.7339 18.9076 20.4672V19.5417C18.9076 19.5036 18.9027 19.4667 18.8944 19.4312L19.3552 19.5547C19.3971 19.5659 19.4391 19.5712 19.4805 19.5712C19.6937 19.5712 19.8889 19.4289 19.9467 19.2132C20.0157 18.9556 19.8629 18.6908 19.6052 18.6218Z" fill="#FD5A00"/>
<path d="M31.1347 18.3873C31.0656 18.1297 30.8006 17.9768 30.5432 18.0459L28.3948 18.6216C28.1371 18.6906 27.9843 18.9554 28.0533 19.213C28.1111 19.4288 28.3062 19.5711 28.5195 19.5711C28.5609 19.5711 28.6029 19.5657 28.6448 19.5545L29.1056 19.431C29.0972 19.4666 29.0924 19.5035 29.0924 19.5416V20.4671C29.0924 20.7337 29.3086 20.95 29.5753 20.95C29.842 20.95 30.0582 20.7337 30.0582 20.4671V19.5416C30.0582 19.4135 30.008 19.2974 29.9266 19.211L30.7932 18.9788C31.0508 18.9097 31.2037 18.6449 31.1347 18.3873Z" fill="#FD5A00"/>
<path d="M18.4769 39.9999V37.8437C18.4769 37.577 18.2607 37.3608 17.994 37.3608C17.7273 37.3608 17.5111 37.577 17.5111 37.8437V39.9999H18.4769Z" fill="#FD5A00"/>
<path d="M30.489 39.9999V37.8437C30.489 37.577 30.2728 37.3608 30.0061 37.3608C29.7394 37.3608 29.5232 37.577 29.5232 37.8437V39.9999H30.489Z" fill="#FD5A00"/>
</g>
<defs>
<linearGradient id="paint0_linear" x1="11.2356" y1="17.0342" x2="11.2356" y2="27.5535" gradientUnits="userSpaceOnUse">
<stop stop-color="#FFDC00"/>
<stop offset="1" stop-color="#FD5A00"/>
</linearGradient>
<linearGradient id="paint1_linear" x1="36.7644" y1="17.0342" x2="36.7644" y2="27.5535" gradientUnits="userSpaceOnUse">
<stop stop-color="#FFDC00"/>
<stop offset="1" stop-color="#FD5A00"/>
</linearGradient>
<linearGradient id="paint2_linear" x1="24" y1="11.3599" x2="24" y2="40" gradientUnits="userSpaceOnUse">
<stop stop-color="#FFFFD5"/>
<stop offset="1" stop-color="#FFE59A"/>
</linearGradient>
<linearGradient id="paint3_linear" x1="24" y1="25.3333" x2="24" y2="32.6666" gradientUnits="userSpaceOnUse">
<stop stop-color="#FFDC00"/>
<stop offset="1" stop-color="#FD5A00"/>
</linearGradient>
<linearGradient id="paint4_linear" x1="24.0001" y1="8" x2="24.0001" y2="13.0782" gradientUnits="userSpaceOnUse">
<stop stop-color="#FFDC00"/>
<stop offset="1" stop-color="#FD5A00"/>
</linearGradient>
<clipPath id="clip0">
<rect width="32" height="32" fill="white" transform="translate(8 8)"/>
</clipPath>
</defs>
</svg>
